<svg width="404" height="283" viewBox="0 0 404 283" fill="none" xmlns="http://www.w3.org/2000/svg">
<path d="M107.249 66.6658L107.24 66.6661C107.225 66.6667 107.211 66.6634 107.198 66.6567L107.191 66.653C105.987 66.0428 104.751 65.499 103.488 65.0242C102.235 64.5481 100.937 64.0869 99.6751 63.7171L99.7775 63.732L99.7592 63.7325C99.7278 63.7334 99.6965 63.7294 99.6664 63.7204L99.6411 63.7127C92.972 61.6208 86.0473 60.4545 79.061 60.2465C75.5791 60.1433 72.0941 60.2544 68.6259 60.5792L58.1135 61.4673C51.103 62.0329 44.0793 62.4372 37.059 62.8841C30.037 63.3096 23.0181 63.771 16.0092 64.3547L16.1592 63.8178C17.3994 64.719 18.534 65.7573 19.5414 66.913C20.5382 68.0824 21.3877 69.3696 22.0709 70.7459C22.732 72.1313 23.256 73.578 23.6354 75.0655C23.9947 76.556 24.2253 78.0747 24.3245 79.6047C24.495 82.6625 24.2893 85.7297 23.7122 88.7375C23.1663 91.7584 22.3096 94.7149 21.1557 97.5597L20.321 96.4853C25.2526 95.5536 30.1828 94.6137 35.1209 93.7182L49.9292 90.9996L49.1202 91.7288L49.2274 91.411L49.1948 91.4974C49.9113 89.2306 51.3869 87.2799 53.3732 85.9736C55.3473 84.6707 57.6888 84.0387 60.0504 84.1715C62.4221 84.3239 64.6723 85.275 66.4342 86.87C66.6643 87.0544 66.872 87.2651 67.0531 87.4978L67.6253 88.1703C67.9684 88.6442 68.2848 89.1368 68.5729 89.646C68.8467 90.151 69.0336 90.6703 69.2663 91.1823C69.3747 91.4398 69.4928 91.6946 69.5924 91.9544L69.8367 92.7481C71.0152 96.9457 71.4683 101.314 71.1762 105.664C70.9824 109.955 70.3802 114.219 69.3776 118.396L68.6374 117.653L78.5921 115.571L88.5673 113.577C88.5924 113.572 88.6185 113.577 88.64 113.591C88.6615 113.605 88.6767 113.626 88.6825 113.651C88.6882 113.676 88.6839 113.702 88.6706 113.724C88.6572 113.746 88.6359 113.762 88.6111 113.768L78.7728 116.349L68.9169 118.855C68.8177 118.88 68.7138 118.88 68.6148 118.854C68.5158 118.829 68.4248 118.779 68.3502 118.709C68.2756 118.639 68.2199 118.551 68.1882 118.454C68.1564 118.356 68.1497 118.253 68.1686 118.152L68.1765 118.112C68.9719 113.99 69.4263 109.809 69.5348 105.612C69.7136 101.47 69.1869 97.327 67.9771 93.3613L67.7437 92.6369C67.6506 92.4032 67.5408 92.1779 67.4406 91.9479C67.2283 91.4981 67.05 91.0139 66.8131 90.5917C66.5447 90.1996 66.3344 89.7633 66.0297 89.4022L65.5631 88.8689C65.4196 88.6815 65.2513 88.5145 65.063 88.3722C63.6361 87.1148 61.8268 86.3752 59.9277 86.2729C58.0198 86.1634 56.1272 86.6706 54.5298 87.7196C52.9389 88.7691 51.7485 90.3245 51.1511 92.1343L51.1184 92.2212C51.1134 92.246 51.1057 92.2702 51.0956 92.2933L51.0296 92.4433C50.9626 92.5934 50.8598 92.7247 50.7302 92.8258C50.6006 92.9268 50.4481 92.9945 50.2862 93.0228L35.4416 95.5359C30.4953 96.3844 25.541 97.1884 20.5884 98.0007C20.4509 98.0232 20.3099 98.0083 20.1802 97.9574C20.0505 97.9065 19.937 97.8216 19.8515 97.7116C19.766 97.6016 19.7118 97.4706 19.6946 97.3323C19.6773 97.1941 19.6977 97.0538 19.7535 96.9261C20.9304 94.2066 21.8482 91.3822 22.4946 88.4903C23.1669 85.594 23.4693 82.6242 23.3945 79.6519C23.3458 78.1703 23.1701 76.6957 22.8693 75.2442C22.5505 73.7981 22.0714 72.3921 21.4407 71.0523C20.7979 69.719 19.9942 68.4696 19.0475 67.3319C18.0857 66.2027 16.9999 65.1855 15.8105 64.2993L15.8022 64.2929C15.755 64.2562 15.7199 64.206 15.7017 64.149C15.6834 64.092 15.6828 64.0308 15.6999 63.9735C15.717 63.9161 15.751 63.8652 15.7975 63.8276C15.844 63.7899 15.9008 63.7671 15.9605 63.7623C22.9706 63.1928 29.971 62.5052 36.9677 61.7738C43.9663 61.0651 50.9614 60.3138 57.9698 59.7237L68.4855 58.8785C72.0251 58.5765 75.5815 58.5221 79.1287 58.7155C82.6743 58.9119 86.2001 59.3751 89.6761 60.1013C93.1489 60.804 96.5601 61.783 99.877 63.0289L99.7592 63.0092L99.7776 63.0097L99.8054 63.0105C99.831 63.0113 99.8563 63.0161 99.8804 63.0246C101.195 63.4941 102.425 64.0159 103.676 64.5751C104.921 65.1308 106.128 65.7678 107.289 66.482L107.24 66.469L107.249 66.4693C107.275 66.4703 107.299 66.4811 107.316 66.4994C107.334 66.5177 107.344 66.5422 107.344 66.5676C107.344 66.593 107.334 66.6174 107.316 66.6357C107.299 66.654 107.274 66.6648 107.249 66.6658ZM150.237 92.8661C149.677 90.0596 148.553 87.3961 146.932 85.0373C146.124 83.9064 145.194 82.8675 144.159 81.9393C143.111 81.0235 141.987 80.1976 140.801 79.4705C138.363 78.0452 135.762 76.9195 133.054 76.1178C130.309 75.2863 127.501 74.6749 124.659 74.2892L124.604 74.2838C123.632 74.0131 122.664 73.7239 121.699 73.4163C122.711 73.4661 123.719 73.5382 124.723 73.6267L124.669 73.6214C127.637 73.4917 130.609 73.7746 133.5 74.462C136.436 75.1232 139.244 76.2585 141.815 77.8233C144.436 79.4025 146.618 81.6151 148.16 84.2578C149.644 86.8766 150.363 89.8589 150.237 92.8661Z" fill="black"/>
<path d="M57.1889 84.772C58.9009 84.1093 60.632 83.5323 62.3751 83.009C64.1167 82.4786 65.8673 81.9888 67.6269 81.5396C69.3813 81.0668 71.155 80.681 72.9219 80.2642C74.6985 79.8915 76.4717 79.5018 78.2619 79.1887L78.6756 79.1164L78.9356 79.3149C79.6694 79.8819 80.3466 80.5187 80.9576 81.2164C81.5638 81.8803 82.1208 82.5875 82.6242 83.3325C83.1287 84.0683 83.5814 84.8384 83.979 85.637C84.3797 86.4271 84.7187 87.247 84.9928 88.0895C84.48 87.372 83.952 86.6774 83.4087 86.0058C82.8577 85.3352 82.3018 84.6661 81.7218 84.0589C81.1298 83.4433 80.5242 82.8477 79.8948 82.2869C79.28 81.7462 78.6362 81.2395 77.966 80.7691L78.6394 80.8952C76.8849 81.3656 75.1136 81.7603 73.347 82.1784C71.5703 82.5506 69.8006 82.9539 68.0116 83.2701C66.2284 83.6127 64.4355 83.912 62.633 84.1678C60.8326 84.4336 59.0203 84.6457 57.1889 84.772ZM32.2654 62.7195C34.364 64.6603 36.0153 67.0344 37.1049 69.677C38.2443 72.3192 38.9632 75.1233 39.2354 77.9878C39.463 80.8452 39.2877 83.7205 38.7146 86.5291C38.6454 86.8781 38.5923 87.2298 38.5098 87.5751L38.2165 88.6008L37.601 90.6344C37.1039 91.9599 36.5222 93.2524 35.9124 94.5135C36.1109 93.1066 36.4386 91.7581 36.667 90.3936L36.955 88.343L37.1137 87.3264C37.1563 86.9866 37.1693 86.6427 37.1985 86.3019C37.246 85.6185 37.3005 84.9386 37.3723 84.2616C37.423 83.583 37.3963 82.9006 37.4128 82.2224C37.4433 80.8683 37.399 79.5136 37.28 78.1644C37.0306 75.4666 36.4933 72.8032 35.6774 70.2197C34.8554 67.5878 33.7093 65.0684 32.2654 62.7195Z" fill="black"/>
<path d="M85.5225 83.1643C86.9908 82.616 88.4683 82.077 89.9552 81.5659C89.8728 82.1727 89.8294 82.7842 89.825 83.3966C88.5519 83.7962 87.2695 84.1772 85.9778 84.5489C85.1043 84.7998 84.2308 85.0507 83.348 85.3016C83.2272 85.1157 83.1064 84.9391 82.9856 84.7719C82.8648 84.5953 82.7346 84.4281 82.6231 84.2701C83.5896 83.8891 84.556 83.5267 85.5225 83.1643ZM100.168 80.0233C99.0342 80.4136 97.9191 80.8039 96.7853 81.1849H96.776C96.423 80.6258 96.0118 80.1057 95.5494 79.633L95.9675 79.4936C97.2221 79.0847 98.4766 78.6758 99.7312 78.2763C99.8798 78.9082 100.038 79.4936 100.168 80.0233ZM93.7838 73.8994C95.6516 73.2953 97.5195 72.6913 99.3966 72.1058C99.1937 72.7296 99.0963 73.3829 99.1085 74.0388C97.538 74.5964 95.949 75.126 94.3692 75.665C90.8658 76.808 87.3439 77.9324 83.794 78.9454C82.1492 79.4285 80.4951 79.8901 78.8317 80.33C76.9174 80.8411 75.0031 81.3243 73.0609 81.7425C73.8322 81.3986 74.6035 81.0548 75.3841 80.7203C75.3934 80.7203 75.3934 80.7203 75.4026 80.711C78.0232 79.5959 80.681 78.5643 83.3387 77.57C86.7956 76.269 90.2897 75.0795 93.7838 73.8994ZM108.401 70.6097C108.243 70.6748 108.085 70.7398 107.927 70.7956C107.521 70.4556 107.063 70.1827 106.571 69.9871C107.072 69.8477 107.574 69.7083 108.076 69.5689C108.197 69.9592 108.308 70.3123 108.401 70.6097ZM20.4564 97.2393C-0.523223 78.0907 15.9883 64.0622 15.9883 64.0622C30.6516 74.68 20.4564 97.2393 20.4564 97.2393ZM68.7755 118.25C51.4634 123.414 50.1086 92.0096 50.1086 92.0096C50.1289 91.9452 50.1494 91.8812 50.1701 91.8176C52.7731 83.8219 63.9304 82.7877 67.7795 90.2638C72.9955 100.395 68.7755 118.25 68.7755 118.25ZM81.8341 114.5C78.9668 121.565 76.0333 128.557 73.3339 135.614C70.5752 142.584 68.2505 149.718 66.3731 156.975C65.9301 158.756 65.59 160.561 65.3543 162.381C65.0982 164.142 65.1061 165.933 65.3779 167.692C65.5206 168.52 65.8014 169.318 66.2086 170.052C66.6239 170.75 67.1995 171.339 67.8877 171.77C69.4588 172.566 71.2451 172.834 72.9805 172.532C76.6664 171.892 80.2126 170.615 83.4601 168.758C84.2848 168.301 85.1107 167.85 85.9252 167.373L88.3329 165.875C89.9577 164.911 91.4804 163.783 93.0391 162.724C94.5922 161.654 96.0692 160.475 97.5835 159.359L99.7829 157.587C100.515 156.997 101.268 156.435 101.974 155.813C103.394 154.578 104.872 153.421 106.252 152.146L108.357 150.277L110.408 148.349C113.131 145.769 115.751 143.086 118.267 140.302C120.801 137.539 123.233 134.683 125.607 131.781C130.367 125.961 134.8 119.881 138.884 113.568C140.933 110.406 142.899 107.184 144.782 103.904C146.668 100.627 148.473 97.2882 150.117 93.8661L150.487 93.9977C148.263 101.344 145.265 108.434 141.545 115.147C137.872 121.913 133.633 128.356 128.873 134.406C124.062 140.433 118.721 146.017 112.913 151.091L110.733 152.986L108.492 154.808C107.008 156.034 105.454 157.174 103.901 158.309C102.346 159.44 100.73 160.49 99.1294 161.55C97.4813 162.544 95.8765 163.596 94.2011 164.534C92.5278 165.475 90.8765 166.444 89.17 167.316C87.4784 168.21 85.7917 169.112 84.0632 169.948C80.6205 171.727 76.9486 173.021 73.1517 173.795C71.1269 174.222 69.0193 174.009 67.1204 173.187C66.1401 172.695 65.2919 171.975 64.6469 171.088C64.0405 170.211 63.5774 169.242 63.275 168.219C62.7392 166.258 62.504 164.227 62.5775 162.196C62.6311 160.226 62.8288 158.262 63.1688 156.32C63.8627 152.505 64.8804 148.757 66.2108 145.114C67.4855 141.479 68.9425 137.928 70.5242 134.44C71.2987 132.689 72.1409 130.969 72.9887 129.256C73.8295 127.539 74.7161 125.845 75.6288 124.166C77.4477 120.805 79.365 117.5 81.488 114.314L81.8341 114.5ZM35.6466 68.1321C40.9983 67.3267 46.3645 66.7147 51.7356 66.1706C57.1059 65.6143 62.4847 65.1726 67.8651 64.7532C73.2483 64.3703 78.6332 64.012 84.0267 63.7678C89.4193 63.5113 94.817 63.3244 100.229 63.3323C94.8777 64.1401 89.5115 64.7531 84.1404 65.2967C78.77 65.8524 73.3912 66.294 68.0106 66.7112C62.6272 67.0916 57.2423 67.4499 51.8488 67.6936C46.4562 67.9495 41.0585 68.1375 35.6466 68.1321Z" fill="black"/>
<path d="M101.376 158.286C100.607 151.461 99.8665 144.625 99.2037 137.782L98.9498 135.216L98.8229 133.933C98.8102 133.833 98.8063 133.704 98.7865 133.627C98.7632 133.567 98.7443 133.504 98.7299 133.441C98.6656 133.269 98.5924 133.101 98.5106 132.937C97.7524 131.5 96.7573 130.063 95.8339 128.628C93.9496 125.756 92.1322 122.812 90.5078 119.747C89.7041 118.209 88.9469 116.641 88.2851 115.023C87.6304 113.384 87.0814 111.752 86.5129 110.141C85.371 106.906 84.2392 103.668 83.1496 100.415L81.4963 95.5424L81.0829 94.3242C80.9218 93.8632 80.8138 93.3853 80.761 92.8998C80.6458 91.9123 80.785 90.9117 81.1654 89.9932C81.544 89.0154 82.2639 88.208 83.192 87.7203C84.1514 87.2989 85.2345 87.2555 86.2246 87.5987C87.9272 88.2375 89.481 89.2184 90.79 90.4807L89.7684 91.0546C89.5321 89.3974 89.3804 87.7293 89.314 86.0567C89.2818 85.222 89.2766 84.3781 89.3102 83.5426C89.3809 82.7003 89.4147 81.8442 89.5568 81.0083C89.679 80.1181 89.9968 79.2659 90.4874 78.513C90.78 78.0901 91.2119 77.7835 91.7076 77.6468C92.1837 77.549 92.677 77.5762 93.1395 77.7257C94.8085 78.2932 96.2092 79.4571 97.0727 80.994L96.7762 80.8324H96.7853L96.9776 80.8335L97.0797 80.9907C97.6506 81.9057 98.1673 82.8533 98.6273 83.8287C98.8408 84.2925 99.0914 84.7384 99.3765 85.162C99.5523 85.3703 99.5497 85.3674 99.7998 85.382C99.8783 85.3899 99.9574 85.3736 100.026 85.3354C100.095 85.2971 100.151 85.2386 100.186 85.1678C100.359 84.7228 100.429 84.2441 100.389 83.7683C100.376 83.2464 100.335 82.7256 100.266 82.208C100.133 81.1619 99.927 80.1262 99.6498 79.1087C99.3672 78.0726 99.1393 77.0224 98.9674 75.9624C98.772 74.8782 98.7569 73.7692 98.9228 72.6801C99.0268 72.1155 99.2364 71.5757 99.5407 71.0889C99.8606 70.5968 100.297 70.1914 100.812 69.9086C101.827 69.4117 102.957 69.194 104.084 69.2779L104.026 69.2806C104.507 69.2343 104.992 69.2502 105.469 69.3281C105.94 69.4042 106.402 69.5348 106.844 69.7171C107.737 70.0915 108.512 70.7026 109.084 71.4847L109.048 71.443C109.122 71.5217 109.165 71.6247 109.17 71.733L109.163 73.3175L108.436 71.9074L108.427 71.8891L108.417 71.8714L108.402 71.827C107.1 68.3771 106.224 64.7817 105.791 61.1201C105.699 60.1714 105.712 59.2156 105.829 58.2698C105.917 57.2152 106.374 56.2253 107.12 55.4743C107.555 55.0976 108.087 54.8503 108.656 54.7606C109.207 54.6962 109.765 54.7531 110.292 54.9272C111.233 55.2801 112.093 55.8196 112.82 56.5132C114.186 57.8112 115.386 59.2729 116.394 60.865C117.41 62.4119 118.343 64.0113 119.19 65.6565C120.954 68.9191 122.347 72.3695 123.34 75.9429C124.287 79.481 125.181 82.9867 126.396 86.3699C127.621 89.7111 129.099 93.0731 131.451 95.5099C132.542 96.7054 134.004 97.498 135.602 97.7594C136.422 97.8449 137.25 97.8112 138.061 97.6595C138.924 97.5405 139.779 97.365 140.62 97.1344C142.307 96.6775 143.934 96.0217 145.466 95.1809C146.981 94.353 148.381 93.3295 149.63 92.1366L150.633 91.1405L151.167 92.3594C151.747 93.7287 152.099 95.1834 152.209 96.6661C152.33 98.1037 152.278 99.5506 152.056 100.976C151.583 103.796 150.563 106.496 149.052 108.924C148.302 110.157 147.389 111.284 146.339 112.273C145.27 113.223 144.103 114.055 142.857 114.756C141.631 115.445 140.374 116.017 139.223 116.659C138.099 117.203 137.137 118.033 136.434 119.065C135.848 120.184 135.538 121.427 135.53 122.69C135.44 124.034 135.389 125.389 135.373 126.749C135.339 129.468 135.391 132.196 135.488 134.922C135.593 137.649 135.699 140.377 135.876 143.102C136.069 145.822 136.219 148.561 136.677 151.241L136.496 151.283C135.912 148.593 135.642 145.869 135.326 143.149C135.038 140.427 134.775 137.701 134.595 134.968C134.414 132.235 134.277 129.498 134.226 126.751C134.2 125.377 134.211 123.998 134.259 122.613C134.235 121.136 134.569 119.674 135.232 118.353C136.038 117.094 137.162 116.068 138.489 115.38C139.713 114.669 140.938 114.084 142.083 113.411C143.209 112.75 144.261 111.971 145.222 111.087C146.146 110.182 146.943 109.156 147.593 108.039C148.936 105.786 149.828 103.293 150.218 100.699C150.412 99.4205 150.454 98.1237 150.341 96.8357C150.242 95.5882 149.949 94.3637 149.475 93.2057L151.013 93.4284C148.241 96.0906 144.841 98.0084 141.129 99.0031C140.213 99.2582 139.28 99.4534 138.338 99.5875C137.857 99.6395 137.416 99.7298 136.901 99.7487L136.128 99.772C135.87 99.7566 135.611 99.7268 135.352 99.7024C133.313 99.4004 131.442 98.4038 130.053 96.881C127.348 93.992 125.906 90.453 124.658 86.9833C123.444 83.4843 122.573 79.9023 121.671 76.3877C121.442 75.5121 121.212 74.6404 120.935 73.8141C120.653 72.9717 120.334 72.1323 120.001 71.2976C119.334 69.6281 118.598 67.979 117.795 66.3668C117.002 64.754 116.124 63.1841 115.166 61.6637C114.245 60.1559 113.151 58.7613 111.906 57.5082C111.328 56.921 110.64 56.454 109.882 56.1342C109.543 56.0113 109.183 55.9607 108.824 55.9857C108.487 56.0309 108.168 56.1678 107.903 56.3815C107.354 56.9372 107.013 57.6651 106.938 58.4427C106.808 59.3051 106.773 60.1791 106.833 61.0492C107.171 64.6485 107.947 68.193 109.144 71.6043L109.12 71.5425L109.129 71.5611L108.395 71.7355C108.394 71.7825 108.403 71.8293 108.42 71.8729C108.438 71.9164 108.465 71.9558 108.499 71.9886L108.462 71.9466C107.987 71.2559 107.33 70.7097 106.564 70.3678C105.794 70.0299 104.954 69.8866 104.116 69.9506L104.079 69.9541L104.057 69.9533C103.051 69.8663 102.04 70.0462 101.125 70.475C100.701 70.717 100.337 71.052 100.061 71.4547C99.7845 71.8575 99.6029 72.3176 99.5298 72.8005C99.3689 73.8203 99.3762 74.8596 99.5515 75.8771C99.7116 76.9212 99.9267 77.9561 100.196 78.9774C100.48 80.0148 100.699 81.0688 100.852 82.1334C100.929 82.6709 100.978 83.2121 100.998 83.7547C101.053 84.3432 100.962 84.9361 100.731 85.4805C100.636 85.6387 100.504 85.7709 100.345 85.8654C100.187 85.96 100.007 86.0138 99.8227 86.0221C99.6383 86.0304 99.4548 85.993 99.2883 85.9132C99.1219 85.8333 98.9778 85.7136 98.8689 85.5646C98.5499 85.1109 98.27 84.631 98.0322 84.13C97.5725 83.184 97.058 82.2656 96.4912 81.3796L96.7854 81.5378L96.7763 81.5379L96.5849 81.539L96.4795 81.3761C95.7077 80.0019 94.4414 78.9733 92.9381 78.4995C92.6321 78.3674 92.2893 78.3478 91.9702 78.4443C91.6512 78.5408 91.3766 78.7471 91.1951 79.0266C90.8105 79.6799 90.5713 80.4084 90.4936 81.1625C90.3838 81.9583 90.3796 82.7594 90.3344 83.562C90.3263 84.3771 90.3559 85.1852 90.4119 85.9991C90.5258 87.6245 90.721 89.2431 90.9968 90.8489L91.2816 92.504L89.9751 91.4227C88.7756 90.3267 87.3685 89.4824 85.8371 88.9398C85.1846 88.7208 84.4736 88.7559 83.8459 89.038C83.2592 89.392 82.8129 89.9379 82.5825 90.5831C82.3106 91.2619 82.2168 91.9989 82.3101 92.7241C82.3535 93.0922 82.4389 93.4542 82.5648 93.8029L82.99 95.0187L84.6908 99.8822C85.8372 103.12 86.9412 106.373 88.0355 109.629C88.5896 111.261 89.1192 112.891 89.7209 114.446C90.3408 116.013 91.0598 117.548 91.8283 119.061C93.3737 122.087 95.1667 124.992 96.9666 127.91C97.8564 129.388 98.7907 130.802 99.5909 132.424C99.695 132.647 99.7849 132.876 99.86 133.109C99.8954 133.255 99.9264 133.403 99.9525 133.549C99.9726 133.683 99.9711 133.77 99.9814 133.883L100.072 135.165L100.253 137.729C100.751 144.568 101.171 151.413 101.561 158.27L101.376 158.286Z" fill="black"/>
<path d="M112.573 81.742L108.35 71.901L109.219 71.572L112.573 81.742Z" fill="black"/>
<path d="M250.17 48.1235C246.744 49.575 243.174 50.7954 239.599 51.9151C236.005 53.0233 232.352 53.9316 228.658 54.6357C224.943 55.3962 221.16 55.7731 217.369 55.7605C215.445 55.743 213.527 55.5462 211.64 55.1727C209.696 54.8022 207.835 54.0819 206.147 53.0467L206.229 53.0938C203.393 51.6784 200.541 50.2929 197.72 48.8462L196.779 48.3635L197.345 47.5483C197.414 47.4388 197.499 47.3411 197.598 47.2587C197.646 47.2139 197.697 47.1729 197.751 47.1361C197.836 47.0773 197.937 47.0004 198.012 46.9606C198.169 46.8746 198.337 46.7683 198.485 46.7046C198.792 46.5531 199.095 46.4232 199.393 46.3099C199.994 46.0762 200.589 45.869 201.186 45.6918C202.378 45.3138 203.577 45.0279 204.776 44.7475C207.174 44.1944 209.58 43.7266 211.995 43.3441C214.407 42.9386 216.823 42.5827 219.242 42.2544C221.659 41.912 224.082 41.6267 226.502 41.3235L226.174 41.504L231.124 35.8394C232.776 33.9487 234.368 32.0293 236.077 30.1596C239.528 26.4603 243.526 23.3123 247.932 20.8257C250.142 19.5965 252.439 18.5294 254.804 17.633C257.18 16.761 259.61 16.0479 262.08 15.4983C267.029 14.2397 272.156 13.8332 277.242 14.2965C282.389 14.9326 287.296 16.8453 291.516 19.8605C295.714 22.9201 299.134 26.9239 301.5 31.5486C302.671 33.8592 303.584 36.2917 304.223 38.8023L304.637 40.7C304.752 41.3285 304.863 41.9524 304.959 42.5825C305.159 43.8393 305.322 45.1032 305.448 46.3741C305.72 48.9253 305.782 51.4946 305.634 54.056C305.496 56.6565 305.021 59.2283 304.223 61.7071L303.902 62.671L302.932 62.3793L289.822 58.4384L276.676 54.6114C272.294 53.3359 267.901 52.0982 263.49 50.9427C261.287 50.3479 259.078 49.7872 256.86 49.2604C255.748 49.0296 254.64 48.7318 253.52 48.5554L251.841 48.2545L250.17 48.1235ZM250.124 47.9226L251.875 47.9408L253.585 48.1362C254.73 48.2569 255.847 48.4966 256.981 48.6714C259.232 49.0846 261.479 49.5267 263.712 50.0201C268.178 51.0113 272.624 52.0845 277.058 53.1954C281.494 54.3034 285.905 55.5024 290.317 56.6933C294.727 57.899 299.137 59.0903 303.528 60.3732L302.237 61.0453C303.71 56.4761 303.7 51.4668 303.257 46.5897C303.139 45.3649 302.983 44.1424 302.789 42.9223C302.698 42.3128 302.59 41.702 302.481 41.0976L302.095 39.3206C301.523 36.9618 300.696 34.6722 299.629 32.4923C297.463 28.1215 294.3 24.3207 290.396 21.3962C286.457 18.4947 281.869 16.6001 277.03 15.8773C272.118 15.297 267.145 15.5355 262.311 16.5832C257.407 17.4574 252.672 19.1052 248.285 21.4648C243.898 23.8428 239.935 26.9313 236.558 30.6049C233.275 34.3533 230.145 38.3032 226.972 42.178L226.852 42.3247L226.644 42.3587C224.242 42.7498 221.838 43.1262 219.445 43.5532C217.049 43.9662 214.658 44.4065 212.281 44.8941C209.903 45.3763 207.534 45.8921 205.194 46.4712C204.026 46.7637 202.864 47.0826 201.733 47.4375C201.163 47.6083 200.607 47.806 200.074 48.0157C199.803 48.1195 199.548 48.2312 199.308 48.3508C199.176 48.4072 199.09 48.4713 198.978 48.5292C198.938 48.5533 198.898 48.5795 198.861 48.6077C198.839 48.6212 198.822 48.6335 198.834 48.626C198.847 48.604 198.8 48.6799 198.926 48.4977L198.551 47.2001C201.39 48.6107 204.198 50.0827 207.022 51.5247L207.067 51.5477L207.104 51.5719C210.034 53.4811 213.781 54.0312 217.405 54.1613C219.245 54.2063 221.087 54.1518 222.921 53.9983C224.763 53.8655 226.605 53.6429 228.439 53.3569C232.112 52.8074 235.746 51.9738 239.364 51.0775C242.988 50.1675 246.55 49.1097 250.124 47.9226Z" fill="black"/>
<path d="M272.815 19.833C271.055 21.9003 269.252 23.9098 267.441 25.9084L262.013 31.8947C260.204 33.8865 258.409 35.8908 256.629 37.9075C254.862 39.9367 253.114 41.9778 251.378 44.0666C252.667 41.674 254.145 39.3883 255.798 37.2311C257.424 35.0553 259.191 32.9952 260.995 30.9728C262.824 28.9718 264.71 27.0261 266.677 25.1627C268.629 23.2809 270.678 21.5019 272.815 19.833ZM282.211 20.8221C283.667 23.4629 284.954 26.193 286.065 28.9962C287.194 31.7917 288.18 34.6418 289.024 37.5463C289.861 40.4526 290.513 43.4088 290.977 46.3973C291.439 49.3886 291.567 52.4219 291.361 55.4415C291.035 52.4677 290.555 49.5129 289.922 46.5891C289.28 43.6779 288.525 40.7937 287.705 37.9257C286.895 35.0536 285.977 32.2106 285.061 29.3618C284.119 26.5222 283.19 23.6713 282.211 20.8221ZM226.573 41.841C228.197 41.8635 229.818 41.977 231.429 42.1812C233.035 42.3619 234.627 42.6216 236.216 42.8966C237.801 43.1969 239.382 43.5142 240.949 43.9101C242.529 44.2858 244.086 44.7508 245.614 45.3029C243.99 45.2822 242.369 45.1693 240.758 44.9648C239.151 44.7838 237.559 44.5241 235.971 44.2474C234.386 43.9454 232.805 43.6282 231.238 43.2319C229.658 42.8559 228.101 42.3915 226.573 41.841ZM226.573 54.313C226.599 55.692 226.526 57.0686 226.428 58.4473C226.339 59.8389 226.141 61.2213 225.834 62.5817C225.683 63.3166 225.405 64.0199 225.015 64.6607C224.664 65.1852 224.322 65.7982 223.981 66.3819C223.295 67.561 222.632 68.7607 221.97 69.9594C220.633 72.3498 219.317 74.752 218.024 77.166C217.39 78.3774 216.733 79.5776 216.125 80.7962C215.82 81.4043 215.53 82.0181 215.246 82.6273C215.108 82.9327 214.975 83.2391 214.861 83.5412C214.81 83.6892 214.749 83.8448 214.719 83.977C214.7 84.0328 214.688 84.0905 214.681 84.1491C214.679 84.1602 214.67 84.2155 214.67 84.1911C214.67 84.168 214.664 84.1453 214.653 84.1251C214.642 84.105 214.626 84.088 214.606 84.0758L214.354 83.8988C214.823 84.0101 215.305 84.0555 215.786 84.0337C216.3 84.0133 216.812 83.9444 217.313 83.828C217.824 83.7084 218.326 83.5572 218.818 83.3753C219.315 83.1859 219.801 82.9694 220.274 82.727L220.343 82.692L220.389 82.7011C220.872 82.7925 221.324 83.0019 221.706 83.3108C222.071 83.618 222.331 84.0307 222.452 84.4921C222.271 84.0746 221.966 83.7231 221.578 83.4858C221.208 83.2526 220.788 83.1128 220.352 83.0784L220.468 83.0526C219.556 83.6847 218.56 84.1855 217.509 84.5406C216.97 84.7147 216.415 84.8374 215.853 84.9072C215.257 84.9895 214.653 84.9696 214.064 84.8481L213.895 84.8105L213.812 84.6709C213.746 84.5588 213.7 84.4359 213.677 84.308C213.669 84.237 213.668 84.1655 213.675 84.0944C213.678 83.9815 213.693 83.8692 213.719 83.7594C213.757 83.5726 213.804 83.3878 213.861 83.2059C213.969 82.858 214.089 82.5255 214.214 82.1969C214.464 81.5407 214.747 80.9057 215.033 80.2747C215.611 79.015 216.207 77.7704 216.846 76.5482C218.102 74.0931 219.444 71.6888 220.827 69.3065C221.529 68.1212 222.244 66.9442 222.981 65.7744C223.357 65.1871 223.725 64.6225 224.173 64.0293C224.518 63.5069 224.779 62.9332 224.946 62.3294C225.681 59.6999 226.224 57.0208 226.573 54.313Z" fill="black"/>
<path d="M230.035 87.9177C226.078 81.8181 220.371 84.4921 220.371 84.4921C220.371 84.4921 218.165 114.789 231.683 115.613C241.971 116.24 250.823 109.993 257.047 103.266C260.271 99.7643 262.311 95.3369 262.879 90.6111C263.723 83.7105 264.991 73.2857 265.314 70.2783C265.808 65.6624 267.679 53.5763 274.381 54.3129C274.381 54.3129 288.393 54.4524 281.14 78.6859C281.14 78.6859 279.161 93.8525 292.02 92.0391C292.02 92.0391 289.382 84.4558 292.844 78.6859C296.306 72.916 300.858 65.6215 300.643 60.6139C300.643 60.6139 255.258 47.1988 250.147 48.0231C253.292 49.6835 255.822 52.3088 257.365 55.5134C258.908 58.718 259.383 62.333 258.72 65.8273C257.212 75.6269 249.959 88.7776 246.594 94.4801C246.06 95.3897 245.29 96.1376 244.366 96.6445C243.441 97.1513 242.396 97.3981 241.342 97.3586C239.393 97.2802 237.157 96.9949 236.093 96.1604C233.991 94.5119 230.035 87.9177 230.035 87.9177Z" fill="black"/>
<path d="M229.55 58.8546C230.513 58.1127 231.616 57.5719 232.793 57.2642C233.99 56.9275 235.24 56.8231 236.477 56.9569C237.741 57.108 238.943 57.5872 239.964 58.3467C240.957 59.0881 241.719 60.0959 242.162 61.2531C241.329 60.4701 240.397 59.7978 239.392 59.2529C238.427 58.7605 237.382 58.4443 236.306 58.3192C235.205 58.1971 234.094 58.1951 232.992 58.3133C231.866 58.431 230.728 58.6158 229.55 58.8546ZM268.446 75.7186C270.656 76.5852 273.213 76.4874 274.85 75.0366C275.676 74.305 276.334 73.405 276.783 72.3972C277.265 71.3612 277.652 70.2831 277.937 69.1765C278.575 66.945 278.952 64.6472 279.06 62.3291C279.111 61.1655 279.082 59.9999 278.973 58.8404C278.918 58.2574 278.834 57.6776 278.72 57.1033C278.668 56.813 278.595 56.5302 278.518 56.2453C278.457 55.9571 278.34 55.6838 278.172 55.4417C278.587 55.8859 278.898 56.4158 279.084 56.9938C279.305 57.5584 279.49 58.1365 279.637 58.7246C279.918 59.907 280.084 61.1138 280.132 62.3281C280.221 64.7647 279.926 67.2001 279.26 69.5455C278.599 71.8239 277.638 74.3458 275.496 75.8873C274.442 76.6418 273.159 77.0065 271.866 76.9189C270.638 76.8376 269.455 76.4226 268.446 75.7186ZM252.454 107.666C253.262 108.159 254.009 108.746 254.68 109.415C255.354 110.065 255.976 110.767 256.539 111.516C257.11 112.272 257.602 113.084 258.007 113.94C258.48 114.802 258.671 115.791 258.555 116.767C258.159 115.952 257.666 115.187 257.087 114.49C256.543 113.774 255.974 113.07 255.439 112.338C254.895 111.611 254.365 110.867 253.859 110.098C253.332 109.323 252.862 108.51 252.454 107.666ZM292.02 92.0391C292.893 93.3903 293.689 94.7901 294.403 96.2318C294.764 96.9212 295.121 97.6017 295.523 98.2501C295.92 98.9329 296.405 99.5605 296.966 100.117C296.093 99.9954 295.29 99.5753 294.693 98.9283C294.082 98.3292 293.574 97.6342 293.188 96.8709C292.8 96.1296 292.501 95.3449 292.298 94.5333C292.076 93.7215 291.982 92.8799 292.02 92.0391Z" fill="black"/>
<path d="M312.136 88.5728C312.136 88.5728 296.236 89.7344 293.551 96.0814L294.034 96.9921L295.809 96.0814C304.34 91.8346 309.162 97.4753 303.234 98.4696C297.296 99.4546 261.937 115.652 261.937 115.652C246.604 119.992 237.617 143.307 237.617 143.307C240.089 142.248 242.608 141.3 245.107 140.287C247.672 139.46 250.218 138.568 252.811 137.834C258.017 136.364 263.326 135.286 268.692 134.609C274.069 133.917 279.499 133.749 284.908 134.107C286.256 134.256 287.603 134.34 288.951 134.535C290.28 134.767 291.627 134.925 292.947 135.241C295.601 135.763 298.186 136.589 300.65 137.704C298.087 136.937 295.458 136.412 292.798 136.133C291.478 135.929 290.14 135.864 288.821 135.743C287.492 135.659 286.163 135.613 284.834 135.548C279.513 135.467 274.193 135.768 268.915 136.449L264.957 136.96L261.017 137.657L259.047 137.983L257.095 138.41C255.785 138.698 254.484 138.977 253.174 139.246C250.572 139.85 247.988 140.538 245.377 141.161C242.793 141.867 240.229 142.647 237.617 143.307C197.398 149.905 158.155 174.633 155.525 173.973C152.886 173.314 150.572 152.544 150.572 147.201C150.572 141.867 149.587 131.766 141.67 131.766C133.761 131.766 134.746 138.689 134.746 138.689C149.587 142.648 115.297 145.621 105.075 146.931C94.8526 148.251 100.456 144.302 100.456 144.302C100.456 144.302 97.4917 141.133 94.3136 145.073C93.3218 146.344 92.6531 147.836 92.365 149.423C92.0769 151.009 92.1779 152.641 92.6595 154.18C93.6724 157.562 95.1685 162.692 96.1722 166.716C97.8262 173.314 103.755 220.79 105.734 225.409C107.714 230.018 148.593 242.22 235.638 235.956C242.691 234.85 249.717 233.68 256.742 232.509C263.758 231.31 270.774 230.083 277.734 228.661C281.219 227.964 284.704 227.24 288.152 226.413C291.618 225.623 295.056 224.746 298.467 223.783C301.879 222.824 305.241 221.695 308.54 220.4C311.881 219.198 314.992 217.435 317.74 215.187C316.529 216.512 315.14 217.663 313.614 218.607C312.104 219.582 310.533 220.46 308.912 221.236C305.657 222.752 302.311 224.065 298.894 225.167C292.072 227.335 285.131 229.11 278.106 230.483C271.09 231.877 264.04 233.029 256.956 233.94C249.875 234.878 242.766 235.566 235.638 235.956C235.638 235.956 232.469 255.22 230.815 272.551H354.799C354.669 255.629 354.641 233.206 355.162 213.04C356.147 174.141 355.162 155.834 355.162 155.834C353.379 155.637 351.618 155.276 349.902 154.756C348.183 154.264 346.501 153.678 344.819 153.074C341.464 151.866 338.193 150.454 334.941 149.004C331.707 147.526 328.51 145.984 325.36 144.32C322.21 142.675 319.096 140.938 316.086 139.023C319.44 140.25 322.721 141.616 325.982 143.019C329.244 144.404 332.469 145.872 335.712 147.313L345.367 151.736C348.61 153.167 351.779 154.71 355.162 155.834C355.162 155.834 371.48 163.259 372.967 144.46C374.444 125.67 356.639 85.1159 312.136 88.5728ZM318.985 149.626C320.625 151.175 322.056 152.93 323.241 154.849C323.826 155.806 324.328 156.819 324.858 157.823C325.313 158.854 325.685 159.913 326.112 160.964C326.314 161.49 326.476 162.03 326.596 162.58L327.023 164.216C327.311 165.303 327.523 166.408 327.655 167.524L327.878 169.197L327.99 170.033L328.027 170.87L328.138 174.224L328.166 175.061L328.11 175.897L327.99 177.57C327.915 178.685 327.841 179.791 327.72 180.897C327.348 183.09 326.995 185.283 326.521 187.448C325.917 189.585 325.332 191.713 324.663 193.813C324.932 191.611 325.276 189.446 325.62 187.281C325.88 185.106 326.029 182.922 326.28 180.757L326.363 177.495L326.41 175.869L326.438 175.061L326.382 174.252L326.215 171.009L326.177 170.201L326.057 169.401L325.815 167.803C325.27 163.531 323.977 159.388 321.996 155.564C320.97 153.669 319.742 151.89 318.334 150.258C316.93 148.588 315.286 147.135 313.456 145.946C315.508 146.825 317.382 148.072 318.985 149.626ZM342.412 111.991C341.747 113.39 340.608 114.51 339.197 115.15C338.498 115.469 337.766 115.706 337.013 115.856C336.261 115.963 335.504 116.028 334.745 116.052C333.993 116.014 333.231 116.014 332.487 115.921L330.276 115.559C329.541 115.41 328.835 115.197 328.11 115.011L326.019 114.444C324.656 114.088 323.268 113.84 321.866 113.7C319.026 113.436 316.167 113.426 313.326 113.673C307.583 114.191 301.892 115.179 296.311 116.628C293.504 117.334 290.698 118.096 287.919 118.923C285.122 119.713 282.371 120.624 279.602 121.544C284.867 119.007 290.327 116.897 295.929 115.234C301.545 113.501 307.325 112.358 313.177 111.823C316.139 111.588 319.116 111.632 322.07 111.953C323.557 112.145 325.027 112.452 326.466 112.873L330.601 114.147L332.673 114.593C333.37 114.713 334.067 114.741 334.764 114.834C335.461 114.881 336.158 114.825 336.846 114.806C337.527 114.715 338.197 114.55 338.844 114.314C340.158 113.862 341.269 112.956 341.975 111.758C342.34 111.15 342.616 110.493 342.793 109.807C343.002 109.113 343.115 108.394 343.128 107.669C343.289 109.148 343.042 110.643 342.412 111.991Z" fill="black"/>
<path d="M178.6 272.554C196.899 272.024 215.198 271.668 233.497 271.487C242.646 271.36 251.796 271.332 260.945 271.257L288.393 271.181L315.841 271.254C324.991 271.33 334.14 271.355 343.29 271.482C361.588 271.662 379.887 272.019 398.186 272.554C379.887 273.088 361.588 273.446 343.29 273.626C334.14 273.754 324.991 273.779 315.841 273.855L288.393 273.927L260.945 273.851C251.796 273.777 242.646 273.749 233.497 273.622C215.198 273.442 196.899 273.086 178.6 272.554ZM232.631 68.8061C236.219 68.8061 236.225 63.2305 232.631 63.2305C229.044 63.2305 229.038 68.8061 232.631 68.8061Z" fill="black"/>
</svg>
