<svg width="396" height="358" viewBox="0 0 396 358" fill="none" xmlns="http://www.w3.org/2000/svg">
<path d="M213.088 93.3747L202.213 99.6455L202.195 99.6174L200.382 96.4681C200.117 94.5037 199.686 92.5654 199.093 90.6739C199.962 86.6367 199.747 84.1508 199.354 82.7023C199.202 82.0905 198.872 81.5373 198.407 81.1118C197.942 80.6863 197.361 80.4073 196.739 80.3098C196.263 80.2503 195.781 80.3299 195.35 80.5389C194.919 80.7478 194.557 81.0773 194.309 81.4873C193.45 79.0295 194.72 75.7212 198.112 75.7212C201.98 75.7212 203.064 79.9827 201.419 82.4406C202.751 82.0843 204.162 82.1768 205.436 82.7038C206.709 83.2309 207.773 84.1632 208.464 85.3563L213.004 93.2252L213.088 93.3747ZM187.732 120.57C189.965 127.915 206.39 167.148 208.015 171.017L207.408 183.586C174.829 185.96 130.61 157.045 128.423 155.606C131.03 155.258 133.596 154.654 136.085 153.802C138.603 152.946 141.049 151.889 143.4 150.644C144.596 150.055 145.708 149.307 146.848 148.625C147.932 147.849 149.053 147.12 150.08 146.261C152.128 144.673 154.02 142.896 155.733 140.952C157.106 141.167 158.461 141.364 159.825 141.532L164.16 142.139C167.047 142.551 169.915 143.074 172.821 143.448C175.726 143.797 178.65 143.959 181.575 143.934C184.504 143.911 187.427 143.667 190.32 143.205C190.335 143.2 190.348 143.192 190.358 143.18C190.368 143.169 190.374 143.154 190.376 143.139C190.375 143.122 190.368 143.106 190.356 143.094C190.344 143.082 190.328 143.075 190.311 143.074C187.386 143.064 184.49 143.027 181.594 142.906L172.905 142.429C170.009 142.289 167.094 142.149 164.216 141.747C161.338 141.336 158.47 140.775 155.658 140.083C155.579 140.065 155.496 140.075 155.424 140.111C155.175 139.985 154.954 139.81 154.775 139.597C154.595 139.383 154.46 139.135 154.378 138.868C154.127 138.191 153.96 137.484 153.883 136.766C153.718 135.304 153.683 133.831 153.78 132.364C153.57 133.831 153.495 135.313 153.556 136.794C153.587 137.55 153.706 138.299 153.911 139.027C154.027 139.413 154.207 139.776 154.444 140.102C154.571 140.272 154.722 140.423 154.892 140.551C153.137 142.24 151.274 143.814 149.314 145.261C147.218 146.794 145.024 148.189 142.746 149.438C138.188 151.999 133.351 154.028 128.33 155.485C128.314 155.489 128.3 155.499 128.29 155.513C128.28 155.526 128.274 155.543 128.274 155.559C128.275 155.567 128.279 155.573 128.284 155.578C127.022 156.017 104.543 164.195 102.422 176.792C100.872 185.988 99.6382 196.754 100.059 204.408L99.9747 204.744C78.7477 183.642 79.9437 167.26 79.9437 167.26C79.9437 167.26 117.259 118.542 136.459 107.066C136.459 107.066 142.307 100.038 160.806 101.683C164.655 102.019 169.233 102.673 174.073 103.496C174.095 103.801 174.098 104.107 174.082 104.412C174.03 106.528 174.509 108.624 175.477 110.507C176.445 112.39 177.871 113.999 179.623 115.187C181.014 116.131 187.732 120.57 187.732 120.57ZM214.742 112.224C210.893 117.663 210.164 126.822 210.164 126.822L210.117 127.841C206.17 121.937 202.966 115.568 200.578 108.879C208.837 110.739 214.742 112.224 214.742 112.224Z" fill="black"/>
<path d="M202.195 99.6175L200.681 100.515C200.706 102.366 200.461 104.211 199.953 105.991L235.39 85.8704L218.993 50.5352L176.969 72.4037L175.913 74.74L184.668 90.7861C185.576 91.2286 186.552 91.516 187.555 91.6365C185.667 88.8795 184.014 85.9919 182.407 83.0761C180.747 80.0655 179.244 76.9712 177.903 73.8055C179.828 76.6535 181.605 79.598 183.229 82.6275C184.808 85.5713 186.331 88.5526 187.629 91.6459C188.54 91.7825 189.471 91.6115 190.273 91.1599L190.264 91.1506L182.706 74.74L217.358 55.6566L230.186 83.0574L213.005 93.2253L202.195 99.6175ZM24.9958 206.302C24.9958 206.302 26.5568 224.727 63.8665 198.494C63.8665 198.494 73.2329 192.56 80.8821 193.029C80.8821 193.029 83.8482 200.836 83.8482 207.395L69.018 212.589C69.018 212.589 70.5791 202.398 61.2126 207.239C61.2126 207.239 38.8893 230.817 10.0095 219.887C10.0095 219.887 2.36023 216.295 24.9958 206.302ZM24.9958 206.302C29.3811 203.082 33.8303 199.963 38.3433 196.944C42.8424 193.904 47.4002 190.955 51.9693 188.025C56.5573 185.124 61.1578 182.243 65.8166 179.453C70.4613 176.641 75.1709 173.932 79.9455 171.324C75.5613 174.545 71.1126 177.665 66.5995 180.684C62.1001 183.724 57.5423 186.672 52.9719 189.601C48.3828 192.5 43.7823 195.381 39.1231 198.17C34.478 200.981 29.7689 203.692 24.9958 206.302ZM80.8821 193.029C81.977 191.032 83.18 189.096 84.4855 187.23C85.7607 185.353 87.1222 183.544 88.5002 181.748C89.9055 179.973 91.3292 178.213 92.8371 176.522C94.3261 174.806 95.9089 173.173 97.5783 171.631C96.4829 173.631 95.2788 175.57 93.9714 177.439C92.6966 179.314 91.3376 181.12 89.9602 182.912C88.5555 184.682 87.1343 186.439 85.6269 188.129C84.1353 189.847 82.5514 191.483 80.8821 193.029ZM108.825 171.324C108.575 171.445 108.366 171.637 108.224 171.876C108.082 172.115 108.014 172.391 108.029 172.669C108.091 173.217 108.313 173.735 108.667 174.157C109.352 175.039 110.159 175.819 111.064 176.472C112.874 177.805 114.782 179.001 116.771 180.048C120.715 182.224 124.83 184.091 128.952 185.926C137.215 189.563 145.672 192.763 154.07 196.177L166.633 201.336C170.81 203.073 174.998 204.78 179.205 206.406C181.309 207.219 183.43 207.977 185.567 208.662C187.683 209.374 189.859 209.899 192.067 210.23C193.159 210.381 194.264 210.416 195.364 210.334C196.457 210.235 197.521 209.929 198.501 209.434C200.441 208.298 202.057 206.682 203.192 204.74C202.655 205.744 202.034 206.701 201.338 207.601C200.607 208.499 199.729 209.265 198.74 209.867C197.729 210.46 196.614 210.856 195.454 211.034C194.302 211.193 193.135 211.229 191.975 211.141C189.689 210.91 187.428 210.473 185.22 209.837C183.015 209.238 180.853 208.52 178.706 207.776C170.128 204.765 161.769 201.279 153.367 197.908L140.793 192.768C136.613 191.006 132.441 189.216 128.347 187.247C124.225 185.324 120.208 183.183 116.312 180.835C114.362 179.649 112.503 178.317 110.751 176.853C109.86 176.123 109.079 175.267 108.434 174.312C108.095 173.83 107.905 173.259 107.889 172.67C107.895 172.378 107.988 172.095 108.154 171.856C108.321 171.616 108.554 171.431 108.825 171.324ZM207.407 219.965C207.891 222.958 208.191 225.958 208.426 228.959C208.672 231.96 208.809 234.965 208.926 237.97C209.007 240.976 209.065 243.984 209.014 246.994C208.975 250.005 208.869 253.017 208.578 256.036C208.091 253.042 207.791 250.043 207.556 247.042C207.31 244.041 207.173 241.036 207.059 238.031C206.98 235.024 206.922 232.017 206.974 229.006C207.014 225.996 207.118 222.983 207.407 219.965ZM233.633 139.157C234.608 136.937 235.906 134.873 237.486 133.034C239.039 131.162 240.76 129.436 242.627 127.877C246.419 124.807 250.631 122.295 255.135 120.417C264.177 116.759 273.791 114.716 283.539 114.382C288.301 114.199 293.038 113.604 297.697 112.603C302.333 111.597 306.797 109.923 310.951 107.633C315.105 105.331 318.724 102.173 321.567 98.368C323 96.4615 324.194 94.3868 325.122 92.1902C326.08 89.9874 326.733 87.6642 327.063 85.2849C326.933 87.7083 326.434 90.0976 325.583 92.3704C324.765 94.6699 323.668 96.8607 322.317 98.8938C319.557 102.971 315.928 106.385 311.69 108.89C309.595 110.168 307.388 111.25 305.095 112.124C302.814 113.01 300.477 113.745 298.1 114.327C293.344 115.395 288.503 116.038 283.634 116.247C274.082 116.565 264.645 118.427 255.688 121.76C251.238 123.472 247.035 125.769 243.192 128.591C241.272 130.014 239.487 131.61 237.858 133.358C236.2 135.096 234.779 137.046 233.633 139.157Z" fill="black"/>
<path d="M220.823 104.39C221.258 102.362 221.981 100.407 222.971 98.5845C223.94 96.7471 225.073 95.0009 226.355 93.3671C228.948 90.1198 231.99 87.2594 235.391 84.8724C236.25 84.2941 237.098 83.7011 237.977 83.1595L240.686 81.6591L242.039 80.9151L243.439 80.2648C244.37 79.8272 245.309 79.4103 246.228 78.9563C248.106 78.1336 250.012 77.3827 251.88 76.5416C253.806 75.8458 255.72 75.1157 257.624 74.3511C257.678 74.3294 257.738 74.3231 257.795 74.3329L257.844 74.3413C260.532 74.7875 263.256 74.9837 265.981 74.9273C268.674 74.9246 271.357 74.6024 273.975 73.9677C276.523 73.3678 278.895 72.178 280.901 70.494C281.85 69.6438 282.669 68.6582 283.331 67.569C283.979 66.456 284.479 65.2626 284.816 64.0194L284.84 63.9383C284.894 63.7574 285.003 63.5983 285.153 63.4843C285.303 63.3702 285.486 63.3071 285.675 63.3042C287.56 63.3104 289.439 63.5288 291.276 63.9554C293.076 64.3622 294.843 64.9032 296.562 65.574C298.26 66.2617 299.914 67.0535 301.515 67.945C303.095 68.8499 304.617 69.8528 306.072 70.948C306.082 70.9554 306.09 70.9647 306.097 70.9752C306.103 70.9858 306.107 70.9975 306.109 71.0097C306.111 71.0219 306.11 71.0343 306.107 71.0462C306.104 71.0581 306.098 71.0693 306.091 71.0791C306.077 71.0968 306.057 71.109 306.035 71.1136C306.013 71.1182 305.99 71.115 305.97 71.1044L303.576 69.8431C302.757 69.4668 301.968 69.0386 301.132 68.7088C299.504 67.9761 297.832 67.3444 296.126 66.8173C294.431 66.3021 292.705 65.8936 290.959 65.5943C289.255 65.2865 287.524 65.1516 285.793 65.1918L286.651 64.4769C286.3 65.9095 285.76 67.2891 285.045 68.5792C284.284 69.8585 283.327 71.0106 282.209 71.9934C279.943 73.8448 277.26 75.1156 274.393 75.6959C271.623 76.2932 268.785 76.5144 265.956 76.3534C263.16 76.2023 260.383 75.7989 257.66 75.1482L257.879 75.1384C255.942 75.7533 254.014 76.4003 252.092 77.0794C251.154 77.4708 250.223 77.8827 249.294 78.2973C248.368 78.717 247.425 79.1032 246.534 79.5919C245.638 80.0736 244.763 80.5924 243.879 81.0905L242.558 81.8437L241.291 82.6849L238.765 84.3637L236.347 86.1802C233.11 88.564 230.127 91.275 227.446 94.2702C226.12 95.7816 224.902 97.3849 223.803 99.0682C222.67 100.744 221.731 102.543 221.005 104.431L221.002 104.439C220.994 104.461 220.978 104.479 220.957 104.49C220.936 104.501 220.912 104.503 220.89 104.497C220.867 104.491 220.848 104.476 220.835 104.456C220.823 104.436 220.819 104.412 220.823 104.39Z" fill="black"/>
<path d="M260.134 75.2415C258.988 74.2715 257.702 73.2165 256.271 73.6141C255.545 73.7869 254.834 74.0178 254.146 74.3045L251.984 75.0982C250.513 75.6636 248.982 76.0629 247.422 76.2888C246.611 76.3904 245.792 76.4023 244.978 76.3244C244.151 76.2206 243.342 76.003 242.575 75.6778C241.065 75.0106 239.727 74.008 238.662 72.7463C237.621 71.5411 236.717 70.2236 235.968 68.8183C235.212 67.4557 234.547 66.1163 233.769 64.8193C233.394 64.1688 233.009 63.5239 232.594 62.9278C232.4 62.6382 232.187 62.3618 231.956 62.1002C231.87 61.9966 231.774 61.9009 231.67 61.8142C231.626 61.7738 231.622 61.7851 231.68 61.7897C231.812 61.8092 231.946 61.7803 232.058 61.7084C232.17 61.6365 232.252 61.5264 232.289 61.3986L231.752 61.8798C230.872 62.0189 229.972 61.8206 229.232 61.3246C228.844 61.0722 228.528 60.7234 228.316 60.3122C228.099 59.8892 228.022 59.4086 228.093 58.9387C228.4 57.1514 229.874 56.2595 230.625 55.3177C231.464 54.2843 232.048 53.0674 232.329 51.7659C232.631 50.4473 232.695 49.0855 232.519 47.7444L232.625 47.9231C231.7 47.0908 231.009 46.0321 230.618 44.8512C230.221 43.7014 229.998 42.4986 229.958 41.283C229.897 40.0804 229.933 38.8748 230.066 37.6781C230.175 36.4765 230.363 35.2833 230.629 34.1065C230.645 34.0352 230.68 33.9692 230.728 33.9148C230.777 33.8603 230.839 33.8191 230.908 33.7951C230.977 33.771 231.052 33.7649 231.124 33.7772C231.196 33.7895 231.264 33.8199 231.321 33.8656L231.346 33.8856C234.151 36.1496 237.066 38.2957 239.999 40.3744C241.468 41.4099 242.958 42.4144 244.482 43.328C245.243 43.784 246.01 44.2234 246.785 44.596C247.442 44.9613 248.165 45.1927 248.913 45.2768L248.077 46.1361C248.122 45.218 248.28 44.3091 248.55 43.4304C248.823 42.459 249.356 41.5805 250.091 40.8895C250.297 40.6977 250.531 40.5376 250.784 40.4142L251.17 40.223L251.584 40.1132C251.722 40.0805 251.863 40.0442 252.001 40.0209L252.411 40.0104C252.677 39.9925 252.944 40.013 253.204 40.0711C254.224 40.2306 255.169 40.7012 255.91 41.4187C256.607 42.0791 257.168 42.8691 257.563 43.7443C257.951 44.5656 258.246 45.4276 258.444 46.3142C258.639 47.1891 258.75 48.0805 258.778 48.9765C258.79 49.4384 258.774 49.9007 258.73 50.3607C258.697 50.6163 258.65 50.8699 258.589 51.1202L258.453 51.5445C258.352 51.7501 258.227 51.9433 258.081 52.1202L257.856 50.5909C259.797 51.6336 261.774 52.6583 263.757 53.6249C264.752 54.0983 265.753 54.5662 266.762 54.9739C267.698 55.3917 268.683 55.6876 269.694 55.8544L269.782 55.8626C269.892 55.8733 269.999 55.9105 270.092 55.9712C272.577 57.5992 275.08 59.2426 277.656 60.7388C278.947 61.4811 280.24 62.2228 281.569 62.8868C282.23 63.2198 282.908 63.5189 283.6 63.7831C284.255 64.0903 284.979 64.2206 285.701 64.1608L285.719 64.1568C285.743 64.1517 285.767 64.1558 285.787 64.1683C285.808 64.1807 285.822 64.2004 285.829 64.2234C285.835 64.2465 285.832 64.271 285.82 64.2918C285.809 64.3127 285.79 64.3284 285.767 64.3355C285.003 64.4987 284.208 64.4452 283.473 64.181C282.744 63.9726 282.026 63.7272 281.322 63.4457C279.915 62.8905 278.544 62.2601 277.2 61.5807C274.515 60.215 271.872 58.7881 269.296 57.2137L269.694 57.3304C268.49 57.2156 267.309 56.9268 266.188 56.473C265.113 56.086 264.073 55.6474 263.036 55.2023C260.964 54.304 258.946 53.3359 256.945 52.288L256.72 50.7585C256.685 50.7531 256.662 50.7925 256.671 50.8005C256.683 50.7418 256.699 50.6838 256.717 50.6267C256.753 50.5093 256.764 50.3102 256.793 50.157C256.821 49.7865 256.826 49.4148 256.809 49.0437C256.766 48.2739 256.66 47.5088 256.492 46.7563C256.232 45.3031 255.56 43.9554 254.555 42.8738C254.098 42.4177 253.514 42.1111 252.879 41.9944C252.612 41.925 252.332 41.9191 252.062 41.9774C251.792 42.0356 251.539 42.1564 251.324 42.3299C250.43 43.0626 249.979 44.7672 249.864 46.2024L249.858 46.2751C249.841 46.4853 249.746 46.6817 249.593 46.8267C249.44 46.9718 249.239 47.0555 249.028 47.0619C248.455 47.0604 247.887 46.9516 247.353 46.7411C246.898 46.5683 246.453 46.3702 246.019 46.1477C245.189 45.7211 244.382 45.2512 243.602 44.74C242.058 43.7327 240.584 42.6552 239.136 41.5503C236.243 39.3342 233.499 36.961 230.769 34.5621L231.486 34.3414C230.835 36.5859 230.535 38.9174 230.596 41.2536C230.612 42.4118 230.802 43.561 231.159 44.6628C231.507 45.7461 232.144 46.7135 233.002 47.4604L233.014 47.4707C233.065 47.5135 233.098 47.5737 233.107 47.6395C233.319 49.0578 233.297 50.5013 233.04 51.9122C232.802 53.3536 232.238 54.7216 231.392 55.9122C231.175 56.2111 230.939 56.4962 230.686 56.7656C230.456 57.0335 230.239 57.2569 230.037 57.5123C229.658 57.9549 229.407 58.4931 229.312 59.0683C229.294 59.2979 229.347 59.5275 229.462 59.7269C229.577 59.9263 229.75 60.0861 229.957 60.1854C230.403 60.4414 230.925 60.5315 231.431 60.4399L230.894 60.9209C230.974 60.7067 231.129 60.5289 231.331 60.4203C231.532 60.3116 231.766 60.2795 231.989 60.3297C232.175 60.373 232.352 60.4509 232.509 60.5593C232.716 60.6971 232.906 60.8583 233.075 61.0399C233.362 61.3428 233.629 61.6647 233.873 62.0035C234.355 62.6502 234.777 63.3089 235.189 63.9729C235.995 65.3002 236.718 66.6948 237.437 68.0181C238.83 70.6175 240.622 73.1285 243.167 74.3276C244.465 74.9097 245.89 75.1502 247.306 75.0262C248.791 74.8951 250.256 74.5993 251.676 74.1441C253.147 73.6477 254.651 73.2547 256.176 72.968C257.007 72.8551 257.849 73.0552 258.54 73.5292C259.173 73.9879 259.751 74.5175 260.264 75.1075C260.281 75.1256 260.29 75.1497 260.289 75.1745C260.289 75.1993 260.278 75.2227 260.26 75.2398C260.243 75.2553 260.221 75.2641 260.197 75.2644C260.174 75.2648 260.152 75.2566 260.134 75.2415Z" fill="black"/>
<path d="M254.473 54.0157C254.918 53.5377 255.39 53.0863 255.887 52.6639L256.588 52.0684C256.847 51.8438 257.118 51.6337 257.4 51.4391C257.406 51.8083 257.328 52.174 257.172 52.5085C257.016 52.843 256.786 53.1375 256.499 53.3697C256.224 53.6074 255.906 53.7916 255.564 53.9126C255.216 54.0459 254.839 54.0815 254.473 54.0157ZM275.494 60.0838C275.494 60.0838 280.933 63.736 286.319 54.0156C291.705 44.2953 278.592 43.7097 278.592 43.7097C278.592 43.7097 283.977 17.8277 263.468 14.6657C242.958 11.5036 231.057 34.2235 231.057 34.2235C231.057 34.2235 245.103 46.2484 248.97 46.169C248.97 46.169 249.195 38.646 254.724 41.7139C254.724 41.7139 258.587 44.1014 257.4 51.4391C257.4 51.4391 268.656 56.8081 269.694 56.5921C270.731 56.3761 275.494 60.0838 275.494 60.0838ZM235.386 65.9802C236.202 65.8443 237.008 65.6608 237.801 65.4304C238.163 65.3155 238.51 65.1603 238.837 64.9677C239.198 64.7455 239.546 64.5017 239.877 64.2376C239.834 64.7169 239.635 65.1687 239.31 65.5234C238.983 65.8905 238.564 66.1642 238.097 66.3165C237.642 66.4617 237.161 66.5087 236.687 66.4545C236.22 66.4117 235.772 66.2483 235.386 65.9802ZM232.813 47.6915C233.178 47.1408 233.657 46.6745 234.217 46.3238C234.775 45.961 235.39 45.6939 236.037 45.5337C236.688 45.3682 237.364 45.3298 238.029 45.4207C238.689 45.4984 239.321 45.7278 239.877 46.091C239.213 46.1138 238.61 46.0804 238.009 46.1497C237.418 46.1948 236.833 46.2922 236.259 46.4408C235.074 46.7511 233.921 47.1698 232.813 47.6915ZM235.896 57.7242C236.198 57.8331 236.449 58.048 236.604 58.3288C236.775 58.6215 236.845 58.9629 236.801 59.2993C236.754 59.6515 236.571 59.971 236.29 60.1886C236.165 60.2906 236.02 60.3669 235.865 60.4129C235.71 60.459 235.547 60.4739 235.387 60.4569C235.52 60.1475 235.653 59.9317 235.73 59.7216C235.807 59.5455 235.856 59.3588 235.877 59.1678C235.918 58.6877 235.924 58.2052 235.896 57.7242ZM255.937 70.997C257.037 69.1511 257.997 67.225 258.807 65.2348C259.212 64.2501 259.568 63.2456 259.871 62.225C260.199 61.2042 260.425 60.1582 260.718 59.0905C260.822 60.1919 260.776 61.3025 260.581 62.3916C260.398 63.4866 260.093 64.5578 259.673 65.5853C259.259 66.6145 258.738 67.5968 258.117 68.5157C257.514 69.4439 256.78 70.2796 255.937 70.997ZM236.755 52.7859C237.134 52.7728 237.494 52.6128 237.758 52.3397C238.021 52.0666 238.169 51.7017 238.169 51.322C238.169 50.9423 238.021 50.5774 237.758 50.3043C237.494 50.0312 237.134 49.8712 236.755 49.8581C236.376 49.8712 236.016 50.0312 235.752 50.3043C235.489 50.5774 235.341 50.9423 235.341 51.322C235.341 51.7017 235.489 52.0666 235.752 52.3397C236.016 52.6128 236.376 52.7728 236.755 52.7859Z" fill="black"/>
<path d="M254.473 51.5115C254.726 51.5027 254.966 51.396 255.142 51.214C255.317 51.0319 255.416 50.7887 255.416 50.5355C255.416 50.2824 255.317 50.0391 255.142 49.857C254.966 49.675 254.726 49.5683 254.473 49.5596C254.22 49.5683 253.981 49.675 253.805 49.857C253.629 50.0391 253.531 50.2824 253.531 50.5355C253.531 50.7887 253.629 51.0319 253.805 51.214C253.981 51.396 254.22 51.5027 254.473 51.5115Z" fill="black"/>
<path d="M128.423 155.606C128.395 155.606 128.377 155.615 128.349 155.615C128.342 155.617 128.335 155.617 128.328 155.617C128.321 155.616 128.314 155.614 128.308 155.61C128.302 155.607 128.297 155.602 128.293 155.596C128.288 155.591 128.285 155.585 128.283 155.578L128.34 155.55L128.423 155.606Z" fill="white"/>
<path d="M210.096 127.977C208.914 126.37 207.802 124.711 206.76 123.001C205.719 121.295 204.712 119.562 203.808 117.775C202.9 115.991 202.05 114.176 201.26 112.331C200.461 110.492 199.772 108.603 199.121 106.68C199.079 106.557 199.078 106.423 199.119 106.299L199.133 106.253C199.865 103.774 200.098 101.175 199.82 98.605C199.71 97.3014 199.527 96.0049 199.271 94.7217C199.023 93.4434 198.7 92.1807 198.305 90.9401C198.259 90.7976 198.25 90.6457 198.28 90.499C198.615 88.9689 198.809 87.4114 198.86 85.8459C198.879 85.0877 198.826 84.3295 198.701 83.5815C198.649 83.2419 198.565 82.9082 198.448 82.5851C198.329 82.2972 198.162 82.0314 197.954 81.799C197.758 81.575 197.518 81.3943 197.249 81.2683C196.979 81.1423 196.686 81.0738 196.389 81.0672C196.099 81.0731 195.815 81.1501 195.562 81.2913C195.309 81.4325 195.094 81.6337 194.937 81.8771C194.117 83.173 193.525 84.6 193.187 86.0962L192.529 88.4396C192.407 88.8433 192.316 89.2014 192.15 89.6492C191.983 90.087 191.744 90.4936 191.443 90.8518C190.815 91.5592 189.947 92.0085 189.007 92.1125C188.138 92.2067 187.258 92.1281 186.419 91.8813C184.809 91.4038 183.306 90.6212 181.991 89.5762C181.331 89.0603 180.738 88.4645 180.226 87.8025C179.729 87.1685 179.208 86.5512 178.681 85.9396C176.574 83.4882 174.333 81.1476 172.048 78.8543L170.332 77.1485C169.766 76.6134 169.124 76.1652 168.427 75.8184C167.736 75.472 166.989 75.2503 166.221 75.1633C165.527 75.0143 164.803 75.1387 164.198 75.5105C163.98 75.7619 163.829 76.0645 163.76 76.3899C163.69 76.7154 163.704 77.0531 163.8 77.3718C163.875 77.7419 163.969 78.1077 164.082 78.4678C164.218 78.8274 164.377 79.1836 164.525 79.5403C165.244 80.9542 166.104 82.2912 167.094 83.5305C169.082 86.0434 171.25 88.4091 173.579 90.6088C173.694 90.7188 173.771 90.8622 173.799 91.0185C173.827 91.1748 173.805 91.336 173.736 91.479L173.73 91.4914C173.2 92.7528 172.999 94.1282 173.145 95.4886C173.198 96.1841 173.318 96.8729 173.502 97.5455C173.675 98.2225 173.946 98.8595 174.198 99.6362C174.712 101.155 174.972 102.748 174.966 104.351C174.922 105.741 175.138 107.127 175.604 108.438C176.058 109.754 176.738 110.98 177.614 112.062C178.055 112.594 178.542 113.087 179.07 113.535C179.613 113.993 180.19 114.41 180.795 114.784L188.283 119.736C188.47 119.859 188.61 120.042 188.68 120.255L188.688 120.279C190.088 124.512 191.779 128.79 193.412 133.027L198.367 145.769L203.332 158.514C204.991 162.76 206.614 167.027 208.231 171.287L208.233 171.292C208.242 171.314 208.241 171.339 208.232 171.362C208.222 171.384 208.204 171.402 208.182 171.411C208.16 171.42 208.135 171.421 208.112 171.412C208.09 171.403 208.071 171.386 208.061 171.364C206.145 167.217 204.269 163.058 202.433 158.887C200.608 154.707 198.747 150.541 196.983 146.335L191.692 133.711C189.99 129.463 188.248 125.285 186.776 120.861L187.181 121.404L179.692 116.415C179.029 115.989 178.398 115.516 177.803 114.999C175.97 113.405 174.608 111.339 173.863 109.026C173.347 107.496 173.121 105.884 173.196 104.271C173.213 102.871 173.001 101.478 172.569 100.146C172.374 99.493 172.063 98.7429 171.887 97.9598C171.695 97.1811 171.578 96.3857 171.538 95.5846C171.409 93.9456 171.705 92.3012 172.398 90.8103L172.548 91.6926C170.214 89.3839 168.075 86.8867 166.152 84.2262C165.17 82.8888 164.324 81.4567 163.626 79.9513C163.476 79.5553 163.317 79.1638 163.181 78.7616C163.064 78.345 162.971 77.922 162.902 77.4946C162.836 77.0447 162.845 76.5867 162.93 76.14C163.02 75.6405 163.285 75.1898 163.679 74.8697C164.068 74.6243 164.501 74.4588 164.955 74.3827C165.408 74.3066 165.872 74.3216 166.319 74.4266C167.16 74.5566 167.976 74.8196 168.734 75.2058C169.486 75.5912 170.177 76.086 170.783 76.674L172.495 78.4163C174.745 80.7553 176.974 83.1143 179.133 85.5456L180.722 87.4008C181.218 88.0099 181.788 88.5546 182.419 89.0223C183.673 89.9712 185.106 90.6557 186.633 91.0346C188.109 91.3981 189.778 91.255 190.614 90.1655C191.019 89.5541 191.285 88.8607 191.392 88.1347L191.955 85.771C192.268 84.0848 192.879 82.468 193.759 80.9963C194.046 80.5815 194.412 80.2279 194.837 79.9558C195.301 79.6697 195.834 79.5161 196.379 79.5117C196.895 79.5091 197.405 79.6133 197.878 79.8178C198.352 80.0223 198.778 80.3226 199.129 80.6998C199.472 81.0642 199.751 81.4847 199.952 81.943C200.129 82.3758 200.256 82.8273 200.332 83.2888C200.479 84.14 200.544 85.0032 200.528 85.8668C200.491 87.5444 200.282 89.2138 199.906 90.8491L199.881 90.4083C200.288 91.7235 200.616 93.0616 200.865 94.4155C201.119 95.7622 201.296 97.1224 201.394 98.4893C201.63 101.268 201.31 104.066 200.454 106.72L200.467 106.293C201.027 108.165 201.626 110.047 202.346 111.893C203.049 113.741 203.818 115.566 204.652 117.365C205.488 119.161 206.342 120.953 207.283 122.701C208.22 124.451 209.216 126.172 210.251 127.873C210.264 127.894 210.268 127.919 210.263 127.942C210.258 127.966 210.244 127.986 210.224 128C210.204 128.013 210.179 128.018 210.155 128.014C210.131 128.01 210.11 127.997 210.096 127.977Z" fill="black"/>
<path d="M187.732 91.8978C187.676 91.8139 187.611 91.7203 187.554 91.6362C187.578 91.6479 187.604 91.6513 187.629 91.6456C187.657 91.7297 187.694 91.8139 187.732 91.8978Z" fill="white"/>
<path d="M126.736 228.855C127.343 229.974 127.728 231.2 127.869 232.465C128.052 233.77 127.956 235.099 127.589 236.365C127.397 237.059 127.058 237.703 126.595 238.254C126.132 238.805 125.556 239.251 124.906 239.56C124.281 239.813 123.61 239.931 122.937 239.904C122.264 239.877 121.604 239.707 121.002 239.405C122.14 239.278 123.234 238.893 124.202 238.282C124.985 237.645 125.547 236.776 125.808 235.801C126.116 234.719 126.32 233.609 126.417 232.488L126.736 228.855ZM145.588 238C145.925 238.857 146.176 239.746 146.336 240.653C146.499 241.528 146.61 242.397 146.69 243.26C146.772 244.123 146.816 244.98 146.865 245.829C146.891 246.253 146.903 246.678 146.96 247.091C146.973 247.523 147.103 247.943 147.337 248.306C147.085 248.255 146.846 248.152 146.635 248.004C146.425 247.857 146.247 247.667 146.114 247.446C145.834 247.045 145.605 246.61 145.431 246.152C145.108 245.277 144.906 244.361 144.83 243.431C144.748 242.52 144.762 241.604 144.872 240.697C144.974 239.767 145.216 238.858 145.588 238ZM107.091 236.211L101.64 252.49C90.4135 248.358 88.0654 237.063 88.0654 237.063C88.0654 237.063 90.4916 231.709 107.091 236.211Z" fill="black"/>
<path d="M148.479 269.075L137.708 272.666L128.185 269.075L131.619 263.765C131.619 263.765 127.561 257.448 115.69 254.878L119.788 243.726C122.741 245.776 132.862 252.679 135.522 252.679C135.522 252.679 141.766 245.027 148.479 249.087C148.479 249.087 152.226 263.765 148.479 269.075Z" fill="black"/>
<path d="M125.499 228.196C124.276 232.263 122.992 236.308 121.677 240.341C120.368 244.376 119.029 248.401 117.66 252.415C116.284 256.425 114.926 260.443 113.502 264.436C112.097 268.436 110.689 272.435 109.231 276.416C109.135 276.677 108.962 276.902 108.735 277.062C108.508 277.222 108.237 277.309 107.96 277.311L107.949 277.31L101.022 277.341C100.829 277.341 100.638 277.301 100.461 277.223C100.284 277.146 100.125 277.032 99.9945 276.89L94.704 271.097L94.6993 271.091C94.5347 270.911 94.4214 270.689 94.3711 270.45C94.3208 270.211 94.3354 269.963 94.4134 269.731C95.8063 265.607 97.2256 261.491 98.6712 257.384C100.097 253.271 101.567 249.173 103.048 245.077C104.52 240.98 106.028 236.894 107.572 232.82C109.113 228.745 110.676 224.678 112.314 220.635C111.184 224.848 109.979 229.035 108.752 233.215C107.516 237.393 106.273 241.567 104.98 245.725C103.696 249.886 102.402 254.044 101.059 258.185C99.7445 262.336 98.3966 266.475 97.0157 270.604L96.725 269.239L102.05 275.001L101.022 274.549L107.949 274.58L106.668 275.474C108.134 271.496 109.65 267.537 111.169 263.579C112.67 259.613 114.235 255.672 115.783 251.724C117.345 247.782 118.931 243.848 120.541 239.923C122.153 235.999 123.794 232.086 125.499 228.196Z" fill="black"/>
<path d="M119.944 225.133C118.73 229.502 117.342 233.807 115.894 238.089C114.457 242.376 112.917 246.624 111.357 250.865C109.765 255.093 108.151 259.314 106.434 263.496C104.729 267.683 102.962 271.846 101.02 275.945C102.233 271.575 103.619 267.269 105.068 262.987C106.506 258.701 108.046 254.453 109.607 250.213C111.202 245.985 112.816 241.764 114.533 237.582C116.239 233.396 118.005 229.232 119.944 225.133ZM213.968 267.712C214.548 273.478 214.993 279.252 215.495 285.022C215.99 290.792 216.408 296.567 216.833 302.341C217.233 308.117 217.659 313.891 218.011 319.67C218.38 325.447 218.756 331.224 219.071 337.004L218.562 336.013L226.778 342.545L225.434 342.321L234.573 339.062L233.664 340.414C233.424 334.36 233.191 328.306 233.011 322.249C232.801 316.193 232.627 310.136 232.487 304.078C232.326 298.02 232.206 291.961 232.127 285.9C232.075 279.837 231.955 273.778 231.984 267.712C232.521 273.754 232.91 279.802 233.368 285.847C233.791 291.894 234.18 297.942 234.535 303.991C234.897 310.041 235.231 316.091 235.538 322.142C235.867 328.193 236.143 334.246 236.412 340.299C236.424 340.591 236.344 340.879 236.182 341.121C236.02 341.364 235.784 341.549 235.51 341.649L235.502 341.651L226.378 344.951C226.153 345.032 225.912 345.054 225.676 345.014C225.441 344.975 225.219 344.876 225.033 344.727L216.859 338.142L216.855 338.139C216.706 338.019 216.585 337.869 216.497 337.698C216.41 337.528 216.36 337.342 216.349 337.151C216.041 331.37 215.793 325.586 215.539 319.803C215.266 314.02 215.069 308.234 214.845 302.449C214.647 296.662 214.441 290.876 214.312 285.085C214.191 279.295 214.012 273.507 213.968 267.712Z" fill="black"/>
<path d="M224.503 268.279C224.981 274.552 225.34 280.827 225.58 287.105C225.846 293.382 226.002 299.661 226.138 305.94C226.238 312.22 226.316 318.501 226.284 324.783C226.279 331.065 226.153 337.35 225.906 343.636C225.426 337.363 225.066 331.088 224.826 324.81C224.561 318.533 224.404 312.254 224.271 305.975C224.172 299.695 224.095 293.414 224.128 287.132C224.134 280.85 224.259 274.566 224.503 268.279ZM307.872 223.25C310.101 227.977 312.224 232.748 314.347 237.519C316.445 242.299 318.537 247.083 320.572 251.888C322.639 256.682 324.628 261.507 326.642 266.321L332.572 280.81C332.703 281.135 332.707 281.498 332.582 281.826C332.458 282.154 332.215 282.423 331.902 282.58L324.399 286.308L324.391 286.312C324.228 286.393 324.051 286.44 323.87 286.451C323.689 286.463 323.507 286.438 323.335 286.378L317.256 284.245L317.24 284.239C317.071 284.18 316.916 284.086 316.784 283.965C316.652 283.844 316.546 283.697 316.473 283.534C313.024 275.853 309.63 268.147 306.292 260.416C304.651 256.537 302.98 252.673 301.376 248.777C299.749 244.892 298.164 240.987 296.622 237.063C298.588 240.793 300.516 244.54 302.405 248.304C304.314 252.06 306.155 255.846 308.027 259.619C311.717 267.189 315.348 274.786 318.921 282.409L318.137 281.699L324.234 283.781L323.171 283.851L330.654 280.084L329.984 281.854L324.211 267.302C322.324 262.436 320.412 257.58 318.577 252.693C316.712 247.818 314.903 242.921 313.1 238.022C311.322 233.112 309.543 228.202 307.872 223.25Z" fill="black"/>
<path d="M300.994 233.039C303.248 237.22 305.332 241.476 307.357 245.757C309.393 250.034 311.329 254.355 313.245 258.684C315.129 263.028 316.992 267.38 318.755 271.777C320.529 276.168 322.242 280.587 323.785 285.08C321.529 280.899 319.444 276.644 317.419 272.362C315.384 268.085 313.448 263.764 311.534 259.434C309.652 255.09 307.789 250.737 306.027 246.34C304.253 241.948 302.539 237.531 300.994 233.039ZM342.018 164.212C342.325 167.276 342.602 170.33 342.847 173.373C343.095 176.421 343.366 179.461 343.539 182.512C343.684 185.564 343.771 188.636 344.147 191.675C344.532 194.713 345.133 197.719 345.944 200.672C346.766 203.619 347.607 206.549 348.539 209.44C349.488 212.326 350.559 215.157 351.751 217.932C354.158 223.442 357.082 228.799 361.618 232.963C361.636 232.979 361.646 233.001 361.649 233.024C361.651 233.047 361.645 233.07 361.631 233.089C361.617 233.108 361.597 233.121 361.574 233.125C361.551 233.13 361.527 233.126 361.507 233.114C358.859 231.448 356.545 229.305 354.682 226.792C352.805 224.29 351.211 221.588 349.927 218.736C348.692 215.885 347.665 212.947 346.856 209.947C346.021 206.971 345.382 203.943 344.943 200.883C344.455 197.838 344.064 194.791 343.547 191.762C343.288 190.248 343.015 188.733 342.727 187.22C342.466 185.702 342.204 184.182 341.99 182.656C341.619 179.598 341.422 176.521 341.401 173.441C341.343 170.358 341.487 167.274 341.831 164.209C341.832 164.197 341.836 164.185 341.842 164.174C341.848 164.163 341.856 164.154 341.866 164.146C341.876 164.138 341.887 164.133 341.899 164.129C341.911 164.126 341.923 164.125 341.935 164.127C341.957 164.13 341.976 164.14 341.991 164.155C342.006 164.171 342.016 164.191 342.018 164.212ZM329.127 164.206C329.546 167.178 329.763 170.175 329.776 173.176C329.826 176.173 329.699 179.17 329.395 182.152C329.043 185.131 328.491 188.083 328.04 191.038C327.586 193.992 327.254 196.962 326.839 199.934C326.084 205.925 324.539 211.789 322.243 217.374C321.037 220.167 319.525 222.818 317.734 225.278C315.961 227.746 313.775 229.89 311.273 231.615C311.262 231.622 311.251 231.626 311.239 231.629C311.227 231.631 311.214 231.631 311.202 231.629C311.19 231.626 311.179 231.621 311.168 231.614C311.158 231.607 311.149 231.599 311.143 231.588C311.131 231.57 311.126 231.549 311.128 231.527C311.13 231.505 311.14 231.485 311.155 231.47C315.358 227.207 318.16 222.001 320.408 216.595C321.517 213.879 322.544 211.119 323.43 208.3C324.275 205.47 325.077 202.617 325.835 199.739C326.578 196.855 327.114 193.922 327.438 190.962C327.752 187.999 327.761 185.01 327.843 182.039C327.95 179.07 328.151 176.109 328.328 173.14C328.502 170.172 328.706 167.197 328.94 164.215C328.941 164.19 328.953 164.166 328.971 164.15C328.99 164.133 329.014 164.125 329.039 164.126C329.061 164.128 329.081 164.137 329.097 164.151C329.113 164.166 329.123 164.185 329.127 164.206ZM364.702 232.947C366.099 233.026 367.442 233.507 368.573 234.33C369.208 234.808 369.653 235.498 369.825 236.275C369.971 237.061 369.87 237.873 369.537 238.6C368.926 239.892 368.054 241.043 366.976 241.98C365.977 242.907 364.892 243.736 363.734 244.454C361.335 245.685 358.821 246.679 356.229 247.422C355.608 247.659 354.958 247.807 354.331 248.027C353.702 248.241 353.068 248.436 352.428 248.616C351.79 248.798 351.153 248.99 350.519 249.197C349.878 249.378 349.23 249.532 348.584 249.701C345.997 250.401 343.347 250.845 340.673 251.028C339.337 251.17 337.994 251.122 336.651 251.178C335.979 251.205 335.307 251.186 334.638 251.119L332.629 250.973C327.3 250.41 322.102 248.961 317.249 246.686C317.227 246.675 317.21 246.656 317.201 246.633C317.193 246.609 317.194 246.583 317.204 246.561C317.214 246.541 317.23 246.526 317.249 246.517C317.269 246.507 317.291 246.505 317.312 246.509C322.412 247.698 327.589 248.526 332.805 248.987C335.392 249.215 337.989 249.31 340.586 249.272C343.182 249.167 345.79 249.039 348.389 248.696C351 248.392 353.564 247.772 356.026 246.851C356.634 246.603 357.24 246.351 357.839 246.085L359.588 245.189C360.722 244.584 361.817 243.908 362.865 243.164C363.889 242.39 364.905 241.588 365.858 240.759C366.332 240.353 366.776 239.912 367.185 239.441C367.592 239.008 367.94 238.523 368.219 237.999C368.481 237.537 368.608 237.011 368.587 236.481C368.521 235.945 368.28 235.446 367.9 235.062C366.976 234.19 365.873 233.53 364.667 233.13L364.661 233.128C364.64 233.12 364.622 233.104 364.611 233.084C364.601 233.064 364.598 233.041 364.603 233.019C364.608 232.997 364.621 232.978 364.639 232.964C364.657 232.951 364.68 232.945 364.702 232.947Z" fill="black"/>
<path d="M128.371 155.645C125.582 156.708 122.859 157.936 120.216 159.323C117.567 160.689 115.023 162.247 112.604 163.987C110.18 165.693 107.999 167.72 106.12 170.012C104.235 172.267 103.05 175.023 102.71 177.942C101.753 183.829 101.094 189.761 100.733 195.715C100.552 198.676 100.543 201.645 100.708 204.608C100.792 206.07 100.976 207.525 101.26 208.962C101.408 209.659 101.609 210.343 101.861 211.01C102.071 211.646 102.415 212.231 102.868 212.724C103.86 213.78 104.952 214.737 106.128 215.583C107.298 216.475 108.531 217.301 109.761 218.129C112.239 219.762 114.793 221.297 117.374 222.787C122.538 225.764 127.807 228.575 133.118 231.303C143.741 236.763 154.541 241.885 165.365 246.952C176.19 252.025 187.083 256.929 198.015 261.799C208.521 267.571 220.805 268.535 232.552 267.071C244.36 265.602 255.769 261.58 266.423 256.26C277.055 250.808 287.108 244.294 296.428 236.818L296.454 236.8C298.241 235.462 299.864 233.915 301.286 232.194C302.047 231.369 302.691 230.442 303.396 229.57C304.051 228.658 304.687 227.73 305.322 226.803C307.754 223.012 309.819 218.998 311.491 214.816C313.173 210.636 314.579 206.349 315.699 201.985C316.233 199.796 316.707 197.592 317.204 195.395L318.365 188.735L318.366 188.729C318.371 188.703 318.377 188.677 318.385 188.652C322.002 177.422 325.429 166.129 328.667 154.774C331.904 143.427 334.97 132.028 337.613 120.541C338.236 117.662 338.951 114.801 339.51 111.911L340.394 107.585C340.684 106.142 340.91 104.69 341.172 103.244C341.727 100.353 342.076 97.4426 342.475 94.5376C343.054 90.2771 342.66 85.9405 341.32 81.8548C339.981 77.7691 337.731 74.0409 334.742 70.9513C333.742 69.9517 332.657 69.0413 331.499 68.2303C330.34 67.4517 329.098 66.8023 327.797 66.2935C326.495 65.8157 325.139 65.4992 323.759 65.3512C322.371 65.2334 320.974 65.2805 319.597 65.4915C316.8 65.944 314.106 66.8922 311.642 68.2915C310.4 68.9893 309.211 69.7793 308.087 70.6549C306.976 71.514 305.875 72.5303 304.709 73.4711C300.1 77.2457 295.214 80.668 290.091 83.709C284.975 86.7658 279.626 89.4147 274.094 91.6311C268.539 93.8255 262.783 95.4688 256.907 96.5375C255.43 96.7571 253.967 97.0774 252.479 97.211L248.014 97.615C246.524 97.7194 245.025 97.675 243.532 97.7114L241.3 97.7316C240.583 97.715 239.867 97.7277 239.15 97.7567C233.382 97.9732 227.826 99.9869 223.258 103.516C218.696 107.088 215.229 111.869 213.251 117.315C212.261 120.041 211.556 122.862 211.146 125.733C210.759 128.624 210.59 131.539 210.64 134.454L210.64 134.481L210.639 134.501C210.058 145.788 209.424 157.07 208.738 168.348C208.373 173.986 207.98 179.623 207.559 185.258C207.342 188.076 207.113 190.892 206.852 193.706C206.723 195.113 206.579 196.519 206.419 197.924C206.298 199.343 206.058 200.749 205.7 202.127C205.693 202.152 205.676 202.172 205.653 202.185C205.631 202.197 205.605 202.199 205.58 202.192C205.556 202.185 205.535 202.168 205.523 202.146C205.511 202.123 205.508 202.097 205.515 202.072L205.524 202.044C205.842 200.68 206.05 199.292 206.144 197.895C206.277 196.49 206.393 195.084 206.494 193.676C206.7 190.861 206.875 188.042 207.036 185.223C207.357 179.585 207.64 173.944 207.887 168.301C208.419 157.018 208.899 145.732 209.326 134.444L209.326 134.49C209.234 131.501 209.368 128.508 209.727 125.539C210.114 122.556 210.819 119.623 211.828 116.79C213.864 111.05 217.469 105.998 222.234 102.207C227.054 98.4211 232.935 96.2342 239.057 95.9512C239.815 95.9141 240.574 95.8947 241.333 95.9059L243.528 95.8672C244.984 95.8189 246.443 95.8524 247.895 95.7383L252.246 95.3086C253.696 95.1679 255.123 94.8396 256.562 94.6161C262.307 93.5603 267.935 91.9428 273.364 89.7867C278.793 87.6003 284.04 84.9898 289.058 81.9794C294.088 78.982 298.885 75.6103 303.408 71.8929C304.539 70.9789 305.606 69.9849 306.827 69.0334C308.031 68.0926 309.304 67.2434 310.635 66.4931C311.303 66.1184 311.986 65.7711 312.684 65.4513C313.385 65.1385 314.104 64.8755 314.813 64.5866C315.538 64.3357 316.278 64.1153 317.017 63.8986C317.776 63.7487 318.519 63.528 319.294 63.4478C320.839 63.2187 322.405 63.1743 323.96 63.3154C325.517 63.4877 327.047 63.8519 328.515 64.3997C329.963 64.9716 331.344 65.7014 332.632 66.5759C333.89 67.4635 335.067 68.4599 336.151 69.5538C340.456 73.9517 343.276 79.5876 344.216 85.6705C344.699 88.6765 344.735 91.7375 344.325 94.7542C343.908 97.6971 343.539 100.65 342.967 103.558C342.697 105.015 342.461 106.481 342.162 107.931L341.253 112.278C340.677 115.184 339.951 118.052 339.29 120.936C336.523 132.44 333.338 143.827 329.984 155.157C326.618 166.486 323.074 177.758 319.35 188.973L319.37 188.891L318.13 195.585C317.606 197.794 317.105 200.008 316.544 202.207C315.368 206.594 313.905 210.899 312.165 215.095C310.461 219.311 308.359 223.356 305.889 227.174C305.243 228.11 304.595 229.046 303.928 229.967C303.209 230.85 302.555 231.784 301.778 232.62C300.31 234.383 298.636 235.963 296.791 237.326L296.816 237.308L293.246 240.034L291.461 241.397L289.635 242.704L285.985 245.323L282.255 247.827C277.257 251.135 272.08 254.165 266.748 256.903C256.05 262.264 244.65 266.527 232.695 268.162C229.712 268.589 226.706 268.833 223.693 268.893C220.673 268.97 217.652 268.83 214.652 268.474C211.638 268.127 208.661 267.514 205.756 266.64C204.293 266.193 202.864 265.642 201.48 264.991L197.376 263.222C186.413 258.461 175.498 253.562 164.632 248.526C153.78 243.48 143.03 238.213 132.382 232.727C127.069 229.964 121.796 227.117 116.613 224.095C114.023 222.582 111.456 221.022 108.949 219.352C107.701 218.507 106.458 217.653 105.261 216.716C104.02 215.799 102.871 214.763 101.831 213.622C101.282 213 100.865 212.274 100.604 211.487C100.336 210.752 100.124 209.997 99.9701 209.23C99.6919 207.728 99.5177 206.21 99.4488 204.684C99.317 201.672 99.3618 198.654 99.583 195.646C100.018 189.661 100.755 183.702 101.789 177.791L101.982 176.683L102.245 175.55C102.461 174.809 102.734 174.085 103.061 173.386C103.726 172.009 104.557 170.717 105.535 169.541C107.5 167.24 109.767 165.217 112.276 163.525C114.75 161.823 117.346 160.305 120.043 158.984C122.725 157.646 125.485 156.469 128.307 155.46C128.319 155.456 128.332 155.454 128.344 155.455C128.357 155.456 128.37 155.459 128.381 155.464C128.393 155.47 128.403 155.478 128.412 155.487C128.42 155.497 128.427 155.508 128.431 155.52C128.439 155.544 128.437 155.571 128.426 155.594C128.415 155.618 128.395 155.636 128.371 155.645Z" fill="black"/>
<path d="M128.385 155.685C125.607 156.769 122.896 158.017 120.266 159.423C117.628 160.795 115.095 162.359 112.686 164.103C110.281 165.809 108.117 167.834 106.255 170.121C105.356 171.256 104.599 172.497 104 173.815C103.714 174.469 103.478 175.143 103.294 175.831L103.078 176.871L102.91 177.975C101.971 183.857 101.328 189.783 100.984 195.73C100.811 198.681 100.811 201.64 100.983 204.591C101.07 206.04 101.256 207.481 101.541 208.904C101.688 209.585 101.887 210.254 102.135 210.906C102.335 211.509 102.662 212.063 103.094 212.528C104.076 213.566 105.155 214.506 106.317 215.336C107.482 216.218 108.713 217.037 109.937 217.862C112.41 219.487 114.961 221.017 117.54 222.502C122.7 225.469 127.968 228.272 133.278 230.992C143.899 236.442 154.707 241.537 165.525 246.609C176.342 251.693 187.23 256.595 198.154 261.489C208.608 267.27 220.788 268.254 232.52 266.833C244.296 265.4 255.707 261.43 266.353 256.12C276.985 250.691 287.035 244.188 296.344 236.712L296.38 236.686C298.155 235.352 299.766 233.813 301.179 232.101C301.937 231.278 302.577 230.353 303.28 229.483C303.933 228.573 304.566 227.647 305.199 226.722C307.622 222.937 309.679 218.93 311.344 214.755C313.013 210.578 314.406 206.296 315.515 201.936C316.043 199.75 316.511 197.548 317.002 195.354L318.146 188.701C318.153 188.661 318.163 188.621 318.175 188.582C321.762 177.347 325.148 166.045 328.333 154.677C331.551 143.329 334.613 131.934 337.242 120.454C337.863 117.577 338.574 114.717 339.129 111.831L340.008 107.51C340.296 106.069 340.521 104.62 340.78 103.176C341.332 100.288 341.676 97.3873 342.071 94.4906C342.639 90.2922 342.247 86.0196 340.924 81.9949C339.601 77.9702 337.382 74.2984 334.434 71.2564C333.453 70.2774 332.388 69.3857 331.252 68.5915C330.12 67.8338 328.909 67.2019 327.64 66.7069C326.374 66.2443 325.056 65.9383 323.715 65.7956C322.364 65.6829 321.004 65.7306 319.663 65.9377C316.921 66.3837 314.279 67.3137 311.862 68.6842C310.638 69.3704 309.468 70.1476 308.361 71.009C307.796 71.444 307.283 71.8827 306.715 72.3692C306.14 72.8506 305.579 73.3512 304.993 73.8157C300.365 77.6028 295.459 81.0361 290.316 84.0866C285.179 87.1534 279.807 89.8107 274.253 92.0338C268.671 94.2364 262.887 95.8854 256.983 96.9569C255.497 97.1756 254.026 97.4943 252.529 97.6263L248.04 98.0246C246.542 98.1268 245.034 98.08 243.533 98.1138L241.293 98.13C240.585 98.1124 239.878 98.1236 239.171 98.1507C233.48 98.3528 227.994 100.329 223.482 103.802C218.964 107.326 215.527 112.048 213.562 117.43C212.576 120.132 211.87 122.929 211.456 125.776C211.062 128.649 210.885 131.547 210.926 134.446V134.493L210.926 134.514C210.311 145.8 209.663 157.081 208.923 168.358C208.535 173.996 208.118 179.632 207.673 185.266C207.444 188.083 207.203 190.899 206.93 193.713C206.795 195.12 206.645 196.526 206.479 197.931C206.352 199.354 206.104 200.764 205.738 202.146C205.727 202.18 205.703 202.209 205.671 202.226C205.639 202.243 205.602 202.247 205.567 202.237C205.532 202.226 205.503 202.203 205.486 202.171C205.468 202.139 205.464 202.102 205.473 202.067L205.485 202.025C205.795 200.665 205.995 199.281 206.083 197.889C206.21 196.484 206.321 195.078 206.415 193.67C206.61 190.854 206.773 188.035 206.922 185.216C207.219 179.577 207.479 173.935 207.701 168.291C208.197 157.007 208.643 145.72 209.04 134.431L209.039 134.498C208.938 131.492 209.064 128.483 209.417 125.497C209.8 122.489 210.504 119.532 211.518 116.675C213.566 110.872 217.202 105.76 222.01 101.921C226.886 98.0795 232.838 95.8549 239.037 95.5576C239.804 95.5185 240.572 95.4977 241.34 95.5077L243.527 95.465C244.975 95.414 246.425 95.4453 247.869 95.3291L252.195 94.8937C253.636 94.7515 255.056 94.4214 256.487 94.1971C262.204 93.1442 267.803 91.5322 273.205 89.3846C278.611 87.2046 283.836 84.6025 288.833 81.6022C293.842 78.6143 298.619 75.2537 303.124 71.5488C303.694 71.0949 304.233 70.6106 304.789 70.1429C305.34 69.6684 305.948 69.1459 306.552 68.6798C307.774 67.7248 309.065 66.8627 310.415 66.1009C311.093 65.72 311.787 65.3668 312.497 65.0414C313.209 64.7231 313.939 64.4553 314.66 64.1621C315.398 63.9065 316.151 63.6815 316.903 63.461C317.678 63.3064 318.436 63.0846 319.228 63.0023C320.809 62.7692 322.412 62.7253 324.004 62.8714C325.6 63.0492 327.168 63.4239 328.672 63.9869C330.152 64.5724 331.563 65.3198 332.879 66.2152C334.159 67.1195 335.357 68.1348 336.458 69.2492C340.821 73.7139 343.678 79.4331 344.626 85.6041C345.112 88.6483 345.146 91.7474 344.728 94.8016C344.308 97.7528 343.934 100.715 343.359 103.627C343.086 105.086 342.849 106.555 342.548 108.006L341.633 112.359C341.054 115.268 340.324 118.137 339.661 121.023C334.058 144.036 327.055 166.622 319.56 189.043L319.589 188.925L318.332 195.627C317.801 197.838 317.295 200.055 316.728 202.255C315.54 206.647 314.065 210.957 312.312 215.156C310.601 219.38 308.491 223.431 306.012 227.256C305.364 228.193 304.714 229.131 304.044 230.054C303.323 230.939 302.665 231.875 301.885 232.713C300.407 234.485 298.722 236.072 296.865 237.441L296.9 237.415L293.326 240.14L291.539 241.502L289.71 242.809L286.06 245.431L282.33 247.942C277.331 251.259 272.152 254.297 266.818 257.044C256.111 262.413 244.713 266.729 232.727 268.401C229.735 268.837 226.719 269.091 223.697 269.159C220.664 269.244 217.629 269.112 214.616 268.762C211.583 268.422 208.586 267.812 205.66 266.941C204.183 266.494 202.739 265.941 201.339 265.288L197.237 263.533C186.266 258.795 175.34 253.879 164.472 248.87C153.614 243.828 142.864 238.55 132.221 233.037C126.908 230.267 121.634 227.413 116.447 224.38C113.855 222.862 111.285 221.297 108.772 219.619C107.519 218.771 106.275 217.91 105.072 216.964C103.816 216.031 102.655 214.977 101.604 213.818C101.035 213.168 100.602 212.411 100.33 211.592C100.058 210.841 99.8434 210.071 99.6886 209.288C99.4115 207.773 99.2395 206.24 99.1738 204.701C99.0492 201.677 99.102 198.649 99.3318 195.631C99.7836 189.639 100.537 183.674 101.588 177.758L101.784 176.649L102.055 175.499C102.277 174.748 102.556 174.016 102.889 173.308C103.565 171.919 104.409 170.617 105.4 169.432C107.381 167.127 109.667 165.1 112.193 163.409C117.187 160.054 122.6 157.368 128.293 155.42C128.327 155.408 128.365 155.41 128.398 155.426C128.431 155.442 128.457 155.47 128.47 155.504C128.482 155.538 128.481 155.576 128.466 155.61C128.451 155.643 128.424 155.67 128.39 155.683L128.385 155.685Z" fill="black"/>
<path d="M326.76 163.666L337.232 125.819C337.434 125.813 337.635 125.813 337.837 125.813C361.799 125.813 381.235 134.427 381.235 145.058C381.235 155.683 361.799 164.297 337.837 164.297C334.135 164.3 330.437 164.089 326.76 163.666ZM222.818 76.8321C222.128 75.6378 221.063 74.7042 219.789 74.1757C218.515 73.6473 217.103 73.5534 215.77 73.9087C217.416 71.4545 216.327 67.1885 212.463 67.1885C207.052 67.1885 207.043 75.5994 212.463 75.5994C212.619 75.592 212.774 75.5766 212.929 75.5531C211.959 76.5303 211.336 77.7998 211.159 79.1657C210.981 80.5317 211.257 81.9182 211.945 83.1115L216.568 91.121L227.441 84.8417L222.818 76.8321Z" fill="black"/>
</svg>
