<svg width="326" height="374" viewBox="0 0 326 374" fill="none" xmlns="http://www.w3.org/2000/svg">
<path d="M43.5014 162.13C43.8115 164.631 44.4754 167.074 45.4731 169.389C44.5322 167.055 43.8704 164.619 43.5014 162.13ZM121.039 196.913C122.62 195.602 123.798 193.871 124.437 191.921C124.983 190.18 125.098 188.277 123.585 187.301C120.36 185.216 111.813 191.289 109.908 194.704C108.013 198.118 100.605 207.232 103.447 220.889C106.299 234.555 116.933 245.754 116.933 245.754C116.933 245.754 117.872 246.72 119.288 248.298L123.461 236.745C120.628 233.561 118.321 230.94 117.699 230.194C115.861 227.985 104.912 210.436 121.039 196.913ZM92.0572 233.8C92.0572 233.8 81.4136 225.068 70.2154 219.751C62.2708 215.983 58.3371 210.025 59.0834 205.319C59.3041 204.089 59.862 202.944 60.6951 202.012C61.5283 201.08 62.6039 200.398 63.8023 200.04C67.0088 199.017 74.6085 195.469 73.8238 184.834L73.6799 181.468C72.0143 181.421 70.3806 181 68.9007 180.235C67.4208 179.47 66.1328 178.381 65.1329 177.049C61.7156 172.497 55.7334 170.221 46.4686 171.502L41.6254 168.796C41.6254 168.796 41.2711 160.093 43.2237 159.251C43.1952 158.601 43.1857 157.941 43.1952 157.272C43.1952 157.272 38.9166 158.218 39.6345 166.998C39.6345 166.998 37.9212 166.041 36.3994 156.181C36.3994 156.181 28.9909 158.266 31.087 172.688C31.7358 175.581 31.6071 178.593 30.7141 181.42C30.7141 181.42 27.6702 194.512 25.2007 202.106C22.7312 209.699 17.6968 228.157 29.6611 263.17L35.8349 282.957C35.8349 282.957 38.869 304.399 34.1216 308.578C34.1216 308.578 26.9047 309.419 29.5653 315.071C29.6955 315.352 29.8701 315.611 30.0822 315.837C29.8815 315.485 29.7637 315.093 29.7378 314.689C29.7045 314.29 29.7434 313.888 29.8527 313.503C29.9631 313.086 30.1885 312.708 30.5033 312.413C30.6549 312.254 30.8442 312.137 31.0534 312.072C31.2626 312.007 31.485 311.996 31.6997 312.04C31.4406 312.272 31.232 312.555 31.087 312.872C30.9575 313.162 30.852 313.463 30.7716 313.771C30.5895 314.474 30.3592 315.165 30.0822 315.837C30.7524 316.582 32.1881 317.539 34.8871 316.927L35.174 316.898C34.7436 316.152 34.5751 315.283 34.6954 314.431C34.7555 313.99 34.9054 313.567 35.1357 313.187C35.2435 312.98 35.4034 312.804 35.5998 312.676C35.7961 312.549 36.0223 312.474 36.256 312.461C36.0316 312.766 35.8808 313.12 35.8153 313.493C35.7484 313.838 35.6909 314.192 35.6433 314.565C35.5657 315.356 35.4085 316.138 35.174 316.898L36.7822 316.755C36.693 316.17 36.7092 315.574 36.8299 314.995C36.9696 314.408 37.2487 313.864 37.6435 313.407C38.0383 312.942 38.5236 312.561 39.0699 312.288C39.6024 312.078 40.1045 311.799 40.5631 311.456C41.4828 310.793 42.2362 309.925 42.7643 308.922C43.2086 307.863 43.5266 306.756 43.7117 305.623C44.7186 301.067 45.3683 296.44 45.6549 291.784C46.0377 287.127 46.1045 282.45 46.0568 277.773C46.0475 275.43 45.9709 273.097 45.8652 270.754C45.7891 268.41 45.6358 266.077 45.4731 263.734C46.1716 268.379 46.6126 273.06 46.7938 277.754C46.9868 282.453 46.9261 287.159 46.612 291.851C46.2879 296.553 45.5577 301.218 44.4295 305.795C44.1882 306.97 43.8092 308.113 43.3004 309.199C42.6968 310.258 41.8545 311.162 40.8402 311.839C40.336 312.167 39.7926 312.43 39.2227 312.623C38.7007 312.841 38.2286 313.164 37.8351 313.57C37.4412 313.994 37.1432 314.498 36.9616 315.048C36.7799 315.597 36.7187 316.179 36.7822 316.755C36.7822 316.755 37.1074 317.855 38.9834 318.476C38.667 317.637 38.6302 316.718 38.8782 315.856C39.007 315.4 39.236 314.978 39.5484 314.622C39.7041 314.419 39.9235 314.273 40.1716 314.209C40.4196 314.145 40.682 314.166 40.9168 314.268C40.7412 314.336 40.5826 314.441 40.4519 314.577C40.3213 314.712 40.2219 314.875 40.1607 315.052C40.0157 315.397 39.8975 315.752 39.8069 316.114C39.6037 316.924 39.328 317.715 38.9834 318.476C40.4536 318.896 41.9946 319.01 43.5107 318.811C43.1955 318.474 42.9975 318.045 42.9461 317.587C42.8915 317.127 42.9338 316.661 43.0704 316.219C43.2095 315.788 43.4384 315.391 43.742 315.055C44.0456 314.719 44.4171 314.451 44.8319 314.268C44.6978 314.708 44.5253 315.081 44.3818 315.445C44.2384 315.818 44.0949 316.162 43.9799 316.516C43.7406 317.261 43.5865 318.031 43.5205 318.811C44.8012 318.696 46.0715 318.485 47.3205 318.18C47.3205 318.18 51.5987 317.682 52.0296 308.434C52.8064 304.167 54.095 300.009 55.8675 296.049L58.8633 285.874C59.275 282.88 59.9162 279.963 60.5574 277.046L61.5529 272.685C61.8595 271.222 62.2422 269.788 62.424 268.296C62.5708 269.803 62.5258 271.323 62.2899 272.819C62.0987 274.311 61.802 275.784 61.486 277.257C60.8453 280.195 59.9682 283.077 58.8633 285.874C58.8633 285.874 59.2941 293.917 67.334 302.524C66.2478 297.857 65.6322 293.093 65.4964 288.303C65.3375 283.468 66.054 278.643 67.6117 274.063C69.2621 269.448 72.3523 265.486 76.427 262.758C80.5291 260.153 85.3475 258.901 90.2004 259.182C87.8193 259.232 85.4573 259.618 83.1845 260.329C80.9239 261.007 78.7829 262.033 76.8387 263.37C74.9128 264.709 73.2131 266.346 71.8039 268.219C70.419 270.112 69.3104 272.193 68.5114 274.397C66.9543 278.866 66.1836 283.571 66.2335 288.303C66.2096 290.678 66.3054 293.053 66.5204 295.418C66.6452 296.604 66.7121 297.8 66.8747 298.976L67.334 302.524C67.334 302.524 65.4199 306.158 59.1508 306.436C59.1508 306.436 55.303 306.799 54.8721 311.638C54.8721 311.638 54.6618 314.383 60.9309 315.072C60.9309 315.072 67.5543 316.353 71.5455 314.077L75.3357 314.268H76.7429C75.6927 311.752 75.0841 309.073 74.9436 306.35C74.6501 301.435 75.4692 296.517 77.3401 291.962C79.2109 287.407 82.0854 283.332 85.7498 280.04C96.1059 270.62 107.056 270.792 110.166 271.06C108.53 258.12 103.811 243.669 92.0572 233.8ZM36.5714 166.663C36.5714 166.663 36.0741 167.514 36.7822 169.513C36.7822 169.513 30.6566 167.945 35.9302 158.123C35.9302 158.123 36.7822 165.381 39.3475 168.796C38.3029 168.255 37.3628 167.533 36.5714 166.663ZM61.4286 182.032C55.7334 183.457 54.7286 178.474 54.7286 178.474C60.7108 178.053 61.4286 182.032 61.4286 182.032ZM40.0555 188.583C43.4604 187.762 46.9276 187.224 50.4215 186.976C52.1693 186.837 53.9232 186.789 55.6759 186.833C57.4426 186.813 59.1979 187.118 60.8542 187.732C60.0037 187.563 59.1371 187.489 58.2702 187.512C57.4084 187.502 56.5471 187.55 55.6759 187.579C53.9533 187.665 52.2208 187.799 50.4883 187.923C47.0238 188.181 43.5588 188.478 40.0555 188.583ZM43.1952 194.991C44.37 193.926 45.6719 193.01 47.0715 192.265C48.4706 191.507 49.9384 190.882 51.4553 190.4C52.9716 189.915 54.5335 189.584 56.1167 189.415C57.6911 189.235 59.2813 189.241 60.8542 189.434C59.2849 189.644 57.7435 189.826 56.2312 190.151C54.7126 190.449 53.2135 190.839 51.7422 191.318C50.2653 191.777 48.8147 192.317 47.3968 192.934C45.9802 193.556 44.5735 194.216 43.1952 194.991ZM54.6618 194.914C52.4601 196.397 50.3065 197.946 48.0384 199.399C49.8419 197.396 51.8865 195.622 54.1258 194.12C56.3292 192.545 58.8051 191.391 61.4286 190.716C59.0643 192.007 56.8537 193.422 54.6618 194.914Z" fill="white"/>
<path d="M43.2285 159.245C43.2285 159.245 43.2285 159.277 43.2323 159.332C43.2285 159.304 43.2285 159.277 43.2244 159.249L43.2285 159.245Z" fill="white"/>
<path d="M58.0793 178.783C58.35 179.005 58.5614 179.29 58.6946 179.614C58.8114 179.875 58.8714 180.158 58.8705 180.445C58.873 180.731 58.8138 181.014 58.6969 181.276C58.5637 181.6 58.3513 181.885 58.0793 182.106C57.8073 181.885 57.595 181.6 57.4617 181.276C57.3449 181.014 57.2857 180.731 57.2883 180.445C57.2874 180.158 57.3474 179.875 57.4642 179.614C57.5974 179.29 57.8087 179.005 58.0793 178.783ZM43.2244 159.25C43.3256 160.293 43.4673 161.328 43.6495 162.353C43.8308 163.378 44.0339 164.399 44.3098 165.402C44.5555 166.413 44.8548 167.41 45.2065 168.388C45.5334 169.378 45.954 170.331 46.3587 171.301C45.255 169.503 44.4348 167.547 43.9269 165.5C43.391 163.461 43.1543 161.356 43.2244 159.25ZM155.156 177.313C155.908 175.511 156.96 173.849 158.267 172.397C159.569 170.897 161.164 169.678 162.954 168.813C163.86 168.385 164.815 168.069 165.798 167.873C166.781 167.696 167.784 167.644 168.78 167.719C170.739 167.898 172.65 168.422 174.425 169.267C176.21 170.036 177.889 171.029 179.423 172.223C180.986 173.417 182.331 174.871 183.4 176.521C184.511 178.199 185.199 180.121 185.404 182.123C185.598 184.209 184.967 186.288 183.647 187.916L183.635 187.931C183.603 187.973 183.563 188.009 183.518 188.038C182.266 188.902 180.778 189.359 179.256 189.347C178.465 189.295 177.703 189.029 177.052 188.578C176.432 188.131 175.918 187.552 175.548 186.883C175.234 186.302 174.868 185.75 174.456 185.234C174.018 184.733 173.541 184.219 173.073 183.724C172.599 183.23 172.126 182.733 171.637 182.256C171.39 182.02 171.14 181.787 170.877 181.573C170.748 181.467 170.613 181.367 170.473 181.274C170.344 181.191 170.164 181.097 170.076 181.149L170.056 181.162C170.043 181.169 170.028 181.171 170.014 181.168C169.999 181.165 169.987 181.156 169.979 181.143C169.971 181.131 169.968 181.116 169.971 181.102C169.974 181.087 169.983 181.074 169.995 181.066C170.216 180.917 170.404 181.052 170.564 181.103C170.726 181.177 170.882 181.262 171.031 181.358C171.329 181.546 171.611 181.751 171.889 181.961C172.446 182.38 172.979 182.825 173.496 183.287C174.018 183.75 174.521 184.204 175.037 184.698C175.538 185.212 175.978 185.783 176.347 186.399C176.646 186.925 177.075 187.366 177.592 187.68C178.11 187.994 178.699 188.17 179.304 188.192C180.556 188.144 181.769 187.739 182.797 187.024L182.668 187.146C183.798 185.75 184.37 183.986 184.274 182.194C184.123 180.354 183.562 178.57 182.634 176.973C180.799 173.617 177.838 171.016 174.272 169.628C172.519 168.919 170.645 168.556 168.754 168.559C166.903 168.588 165.076 168.991 163.385 169.744C159.998 171.448 157.177 174.093 155.262 177.362C155.258 177.369 155.253 177.375 155.247 177.38C155.241 177.385 155.234 177.389 155.227 177.391C155.22 177.393 155.212 177.394 155.204 177.393C155.197 177.392 155.189 177.39 155.183 177.387C155.171 177.379 155.161 177.368 155.157 177.355C155.152 177.341 155.152 177.327 155.156 177.313Z" fill="white"/>
<path d="M212.438 175.441C210.328 175.808 208.294 176.523 206.418 177.555C204.506 178.52 202.658 179.611 200.834 180.736C197.176 182.974 193.638 185.407 190.15 187.907C186.663 190.408 183.213 192.962 179.8 195.568C176.389 198.172 173.028 200.85 169.684 203.533L169.679 203.537C169.604 203.598 169.512 203.636 169.415 203.647C169.319 203.658 169.221 203.642 169.133 203.6C169.046 203.557 168.972 203.491 168.92 203.409C168.869 203.326 168.842 203.231 168.842 203.134L168.889 191.353L169.016 179.572L169.265 179.901L166.194 179.083C165.171 178.805 164.125 178.631 163.091 178.4C162.058 178.158 161.002 178.065 159.957 177.89C158.909 177.744 157.85 177.703 156.797 177.623C154.688 177.532 152.576 177.722 150.517 178.186C150.005 178.304 149.504 178.459 149.015 178.652C148.523 178.83 148.046 179.046 147.587 179.298C146.671 179.774 145.888 180.472 145.311 181.328L145.329 181.268C144.895 185.364 144.547 189.471 144.283 193.588C144.011 197.704 143.862 201.813 143.871 205.935C143.851 214.177 144.059 222.424 144.284 230.663L144.28 230.61C144.445 231.404 144.732 232.167 145.132 232.872C145.339 233.227 145.574 233.567 145.833 233.887L146.225 234.364C146.368 234.511 146.526 234.645 146.674 234.787C147.926 235.891 149.433 236.666 151.059 237.043C154.443 237.652 157.92 237.508 161.242 236.623C162.921 236.242 164.633 235.789 166.341 235.337L171.478 234.079L181.777 231.726C188.64 230.174 195.521 228.718 202.304 226.893C204.008 226.462 205.68 225.935 207.37 225.459C209.032 224.906 210.722 224.421 212.354 223.786C215.674 222.688 218.826 221.137 221.721 219.177L221.729 219.171C221.78 219.134 221.843 219.119 221.906 219.128C221.968 219.138 222.024 219.172 222.061 219.223C222.091 219.264 222.107 219.315 222.106 219.366L221.925 230.467C221.925 230.482 221.918 230.497 221.908 230.507C221.897 230.518 221.882 230.524 221.867 230.524C221.852 230.524 221.837 230.518 221.826 230.507C221.815 230.497 221.809 230.482 221.809 230.467L221.628 219.366L222.013 219.556C219.123 221.621 215.951 223.261 212.595 224.426C210.957 225.097 209.269 225.614 207.603 226.199C205.914 226.707 204.238 227.268 202.537 227.729C195.752 229.655 188.901 231.318 182.037 232.873L171.759 235.254L166.646 236.521C164.952 236.971 163.267 237.435 161.511 237.824C158.003 238.725 154.34 238.84 150.783 238.159C148.972 237.723 147.299 236.842 145.916 235.597C144.516 234.312 143.571 232.609 143.219 230.743L143.216 230.708L143.215 230.689C143.129 226.562 143.114 222.436 143.098 218.309C143.091 214.182 143.109 210.055 143.191 205.927C143.249 201.8 143.477 197.665 143.821 193.555C144.146 189.44 144.497 185.33 144.966 181.226L144.968 181.21C144.97 181.194 144.975 181.179 144.984 181.166C146.249 179.263 148.372 178.376 150.421 177.814C152.513 177.322 154.662 177.11 156.81 177.184C158.949 177.276 161.079 177.504 163.188 177.865C164.236 178.075 165.297 178.229 166.334 178.486L169.45 179.242C169.521 179.259 169.584 179.299 169.629 179.356C169.674 179.413 169.699 179.483 169.7 179.556V179.572L169.827 191.353L169.874 203.134L169.032 202.735C172.369 200.009 175.787 197.4 179.22 194.804C182.662 192.223 186.126 189.668 189.676 187.232C193.225 184.797 196.825 182.429 200.546 180.256C202.414 179.181 204.312 178.155 206.271 177.249C208.203 176.271 210.285 175.621 212.43 175.324C212.446 175.323 212.461 175.328 212.472 175.337C212.484 175.347 212.492 175.361 212.493 175.376C212.495 175.391 212.491 175.406 212.481 175.418C212.472 175.43 212.458 175.438 212.443 175.44L212.438 175.441Z" fill="white"/>
<path d="M179.369 161.119L182.347 168.161L185.242 175.235L184.909 174.978C187.544 175.161 190.191 174.939 192.758 174.32C195.31 173.731 197.689 172.554 199.703 170.882C201.663 169.158 203.086 166.908 203.804 164.399C204.521 161.851 204.786 159.196 204.587 156.556L204.586 156.533L204.587 156.507C204.718 155.942 205 155.423 205.404 155.006C205.808 154.589 206.317 154.29 206.879 154.141C207.916 153.845 208.996 153.731 210.072 153.804C212.182 153.823 214.287 154.005 216.369 154.348C222.661 155.361 228.598 157.933 233.639 161.828L236.057 163.894C236.464 164.234 236.844 164.605 237.195 165.003L238.288 166.159C239.741 167.706 241.078 169.357 242.29 171.099C242.921 171.952 243.407 172.898 243.973 173.794C244.501 174.712 245.109 175.589 245.571 176.541L246.939 179.408C247.424 180.349 247.853 181.317 248.224 182.309C248.927 184.3 249.685 186.286 250.342 188.282L254.182 200.254C255.476 204.24 256.849 208.198 258.261 212.141C258.978 214.108 259.725 216.065 260.524 217.998C260.923 218.965 261.333 219.928 261.79 220.868C262.193 221.819 262.733 222.707 263.394 223.502L263.423 223.531C263.432 223.541 263.438 223.555 263.438 223.569C263.438 223.583 263.432 223.596 263.423 223.606C263.413 223.616 263.4 223.622 263.386 223.623C263.372 223.623 263.358 223.618 263.348 223.609C262.61 222.84 261.999 221.959 261.536 220.999C261.024 220.078 260.56 219.133 260.107 218.184C259.191 216.287 258.398 214.34 257.596 212.397C256.007 208.506 254.568 204.557 253.176 200.595C251.764 196.639 250.477 192.642 249.194 188.644C248.529 186.659 247.779 184.728 247.077 182.767C246.718 181.792 246.307 180.837 245.845 179.907L244.54 177.076C244.098 176.136 243.514 175.273 243.009 174.367C242.466 173.484 242.002 172.547 241.395 171.707L239.561 169.194C238.965 168.345 238.305 167.543 237.586 166.794L236.549 165.634C236.217 165.235 235.855 164.862 235.466 164.518L233.155 162.43C231.543 161.117 229.827 159.936 228.025 158.9C224.403 156.813 220.436 155.39 216.312 154.701C214.248 154.369 212.16 154.212 210.071 154.233C209.047 154.169 208.021 154.294 207.043 154.601C206.589 154.735 206.178 154.987 205.853 155.33C205.527 155.674 205.298 156.097 205.189 156.558V156.509C205.494 159.231 205.315 161.985 204.662 164.645C203.968 167.358 202.475 169.8 200.378 171.657C198.248 173.446 195.708 174.682 192.984 175.253C190.308 175.875 187.549 176.056 184.815 175.788C184.741 175.78 184.671 175.752 184.612 175.707C184.553 175.661 184.508 175.6 184.482 175.531L181.83 168.362L179.26 161.162C179.255 161.147 179.256 161.132 179.262 161.118C179.269 161.104 179.28 161.093 179.294 161.088C179.308 161.082 179.324 161.082 179.338 161.088C179.352 161.094 179.363 161.105 179.369 161.119ZM167.367 158.627C163.208 159.975 159.219 161.8 155.482 164.067C151.737 166.285 148.272 168.943 145.162 171.987C142.05 175.006 139.386 178.456 137.253 182.23C135.127 186.037 132.973 189.879 130.741 193.638C128.512 197.4 126.206 201.123 124.285 205.011C123.302 206.925 122.529 208.94 121.98 211.02C121.414 213.05 121.459 215.202 122.109 217.206C122.921 219.175 124.22 220.904 125.886 222.231C127.524 223.642 129.333 224.841 131.271 225.8C135.197 227.719 139.4 229.012 143.726 229.633C141.539 229.438 139.373 229.057 137.252 228.494C135.116 227.949 133.032 227.219 131.023 226.313C129.008 225.382 127.12 224.198 125.406 222.788C124.551 222.069 123.752 221.285 123.018 220.444C122.281 219.57 121.691 218.583 121.271 217.52C120.493 215.358 120.398 213.009 120.999 210.79C121.548 208.632 122.331 206.539 123.331 204.549C125.258 200.573 127.537 196.825 129.74 193.046C132.006 189.297 134.164 185.521 136.334 181.707C138.525 177.854 141.293 174.36 144.543 171.345C150.999 165.309 158.834 160.943 167.367 158.627Z" fill="white"/>
<path d="M127.959 207.637C128.975 206.661 130.109 205.815 131.336 205.121C132.56 204.408 133.852 203.82 135.194 203.367C136.552 202.926 137.961 202.658 139.386 202.57C140.813 202.505 142.237 202.732 143.573 203.237C142.204 203.19 140.833 203.269 139.479 203.473C138.151 203.719 136.841 204.053 135.558 204.472C134.268 204.887 133.007 205.4 131.744 205.929C130.485 206.471 129.232 207.043 127.959 207.637ZM221.867 219.366C223.402 218.157 224.837 216.867 226.255 215.561C227.662 214.242 229.034 212.891 230.373 211.509C231.717 210.128 233.019 208.708 234.318 207.276C235.617 205.843 236.879 204.375 238.217 202.944C237.272 204.656 236.203 206.297 235.019 207.853C233.84 209.416 232.568 210.907 231.21 212.318C229.843 213.724 228.384 215.038 226.842 216.25C225.312 217.481 223.642 218.527 221.867 219.366ZM216.836 173.498C218.94 173.042 221.109 172.965 223.24 173.272C225.403 173.563 227.493 174.255 229.402 175.311C230.354 175.853 231.254 176.48 232.093 177.184C232.899 177.92 233.628 178.737 234.269 179.621C234.608 180.044 234.911 180.495 235.173 180.969L235.913 182.409C236.143 182.894 236.333 183.398 236.48 183.914C236.653 184.42 236.812 184.928 236.959 185.436C236.048 183.552 234.906 181.788 233.558 180.187C232.891 179.408 232.162 178.685 231.379 178.024C230.579 177.388 229.727 176.82 228.833 176.326C227.033 175.325 225.095 174.596 223.081 174.162C221.03 173.715 218.936 173.492 216.836 173.498ZM151.368 274.849L145.413 283.918C143.428 286.942 141.425 289.953 139.402 292.95C139.356 293.019 139.292 293.075 139.217 293.113C139.142 293.151 139.059 293.168 138.975 293.164C138.891 293.16 138.81 293.134 138.739 293.09C138.668 293.045 138.61 292.983 138.57 292.909L138.553 292.877C137.113 290.303 135.336 287.931 133.27 285.826C131.206 283.698 128.971 281.745 126.585 279.986C125.356 279.156 124.164 278.272 122.873 277.539C122.233 277.164 121.614 276.754 120.958 276.407L118.988 275.373C118.338 275.013 117.665 274.702 116.984 274.405L114.953 273.492C113.582 272.925 112.18 272.429 110.796 271.894L110.779 271.888C110.591 271.815 110.439 271.672 110.355 271.49C110.271 271.307 110.261 271.099 110.327 270.909C111.699 266.987 113.156 263.096 114.572 259.19C115.995 255.286 117.416 251.381 118.889 247.496L127.639 224.15C127.671 224.064 127.736 223.995 127.819 223.957C127.902 223.92 127.997 223.916 128.082 223.948C128.101 223.956 128.12 223.965 128.137 223.975C130.531 225.389 133.045 226.588 135.65 227.559C138.237 228.568 140.963 229.175 143.734 229.361C143.803 229.364 143.868 229.393 143.916 229.442C143.964 229.491 143.992 229.557 143.993 229.625V229.645C144.042 230.592 144.307 231.514 144.768 232.342C145.231 233.19 145.823 233.96 146.521 234.628C147.222 235.302 147.991 235.902 148.817 236.416L150.092 237.139L151.421 237.765L151.427 237.768C151.482 237.794 151.528 237.835 151.56 237.885C151.593 237.936 151.611 237.995 151.611 238.056L152.064 283.239L152.176 305.831C152.229 313.361 152.223 320.892 152.2 328.422V328.427C152.199 328.578 152.161 328.725 152.089 328.857C151.621 329.67 150.954 330.351 150.151 330.836C149.416 331.293 148.621 331.645 147.788 331.881C146.212 332.326 144.588 332.583 142.951 332.646C139.771 332.774 136.586 332.638 133.428 332.239C127.186 331.423 120.994 330.259 114.882 328.752C108.77 327.311 102.728 325.615 96.7227 323.813C90.7146 322.02 84.7577 320.071 78.8518 317.967L78.8464 317.965C78.8186 317.955 78.7942 317.937 78.7758 317.915C77.9048 316.816 77.1934 315.6 76.6627 314.303C76.6539 314.282 76.6538 314.258 76.6623 314.237C76.6709 314.216 76.6874 314.199 76.7084 314.19C76.7294 314.18 76.7531 314.18 76.7745 314.188C76.7959 314.196 76.8132 314.212 76.8227 314.233C77.3935 315.487 78.1386 316.653 79.0359 317.699L78.9602 317.647C84.9365 319.505 90.9623 321.209 96.994 322.865C103.032 324.502 109.101 326.002 115.2 327.366C121.276 328.757 127.425 329.809 133.619 330.516C136.68 330.882 139.766 331.002 142.846 330.873C144.342 330.812 145.824 330.574 147.264 330.166C148.579 329.874 149.735 329.096 150.5 327.988L150.389 328.422C150.366 320.892 150.361 313.361 150.413 305.831L150.526 283.239L150.978 238.056L151.168 238.346L149.805 237.69L148.492 236.931C147.634 236.388 146.835 235.755 146.108 235.045C145.374 234.33 144.753 233.507 144.27 232.604C143.767 231.685 143.488 230.661 143.454 229.614L143.712 229.899C142.298 229.808 140.893 229.609 139.509 229.306C138.134 228.985 136.778 228.587 135.448 228.114C132.792 227.157 130.227 225.966 127.782 224.554L128.279 224.38L120.121 247.939C118.776 251.871 117.378 255.783 115.982 259.697C114.58 263.608 113.219 267.534 111.773 271.429L111.304 270.445C112.715 271.005 114.142 271.528 115.539 272.122L117.608 273.077C118.301 273.388 118.987 273.713 119.649 274.088L121.657 275.168C122.325 275.53 122.957 275.957 123.608 276.348C124.923 277.113 126.139 278.032 127.389 278.896C129.831 280.716 132.095 282.762 134.151 285.008C136.243 287.246 138.023 289.755 139.443 292.468L138.595 292.395C140.677 289.439 142.773 286.492 144.882 283.554L151.224 274.75C151.237 274.732 151.257 274.719 151.28 274.715C151.302 274.711 151.326 274.716 151.344 274.729C151.363 274.742 151.376 274.762 151.381 274.784C151.385 274.807 151.381 274.83 151.368 274.849Z" fill="white"/>
<path d="M129.775 297.141C131.52 296.41 133.34 295.876 135.203 295.548C137.072 295.187 138.974 295.026 140.876 295.067C142.798 295.09 144.705 295.41 146.53 296.013C148.355 296.619 149.996 297.68 151.296 299.096C149.76 298.077 148.06 297.328 146.271 296.883C145.823 296.793 145.379 296.699 144.937 296.594L143.582 296.414C143.133 296.337 142.674 296.323 142.219 296.288C141.763 296.255 141.308 296.219 140.848 296.229C139.005 296.185 137.162 296.257 135.329 296.444C133.484 296.621 131.637 296.853 129.775 297.141ZM113.086 271.919C110.265 278.335 107.131 284.589 103.92 290.802C100.678 297 97.3577 303.156 93.7214 309.149C96.54 302.732 99.6744 296.479 102.887 290.266C106.132 284.07 109.452 277.913 113.086 271.919Z" fill="white"/>
<path d="M117.338 315.292C120.084 310.513 123.115 305.93 126.224 301.4C129.362 296.89 132.568 292.428 136.07 288.169C133.326 292.951 130.292 297.532 127.182 302.061C124.042 306.568 120.838 311.032 117.338 315.292ZM108.817 339.382C112.76 339.153 116.694 338.866 120.628 338.56C120.285 340.195 119.508 341.708 118.379 342.94C118.379 342.94 53.963 349.223 44.3242 344.193C44.3242 344.193 40.9649 336.026 47.0429 333.099C49.0623 332.123 53.5704 330.335 59.1216 327.992C60.7952 328.267 62.4242 328.766 63.9648 329.474C65.4955 330.174 66.9145 331.096 68.1762 332.209C68.7993 332.767 69.3784 333.371 69.9086 334.017C70.4137 334.678 70.865 335.378 71.2583 336.111C72.0343 337.582 72.5921 339.157 72.9142 340.788L72.924 340.797C72.9442 340.89 72.9966 340.973 73.0718 341.03C73.1471 341.088 73.2404 341.118 73.3353 341.113L85.1654 340.635L96.996 340.061C100.939 339.879 104.873 339.621 108.817 339.382Z" fill="white"/>
<path d="M117.335 315.292C97.9816 324.855 93.7222 309.152 93.7222 309.152C90.744 311.709 87.526 313.973 84.1129 315.913C84.8982 315.948 85.6675 316.147 86.3716 316.497C87.1196 316.856 87.8022 317.337 88.3911 317.922C88.9753 318.502 89.4603 319.174 89.8268 319.911C90.1941 320.641 90.4245 321.432 90.5063 322.244C90.0376 321.575 89.6543 320.906 89.1856 320.303C88.7435 319.695 88.2504 319.125 87.7116 318.601C87.1852 318.066 86.6118 317.579 85.9983 317.147C85.3817 316.702 84.7358 316.3 84.0649 315.942C82.5142 316.86 80.9094 317.759 79.2506 318.639C79.9935 318.685 80.7194 318.88 81.3851 319.213C82.8854 319.931 84.0994 321.134 84.8309 322.627C85.2022 323.355 85.4328 324.147 85.5105 324.961C85.051 324.281 84.6585 323.622 84.1991 323.019C83.754 322.41 83.2611 321.838 82.725 321.307C82.193 320.775 81.6167 320.289 81.0024 319.854C80.4062 319.42 79.779 319.03 79.126 318.687C77.4323 319.586 75.6998 320.466 73.9575 321.317C74.7755 321.338 75.579 321.537 76.3121 321.9C77.8159 322.622 79.0331 323.828 79.7677 325.324C80.1346 326.051 80.3649 326.838 80.4472 327.648C79.9878 326.978 79.5953 326.309 79.126 325.707C78.6874 325.099 78.1975 324.529 77.6618 324.004C77.1322 323.469 76.5557 322.983 75.9391 322.551C75.3092 322.092 74.6469 321.68 73.9575 321.317C68.8367 323.813 63.63 326.089 59.1218 327.992C60.8275 328.151 62.5009 328.557 64.0894 329.197C65.6938 329.83 67.1867 330.714 68.5115 331.818C69.1793 332.372 69.8003 332.979 70.3683 333.635C70.9188 334.309 71.415 335.025 71.8521 335.777C72.6646 337.182 73.2613 338.7 73.6225 340.282L85.1278 339.698L96.958 339.211C100.901 339.029 104.845 338.924 108.788 338.809C112.732 338.685 116.685 338.618 120.628 338.56C122.791 329.761 117.335 315.292 117.335 315.292ZM108.395 332.688C104.691 332.688 104.701 326.95 108.395 326.95C112.099 326.95 112.09 332.688 108.395 332.688Z" fill="white"/>
<path d="M79.2316 318.639C79.1933 318.658 79.1643 318.667 79.1259 318.687C79.0881 318.667 79.0591 318.648 79.0208 318.629C79.0911 318.628 79.1616 318.631 79.2316 318.639ZM84.1131 315.913C84.0939 315.923 84.0841 315.932 84.0649 315.942C84.0458 315.932 84.0364 315.923 84.0173 315.913H84.1131Z" fill="white"/>
<path d="M151.296 238.057C151.296 238.057 143.75 241.568 175.612 244.919L282.376 227.884L265.607 221.461L151.296 238.057Z" fill="white"/>
<path d="M151.384 238.057C151.557 246.262 151.708 254.467 151.783 262.672C151.872 270.877 151.976 279.082 151.99 287.287C152.013 295.492 152.092 303.697 152.069 311.902C152.041 320.106 152.027 328.311 151.909 336.516L151.505 335.941L168.761 342.423C174.506 344.604 180.288 346.681 186.05 348.815L185.894 348.805C190.653 347.838 195.397 346.797 200.146 345.779L214.383 342.684L242.836 336.397C252.32 334.297 261.805 332.203 271.303 330.172C280.801 328.138 290.285 326.04 299.794 324.059L299.07 325.048C298.238 316.857 297.308 308.67 296.281 300.488C295.262 292.311 294.24 284.133 293.04 275.981C291.832 267.832 290.576 259.687 289.005 251.603C288.211 247.563 287.361 243.534 286.359 239.543C285.447 235.531 284.086 231.635 282.301 227.928L282.298 227.923C282.288 227.903 282.286 227.879 282.292 227.857C282.299 227.835 282.314 227.817 282.334 227.806C282.354 227.795 282.378 227.792 282.4 227.799C282.422 227.805 282.441 227.82 282.452 227.84C284.376 231.507 285.881 235.381 286.936 239.385C288.095 243.354 289.053 247.376 289.936 251.411C291.705 259.481 293.173 267.61 294.471 275.762C295.771 283.915 296.98 292.081 298.027 300.268C299.07 308.457 300.027 316.656 300.898 324.865C300.921 325.088 300.862 325.312 300.73 325.494C300.599 325.676 300.405 325.804 300.186 325.852L300.174 325.854C290.678 327.895 281.157 329.818 271.649 331.805C262.142 333.795 252.622 335.722 243.1 337.643L214.539 343.419L200.268 346.356C195.514 347.348 190.755 348.318 186.012 349.362C185.96 349.372 185.906 349.369 185.855 349.351C180.065 347.296 174.295 345.185 168.487 343.177L151.087 337.092C150.971 337.051 150.87 336.976 150.797 336.876C150.725 336.776 150.685 336.657 150.683 336.533V336.516C150.565 328.311 150.551 320.106 150.523 311.902C150.5 303.697 150.579 295.492 150.602 287.287C150.617 279.082 150.72 270.877 150.809 262.672C150.884 254.467 151.036 246.262 151.209 238.057C151.209 238.034 151.219 238.012 151.235 237.997C151.251 237.981 151.273 237.972 151.296 237.972C151.319 237.972 151.341 237.981 151.357 237.997C151.374 238.012 151.383 238.034 151.384 238.057Z" fill="white"/>
<path d="M175.612 244.919C176.1 249.122 176.515 253.331 176.969 257.536L178.205 270.161C179.011 278.582 179.735 286.995 180.482 295.436C181.086 303.88 181.573 312.327 181.943 320.778L182.413 333.458C182.514 337.687 182.645 341.915 182.684 346.145L181.048 320.825C180.5 312.388 180.016 303.947 179.323 295.525L177.316 270.238L176.403 257.583C176.141 253.361 175.839 249.143 175.612 244.919ZM154.658 334.291C155.82 334.325 156.97 334.034 157.975 333.45C158.955 332.861 159.76 332.022 160.309 331.02C161.346 328.956 161.846 326.664 161.761 324.355C161.95 319.637 162.076 314.917 162.35 310.201L163.281 296.06C163.558 291.346 163.761 286.628 163.888 281.907C163.89 281.84 163.918 281.775 163.966 281.728C164.014 281.68 164.078 281.652 164.146 281.651C164.214 281.649 164.279 281.673 164.329 281.719C164.38 281.764 164.41 281.827 164.416 281.894L164.417 281.908L165.528 297.515L166.579 313.121L167.103 320.918C167.19 322.217 167.285 323.515 167.4 324.807C167.458 325.452 167.52 326.099 167.604 326.731C167.641 327.043 167.695 327.373 167.752 327.626L167.789 327.771L167.901 328.009C167.98 328.168 168.041 328.321 168.106 328.475C168.566 329.681 169.09 330.861 169.676 332.012C170.277 333.147 170.979 334.226 171.775 335.236C173.392 337.266 175.255 339.088 177.322 340.658C177.328 340.663 177.334 340.669 177.337 340.675C177.341 340.682 177.344 340.689 177.345 340.697C177.346 340.704 177.346 340.712 177.344 340.719C177.342 340.727 177.338 340.734 177.334 340.74C177.325 340.751 177.311 340.759 177.297 340.762C177.282 340.764 177.267 340.761 177.255 340.753C175.049 339.317 173.048 337.59 171.305 335.619C169.587 333.602 168.216 331.313 167.251 328.846C167.186 328.702 167.121 328.553 167.052 328.422L166.949 328.22L166.833 327.902C166.745 327.564 166.677 327.221 166.627 326.875C166.521 326.216 166.441 325.567 166.363 324.915C166.209 323.613 166.078 322.313 165.953 321.012C165.722 318.41 165.516 315.807 165.336 313.205C164.974 307.998 164.735 302.785 164.469 297.575C164.219 292.364 164.055 287.149 163.888 281.935H164.417C164.111 286.646 163.88 291.36 163.724 296.079L163.354 310.236C163.194 314.952 162.886 319.664 162.642 324.378C162.641 326.813 162.013 329.207 160.818 331.329C160.191 332.379 159.276 333.227 158.181 333.772C157.087 334.317 155.858 334.537 154.642 334.406C154.627 334.404 154.614 334.396 154.605 334.385C154.596 334.373 154.591 334.358 154.592 334.344C154.593 334.329 154.6 334.315 154.611 334.305C154.622 334.295 154.637 334.29 154.652 334.29L154.658 334.291ZM206.309 240.021C206.309 240.021 224.062 235.962 224.424 275.407C224.464 279.769 224.623 285.708 225.64 289.95C227.729 298.663 232.131 308.662 237.725 300.189C239.602 297.28 240.564 293.876 240.487 290.415C240.43 285.764 239.311 278.823 234.025 273.404C225.268 264.427 227.527 261.675 228.365 256.648C229.203 251.621 231.26 248.235 225.64 243.034L220.02 237.834L230.042 236.234C235.562 237.882 240.173 244.64 239.894 250.784C239.849 251.778 239.774 252.794 239.681 253.8C239.097 260.041 240.687 266.292 244.182 271.498C247.873 276.983 251.912 284.787 251.912 292.673C251.912 307.194 235.981 327.022 221.867 311.313C207.753 295.605 213.063 292.673 213.622 269.773C214.181 246.874 190.993 242.465 190.993 242.465L206.309 240.021ZM168.151 114.359C166.026 118.747 164.456 123.383 163.478 128.159C163.295 129.356 163.205 130.567 163.208 131.778C163.157 133.017 163.064 134.255 162.902 135.487C162.789 136.743 162.428 137.965 161.84 139.082C161.478 139.594 161.064 140.066 160.602 140.49C160.228 140.897 160.009 141.421 159.981 141.973C159.983 142.217 160.058 142.455 160.197 142.656C160.337 142.857 160.533 143.011 160.761 143.099C160.973 143.205 161.316 143.318 161.598 143.448C161.956 143.586 162.273 143.813 162.52 144.106C162.733 144.428 162.864 144.796 162.904 145.179C162.956 145.505 162.989 145.809 163.027 146.116C163.103 146.725 163.164 147.33 163.254 147.93C163.552 150.314 164.171 152.646 165.094 154.864C165.988 157.026 167.6 158.94 169.979 159.032C172.421 159.256 174.867 159.501 177.323 159.826L177.33 159.827C177.344 159.829 177.357 159.836 177.367 159.847C177.376 159.858 177.381 159.873 177.38 159.887C177.379 159.902 177.373 159.916 177.362 159.926C177.352 159.936 177.338 159.942 177.323 159.942C174.863 160.001 172.392 159.981 169.917 159.94C169.591 159.937 169.266 159.904 168.946 159.841L168.443 159.76C168.28 159.713 168.12 159.655 167.964 159.588C167.325 159.355 166.735 159.006 166.224 158.559C165.249 157.675 164.478 156.59 163.963 155.379C162.981 153.051 162.375 150.583 162.167 148.065C162.098 147.445 162.044 146.827 162.004 146.21C162.018 145.679 161.938 145.149 161.77 144.644C161.62 144.464 161.43 144.322 161.214 144.23C160.948 144.081 160.707 143.987 160.38 143.796C160.054 143.613 159.781 143.35 159.586 143.032C159.398 142.705 159.313 142.328 159.344 141.951C159.418 141.265 159.733 140.628 160.233 140.151C160.466 139.905 160.733 139.73 160.935 139.534C161.145 139.331 161.333 139.105 161.494 138.861C162.097 137.816 162.451 136.646 162.527 135.442C162.633 134.225 162.644 133.001 162.56 131.783C162.441 130.537 162.426 129.284 162.517 128.036C162.839 125.551 163.517 123.126 164.53 120.835C165.495 118.551 166.674 116.363 168.05 114.3C168.054 114.294 168.059 114.289 168.066 114.284C168.072 114.28 168.079 114.277 168.087 114.276C168.095 114.275 168.102 114.275 168.11 114.276C168.117 114.278 168.124 114.281 168.131 114.285C168.142 114.293 168.15 114.305 168.154 114.318C168.157 114.332 168.156 114.346 168.151 114.359Z" fill="white"/>
<path d="M159.767 130.941C160.483 132.653 161.08 134.407 161.74 136.139C162.322 137.898 162.967 139.635 163.493 141.414C163.499 141.433 163.499 141.453 163.493 141.473C163.487 141.492 163.476 141.509 163.46 141.521C163.444 141.534 163.425 141.542 163.405 141.544C163.385 141.546 163.365 141.541 163.348 141.532L163.274 141.492C162.335 140.97 161.517 140.256 160.876 139.395C160.307 138.642 159.859 137.807 159.546 136.918C159.231 136.03 159.053 135.099 159.018 134.157C158.973 133.085 159.153 132.017 159.548 131.019L159.579 130.942C159.587 130.924 159.6 130.908 159.616 130.896C159.633 130.885 159.653 130.879 159.673 130.879C159.693 130.879 159.713 130.885 159.73 130.896C159.746 130.907 159.76 130.923 159.767 130.941Z" fill="white"/>
<path d="M187.386 137.398C187.374 137.398 187.362 137.397 187.35 137.395C187.312 137.391 187.275 137.379 187.242 137.36C187.208 137.341 187.179 137.316 187.156 137.286C187.132 137.256 187.115 137.221 187.105 137.184C187.094 137.148 187.092 137.109 187.096 137.071C187.112 136.897 187.09 136.721 187.031 136.556C186.972 136.391 186.879 136.24 186.756 136.115C183.413 132.192 159.884 131.28 159.647 131.27C159.569 131.268 159.497 131.234 159.444 131.178C159.391 131.121 159.363 131.046 159.366 130.969C159.364 130.93 159.37 130.89 159.385 130.854C159.399 130.817 159.422 130.784 159.451 130.758C159.48 130.731 159.514 130.711 159.552 130.699C159.589 130.687 159.629 130.684 159.668 130.69C160.647 130.725 183.692 131.623 187.2 135.738C187.375 135.924 187.508 136.146 187.59 136.388C187.672 136.631 187.7 136.888 187.674 137.142C187.665 137.213 187.631 137.278 187.578 137.325C187.525 137.372 187.457 137.398 187.386 137.398Z" fill="white"/>
<path d="M185.577 146.385C191.656 153.402 204.888 156.533 204.888 156.533C210.862 153.81 210.967 129.828 208.976 116.11C206.984 102.391 190.215 105.742 185.868 107.313C181.522 108.884 168.49 110.35 168.49 110.35C168.49 110.35 171.559 136.531 178.057 137.892C178.057 137.892 183.737 131.996 185.653 136.62C185.958 137.394 186.084 138.228 186.02 139.058L185.577 146.385Z" fill="white"/>
<path d="M182.719 149.774C181.728 149.72 180.767 149.412 179.93 148.879C179.863 148.84 179.814 148.777 179.794 148.702C179.774 148.628 179.784 148.549 179.822 148.482C179.861 148.415 179.924 148.366 179.999 148.346C180.073 148.326 180.153 148.336 180.22 148.374C181.683 149.211 182.87 149.405 183.748 148.955C185.111 148.251 185.323 146.193 185.325 146.172C185.328 146.134 185.338 146.096 185.356 146.062C185.374 146.028 185.398 145.998 185.428 145.974C185.458 145.949 185.492 145.931 185.529 145.92C185.566 145.909 185.604 145.906 185.642 145.91C185.68 145.914 185.717 145.925 185.751 145.943C185.785 145.961 185.815 145.985 185.839 146.015C185.864 146.044 185.882 146.078 185.893 146.115C185.904 146.152 185.908 146.19 185.905 146.228C185.895 146.325 185.657 148.624 184.015 149.472C183.614 149.676 183.169 149.78 182.719 149.774ZM162.924 149.483C163.135 150.058 163.521 150.552 164.029 150.895C164.277 151.033 164.55 151.12 164.832 151.149C165.115 151.179 165.4 151.152 165.671 151.068C166.855 150.677 167.987 150.145 169.044 149.483C168.2 150.507 167.07 151.257 165.798 151.636C165.454 151.735 165.092 151.753 164.74 151.688C164.387 151.624 164.055 151.479 163.768 151.265C163.508 151.045 163.298 150.773 163.152 150.465C163.006 150.158 162.929 149.823 162.924 149.483ZM164.711 137.613C165.164 137.597 165.593 137.406 165.908 137.081C166.222 136.755 166.398 136.32 166.398 135.868C166.398 135.415 166.222 134.98 165.908 134.654C165.593 134.329 165.164 134.138 164.711 134.122C164.259 134.138 163.83 134.329 163.515 134.654C163.2 134.98 163.025 135.415 163.025 135.868C163.025 136.32 163.2 136.755 163.515 137.081C163.83 137.406 164.259 137.597 164.711 137.613ZM99.87 310.755C100.323 310.739 100.752 310.548 101.066 310.223C101.381 309.897 101.557 309.462 101.557 309.01C101.557 308.557 101.381 308.122 101.066 307.796C100.752 307.471 100.323 307.28 99.87 307.264C99.4173 307.28 98.9884 307.471 98.6737 307.796C98.359 308.122 98.1831 308.557 98.1831 309.01C98.1831 309.462 98.359 309.897 98.6737 310.223C98.9884 310.548 99.4173 310.739 99.87 310.755ZM116.43 303.634C116.882 303.618 117.311 303.427 117.626 303.102C117.941 302.776 118.117 302.341 118.117 301.888C118.117 301.436 117.941 301.001 117.626 300.675C117.311 300.35 116.882 300.159 116.43 300.143C115.977 300.159 115.548 300.35 115.233 300.675C114.919 301.001 114.743 301.436 114.743 301.888C114.743 302.341 114.919 302.776 115.233 303.102C115.548 303.427 115.977 303.618 116.43 303.634ZM109.932 316.619C110.384 316.604 110.813 316.413 111.128 316.087C111.443 315.762 111.619 315.327 111.619 314.874C111.619 314.421 111.443 313.986 111.128 313.661C110.813 313.335 110.384 313.144 109.932 313.129C109.479 313.144 109.05 313.335 108.735 313.661C108.421 313.986 108.245 314.421 108.245 314.874C108.245 315.327 108.421 315.762 108.735 316.087C109.05 316.413 109.479 316.604 109.932 316.619ZM106.787 294.209C107.24 294.193 107.669 294.002 107.984 293.677C108.298 293.351 108.474 292.916 108.474 292.463C108.474 292.011 108.298 291.576 107.984 291.25C107.669 290.925 107.24 290.734 106.787 290.718C106.335 290.734 105.906 290.925 105.591 291.25C105.276 291.576 105.1 292.011 105.1 292.463C105.1 292.916 105.276 293.351 105.591 293.677C105.906 294.002 106.335 294.193 106.787 294.209ZM125.443 290.229C125.896 290.213 126.325 290.023 126.64 289.697C126.954 289.371 127.13 288.937 127.13 288.484C127.13 288.031 126.954 287.596 126.64 287.271C126.325 286.945 125.896 286.754 125.443 286.739C124.991 286.754 124.562 286.945 124.247 287.271C123.932 287.596 123.756 288.031 123.756 288.484C123.756 288.937 123.932 289.371 124.247 289.697C124.562 290.023 124.991 290.213 125.443 290.229ZM114.543 280.804C114.996 280.788 115.425 280.598 115.74 280.272C116.054 279.946 116.23 279.511 116.23 279.059C116.23 278.606 116.054 278.171 115.74 277.846C115.425 277.52 114.996 277.329 114.543 277.313C114.09 277.329 113.662 277.52 113.347 277.846C113.032 278.171 112.856 278.606 112.856 279.059C112.856 279.511 113.032 279.946 113.347 280.272C113.662 280.598 114.09 280.788 114.543 280.804ZM115.382 292.743C115.834 292.727 116.263 292.536 116.578 292.21C116.893 291.885 117.069 291.45 117.069 290.997C117.069 290.545 116.893 290.11 116.578 289.784C116.263 289.458 115.834 289.268 115.382 289.252C114.929 289.268 114.5 289.458 114.185 289.784C113.871 290.11 113.695 290.545 113.695 290.997C113.695 291.45 113.871 291.885 114.185 292.21C114.5 292.536 114.929 292.727 115.382 292.743ZM107.207 304.681C107.659 304.665 108.088 304.474 108.403 304.149C108.718 303.823 108.894 303.388 108.894 302.936C108.894 302.483 108.718 302.048 108.403 301.722C108.088 301.397 107.659 301.206 107.207 301.19C106.754 301.206 106.325 301.397 106.01 301.722C105.696 302.048 105.52 302.483 105.52 302.936C105.52 303.388 105.696 303.823 106.01 304.149C106.325 304.474 106.754 304.665 107.207 304.681ZM122.759 307.439L120.838 310.226C120.47 310.068 120.166 309.791 119.977 309.438C119.788 309.086 119.724 308.68 119.797 308.287C119.869 307.893 120.073 307.536 120.376 307.274C120.678 307.013 121.061 306.861 121.46 306.845C121.708 306.835 121.955 306.883 122.181 306.987C122.406 307.09 122.605 307.245 122.759 307.439ZM129.135 298.211L127.173 301.051C126.934 300.805 126.771 300.496 126.705 300.16C126.638 299.824 126.671 299.476 126.798 299.158C126.926 298.84 127.143 298.566 127.424 298.369C127.704 298.172 128.036 298.061 128.378 298.049C128.639 298.044 128.898 298.1 129.135 298.211ZM155.488 251.412C155.941 251.396 156.37 251.205 156.685 250.88C156.999 250.554 157.175 250.119 157.175 249.667C157.175 249.214 156.999 248.779 156.685 248.453C156.37 248.128 155.941 247.937 155.488 247.921C155.036 247.937 154.607 248.128 154.292 248.453C153.977 248.779 153.801 249.214 153.801 249.667C153.801 250.119 153.977 250.554 154.292 250.88C154.607 251.205 155.036 251.396 155.488 251.412ZM163.593 256.997C164.046 256.981 164.475 256.791 164.79 256.465C165.104 256.139 165.28 255.704 165.28 255.252C165.28 254.799 165.104 254.364 164.79 254.039C164.475 253.713 164.046 253.522 163.593 253.506C163.141 253.522 162.712 253.713 162.397 254.039C162.082 254.364 161.907 254.799 161.907 255.252C161.907 255.704 162.082 256.139 162.397 256.465C162.712 256.791 163.141 256.981 163.593 256.997ZM171.978 250.853C172.431 250.838 172.86 250.647 173.174 250.321C173.489 249.996 173.665 249.561 173.665 249.108C173.665 248.655 173.489 248.22 173.174 247.895C172.86 247.569 172.431 247.378 171.978 247.363C171.525 247.378 171.096 247.569 170.782 247.895C170.467 248.22 170.291 248.655 170.291 249.108C170.291 249.561 170.467 249.996 170.782 250.321C171.096 250.647 171.525 250.838 171.978 250.853ZM156.327 267.33C156.779 267.314 157.208 267.123 157.523 266.798C157.838 266.472 158.014 266.037 158.014 265.584C158.014 265.132 157.838 264.697 157.523 264.371C157.208 264.046 156.779 263.855 156.327 263.839C155.874 263.855 155.445 264.046 155.13 264.371C154.816 264.697 154.64 265.132 154.64 265.584C154.64 266.037 154.816 266.472 155.13 266.798C155.445 267.123 155.874 267.314 156.327 267.33ZM171.978 266.213C172.431 266.197 172.86 266.006 173.174 265.681C173.489 265.355 173.665 264.92 173.665 264.467C173.665 264.015 173.489 263.58 173.174 263.254C172.86 262.929 172.431 262.738 171.978 262.722C171.525 262.738 171.096 262.929 170.782 263.254C170.467 263.58 170.291 264.015 170.291 264.467C170.291 264.92 170.467 265.355 170.782 265.681C171.096 266.006 171.525 266.197 171.978 266.213ZM164.152 274.311C164.605 274.296 165.034 274.105 165.349 273.779C165.663 273.454 165.839 273.019 165.839 272.566C165.839 272.113 165.663 271.678 165.349 271.353C165.034 271.027 164.605 270.836 164.152 270.821C163.7 270.836 163.271 271.027 162.956 271.353C162.641 271.678 162.466 272.113 162.466 272.566C162.466 273.019 162.641 273.454 162.956 273.779C163.271 274.105 163.7 274.296 164.152 274.311ZM156.886 282.689C157.338 282.673 157.767 282.483 158.082 282.157C158.397 281.831 158.573 281.396 158.573 280.944C158.573 280.491 158.397 280.056 158.082 279.731C157.767 279.405 157.338 279.214 156.886 279.198C156.433 279.214 156.004 279.405 155.689 279.731C155.375 280.056 155.199 280.491 155.199 280.944C155.199 281.396 155.375 281.831 155.689 282.157C156.004 282.483 156.433 282.673 156.886 282.689ZM172.817 283.248C173.269 283.232 173.698 283.041 174.013 282.716C174.328 282.39 174.504 281.955 174.504 281.502C174.504 281.05 174.328 280.615 174.013 280.289C173.698 279.964 173.269 279.773 172.817 279.757C172.364 279.773 171.935 279.964 171.62 280.289C171.306 280.615 171.13 281.05 171.13 281.502C171.13 281.955 171.306 282.39 171.62 282.716C171.935 283.041 172.364 283.232 172.817 283.248ZM157.724 297.211C158.177 297.195 158.606 297.004 158.921 296.679C159.235 296.353 159.411 295.918 159.411 295.465C159.411 295.013 159.235 294.578 158.921 294.252C158.606 293.927 158.177 293.736 157.724 293.72C157.271 293.736 156.843 293.927 156.528 294.252C156.213 294.578 156.037 295.013 156.037 295.465C156.037 295.918 156.213 296.353 156.528 296.679C156.843 297.004 157.271 297.195 157.724 297.211ZM172.817 297.769C173.269 297.754 173.698 297.563 174.013 297.237C174.328 296.912 174.504 296.477 174.504 296.024C174.504 295.571 174.328 295.136 174.013 294.811C173.698 294.485 173.269 294.294 172.817 294.279C172.364 294.294 171.935 294.485 171.62 294.811C171.306 295.136 171.13 295.571 171.13 296.024C171.13 296.477 171.306 296.912 171.62 297.237C171.935 297.563 172.364 297.754 172.817 297.769ZM157.165 310.057C157.618 310.041 158.047 309.85 158.362 309.525C158.676 309.199 158.852 308.764 158.852 308.311C158.852 307.859 158.676 307.424 158.362 307.098C158.047 306.773 157.618 306.582 157.165 306.566C156.712 306.582 156.284 306.773 155.969 307.098C155.654 307.424 155.478 307.859 155.478 308.311C155.478 308.764 155.654 309.199 155.969 309.525C156.284 309.85 156.712 310.041 157.165 310.057ZM172.817 311.453C173.269 311.437 173.698 311.247 174.013 310.921C174.328 310.595 174.504 310.16 174.504 309.708C174.504 309.255 174.328 308.82 174.013 308.495C173.698 308.169 173.269 307.978 172.817 307.962C172.364 307.978 171.935 308.169 171.62 308.495C171.306 308.82 171.13 309.255 171.13 309.708C171.13 310.16 171.306 310.595 171.62 310.921C171.935 311.247 172.364 311.437 172.817 311.453ZM157.445 324.299C157.897 324.283 158.326 324.093 158.641 323.767C158.956 323.441 159.132 323.006 159.132 322.554C159.132 322.101 158.956 321.666 158.641 321.341C158.326 321.015 157.897 320.824 157.445 320.808C156.992 320.824 156.563 321.015 156.248 321.341C155.934 321.666 155.758 322.101 155.758 322.554C155.758 323.006 155.934 323.441 156.248 323.767C156.563 324.093 156.992 324.283 157.445 324.299ZM173.096 324.858C173.549 324.842 173.978 324.651 174.292 324.325C174.607 324 174.783 323.565 174.783 323.112C174.783 322.66 174.607 322.225 174.292 321.899C173.978 321.573 173.549 321.383 173.096 321.367C172.643 321.383 172.214 321.573 171.9 321.899C171.585 322.225 171.409 322.66 171.409 323.112C171.409 323.565 171.585 324 171.9 324.325C172.214 324.651 172.643 324.842 173.096 324.858ZM164.991 334.911C165.444 334.895 165.873 334.704 166.187 334.379C166.502 334.053 166.678 333.618 166.678 333.166C166.678 332.713 166.502 332.278 166.187 331.952C165.873 331.627 165.444 331.436 164.991 331.42C164.538 331.436 164.109 331.627 163.795 331.952C163.48 332.278 163.304 332.713 163.304 333.166C163.304 333.618 163.48 334.053 163.795 334.379C164.109 334.704 164.538 334.895 164.991 334.911ZM176.729 337.145C177.182 337.129 177.611 336.939 177.926 336.613C178.24 336.287 178.416 335.852 178.416 335.4C178.416 334.947 178.24 334.512 177.926 334.187C177.611 333.861 177.182 333.67 176.729 333.654C176.277 333.67 175.848 333.861 175.533 334.187C175.218 334.512 175.043 334.947 175.043 335.4C175.043 335.852 175.218 336.287 175.533 336.613C175.848 336.939 176.277 337.129 176.729 337.145ZM181.201 256.159C181.654 256.144 182.083 255.953 182.398 255.627C182.712 255.302 182.888 254.867 182.888 254.414C182.888 253.961 182.712 253.526 182.398 253.201C182.083 252.875 181.654 252.684 181.201 252.669C180.749 252.684 180.32 252.875 180.005 253.201C179.69 253.526 179.514 253.961 179.514 254.414C179.514 254.867 179.69 255.302 180.005 255.627C180.32 255.953 180.749 256.144 181.201 256.159ZM188.468 249.736C188.921 249.721 189.35 249.53 189.664 249.204C189.979 248.879 190.155 248.444 190.155 247.991C190.155 247.538 189.979 247.103 189.664 246.778C189.35 246.452 188.921 246.261 188.468 246.246C188.015 246.261 187.586 246.452 187.272 246.778C186.957 247.103 186.781 247.538 186.781 247.991C186.781 248.444 186.957 248.879 187.272 249.204C187.586 249.53 188.015 249.721 188.468 249.736ZM197.412 254.205C197.864 254.189 198.293 253.998 198.608 253.672C198.923 253.347 199.098 252.912 199.098 252.459C199.098 252.007 198.923 251.572 198.608 251.246C198.293 250.92 197.864 250.73 197.412 250.714C196.959 250.73 196.53 250.92 196.215 251.246C195.901 251.572 195.725 252.007 195.725 252.459C195.725 252.912 195.901 253.347 196.215 253.672C196.53 253.998 196.959 254.189 197.412 254.205ZM191.263 261.465C191.716 261.45 192.145 261.259 192.459 260.933C192.774 260.608 192.95 260.173 192.95 259.72C192.95 259.267 192.774 258.832 192.459 258.507C192.145 258.181 191.716 257.99 191.263 257.975C190.81 257.99 190.381 258.181 190.067 258.507C189.752 258.832 189.576 259.267 189.576 259.72C189.576 260.173 189.752 260.608 190.067 260.933C190.381 261.259 190.81 261.45 191.263 261.465ZM185.953 272.636C186.405 272.62 186.834 272.429 187.149 272.104C187.464 271.778 187.639 271.343 187.639 270.89C187.639 270.438 187.464 270.003 187.149 269.677C186.834 269.352 186.405 269.161 185.953 269.145C185.5 269.161 185.071 269.352 184.756 269.677C184.442 270.003 184.266 270.438 184.266 270.89C184.266 271.343 184.442 271.778 184.756 272.104C185.071 272.429 185.5 272.62 185.953 272.636ZM201.883 269.285C202.336 269.269 202.765 269.078 203.08 268.752C203.394 268.427 203.57 267.992 203.57 267.539C203.57 267.087 203.394 266.652 203.08 266.326C202.765 266.001 202.336 265.81 201.883 265.794C201.431 265.81 201.002 266.001 200.687 266.326C200.372 266.652 200.197 267.087 200.197 267.539C200.197 267.992 200.372 268.427 200.687 268.752C201.002 269.078 201.431 269.269 201.883 269.285ZM195.735 277.942C196.187 277.926 196.616 277.735 196.931 277.41C197.246 277.084 197.422 276.649 197.422 276.196C197.422 275.744 197.246 275.309 196.931 274.983C196.616 274.658 196.187 274.467 195.735 274.451C195.282 274.467 194.853 274.658 194.538 274.983C194.224 275.309 194.048 275.744 194.048 276.196C194.048 276.649 194.224 277.084 194.538 277.41C194.853 277.735 195.282 277.926 195.735 277.942ZM187.909 286.599C188.362 286.583 188.791 286.392 189.105 286.067C189.42 285.741 189.596 285.306 189.596 284.853C189.596 284.401 189.42 283.966 189.105 283.64C188.791 283.315 188.362 283.124 187.909 283.108C187.456 283.124 187.027 283.315 186.713 283.64C186.398 283.966 186.222 284.401 186.222 284.853C186.222 285.306 186.398 285.741 186.713 286.067C187.027 286.392 187.456 286.583 187.909 286.599ZM204.399 282.968C204.852 282.953 205.28 282.762 205.595 282.436C205.91 282.111 206.086 281.676 206.086 281.223C206.086 280.77 205.91 280.335 205.595 280.01C205.28 279.684 204.852 279.493 204.399 279.478C203.946 279.493 203.517 279.684 203.202 280.01C202.888 280.335 202.712 280.77 202.712 281.223C202.712 281.676 202.888 282.111 203.202 282.436C203.517 282.762 203.946 282.953 204.399 282.968ZM197.971 293.022C198.423 293.006 198.852 292.815 199.167 292.49C199.482 292.164 199.657 291.729 199.657 291.276C199.657 290.824 199.482 290.389 199.167 290.063C198.852 289.738 198.423 289.547 197.971 289.531C197.518 289.547 197.089 289.738 196.774 290.063C196.46 290.389 196.284 290.824 196.284 291.276C196.284 291.729 196.46 292.164 196.774 292.49C197.089 292.815 197.518 293.006 197.971 293.022ZM189.027 301.12C189.48 301.105 189.909 300.914 190.223 300.588C190.538 300.263 190.714 299.828 190.714 299.375C190.714 298.922 190.538 298.487 190.223 298.162C189.909 297.836 189.48 297.645 189.027 297.63C188.574 297.645 188.145 297.836 187.831 298.162C187.516 298.487 187.34 298.922 187.34 299.375C187.34 299.828 187.516 300.263 187.831 300.588C188.145 300.914 188.574 301.105 189.027 301.12ZM201.324 308.66C201.777 308.645 202.206 308.454 202.521 308.128C202.835 307.803 203.011 307.368 203.011 306.915C203.011 306.462 202.835 306.028 202.521 305.702C202.206 305.376 201.777 305.186 201.324 305.17C200.872 305.186 200.443 305.376 200.128 305.702C199.813 306.028 199.638 306.462 199.638 306.915C199.638 307.368 199.813 307.803 200.128 308.128C200.443 308.454 200.872 308.645 201.324 308.66ZM207.194 297.769C207.646 297.754 208.075 297.563 208.39 297.237C208.705 296.912 208.881 296.477 208.881 296.024C208.881 295.571 208.705 295.136 208.39 294.811C208.075 294.485 207.646 294.294 207.194 294.279C206.741 294.294 206.312 294.485 205.997 294.811C205.683 295.136 205.507 295.571 205.507 296.024C205.507 296.477 205.683 296.912 205.997 297.237C206.312 297.563 206.741 297.754 207.194 297.769ZM191.263 315.083C191.716 315.068 192.145 314.877 192.459 314.551C192.774 314.226 192.95 313.791 192.95 313.338C192.95 312.885 192.774 312.451 192.459 312.125C192.145 311.799 191.716 311.609 191.263 311.593C190.81 311.609 190.381 311.799 190.067 312.125C189.752 312.451 189.576 312.885 189.576 313.338C189.576 313.791 189.752 314.226 190.067 314.551C190.381 314.877 190.81 315.068 191.263 315.083ZM204.119 324.02C204.572 324.004 205.001 323.813 205.316 323.488C205.63 323.162 205.806 322.727 205.806 322.274C205.806 321.822 205.63 321.387 205.316 321.061C205.001 320.736 204.572 320.545 204.119 320.529C203.667 320.545 203.238 320.736 202.923 321.061C202.608 321.387 202.432 321.822 202.432 322.274C202.432 322.727 202.608 323.162 202.923 323.488C203.238 323.813 203.667 324.004 204.119 324.02ZM212.504 311.174C212.957 311.158 213.386 310.967 213.7 310.642C214.015 310.316 214.191 309.881 214.191 309.428C214.191 308.976 214.015 308.541 213.7 308.215C213.386 307.89 212.957 307.699 212.504 307.683C212.051 307.699 211.622 307.89 211.308 308.215C210.993 308.541 210.817 308.976 210.817 309.428C210.817 309.881 210.993 310.316 211.308 310.642C211.622 310.967 212.051 311.158 212.504 311.174ZM192.66 332.677C193.113 332.661 193.542 332.47 193.857 332.145C194.171 331.819 194.347 331.384 194.347 330.932C194.347 330.479 194.171 330.044 193.857 329.718C193.542 329.393 193.113 329.202 192.66 329.186C192.208 329.202 191.779 329.393 191.464 329.718C191.149 330.044 190.973 330.479 190.973 330.932C190.973 331.384 191.149 331.819 191.464 332.145C191.779 332.47 192.208 332.661 192.66 332.677ZM206.355 341.055C206.808 341.039 207.237 340.848 207.552 340.523C207.866 340.197 208.042 339.762 208.042 339.309C208.042 338.857 207.866 338.422 207.552 338.096C207.237 337.771 206.808 337.58 206.355 337.564C205.903 337.58 205.474 337.771 205.159 338.096C204.844 338.422 204.668 338.857 204.668 339.309C204.668 339.762 204.844 340.197 205.159 340.523C205.474 340.848 205.903 341.039 206.355 341.055ZM194.617 346.64C195.069 346.624 195.498 346.433 195.813 346.108C196.128 345.782 196.304 345.347 196.304 344.895C196.304 344.442 196.128 344.007 195.813 343.681C195.498 343.356 195.069 343.165 194.617 343.149C194.164 343.165 193.735 343.356 193.42 343.681C193.106 344.007 192.93 344.442 192.93 344.895C192.93 345.347 193.106 345.782 193.42 346.108C193.735 346.433 194.164 346.624 194.617 346.64ZM216.976 331.839C217.429 331.823 217.857 331.633 218.172 331.307C218.487 330.981 218.663 330.546 218.663 330.094C218.663 329.641 218.487 329.206 218.172 328.881C217.857 328.555 217.429 328.364 216.976 328.348C216.523 328.364 216.094 328.555 215.779 328.881C215.465 329.206 215.289 329.641 215.289 330.094C215.289 330.546 215.465 330.981 215.779 331.307C216.094 331.633 216.523 331.823 216.976 331.839ZM225.64 323.461C226.093 323.446 226.522 323.255 226.836 322.929C227.151 322.604 227.327 322.169 227.327 321.716C227.327 321.263 227.151 320.828 226.836 320.503C226.522 320.177 226.093 319.986 225.64 319.971C225.187 319.986 224.758 320.177 224.444 320.503C224.129 320.828 223.953 321.263 223.953 321.716C223.953 322.169 224.129 322.604 224.444 322.929C224.758 323.255 225.187 323.446 225.64 323.461ZM230.391 337.983C230.844 337.967 231.273 337.776 231.588 337.451C231.902 337.125 232.078 336.69 232.078 336.238C232.078 335.785 231.902 335.35 231.588 335.024C231.273 334.699 230.844 334.508 230.391 334.492C229.939 334.508 229.51 334.699 229.195 335.024C228.88 335.35 228.704 335.785 228.704 336.238C228.704 336.69 228.88 337.125 229.195 337.451C229.51 337.776 229.939 337.967 230.391 337.983ZM237.658 327.93C238.111 327.914 238.54 327.723 238.854 327.397C239.169 327.072 239.345 326.637 239.345 326.184C239.345 325.732 239.169 325.297 238.854 324.971C238.54 324.645 238.111 324.455 237.658 324.439C237.205 324.455 236.776 324.645 236.462 324.971C236.147 325.297 235.971 325.732 235.971 326.184C235.971 326.637 236.147 327.072 236.462 327.397C236.776 327.723 237.205 327.914 237.658 327.93ZM247.161 317.597C247.613 317.581 248.042 317.39 248.357 317.065C248.672 316.739 248.848 316.304 248.848 315.851C248.848 315.399 248.672 314.964 248.357 314.638C248.042 314.313 247.613 314.122 247.161 314.106C246.708 314.122 246.279 314.313 245.964 314.638C245.65 314.964 245.474 315.399 245.474 315.851C245.474 316.304 245.65 316.739 245.964 317.065C246.279 317.39 246.708 317.581 247.161 317.597ZM251.073 332.118C251.526 332.103 251.955 331.912 252.27 331.586C252.584 331.261 252.76 330.826 252.76 330.373C252.76 329.92 252.584 329.485 252.27 329.16C251.955 328.834 251.526 328.643 251.073 328.628C250.621 328.643 250.192 328.834 249.877 329.16C249.562 329.485 249.387 329.92 249.387 330.373C249.387 330.826 249.562 331.261 249.877 331.586C250.192 331.912 250.621 332.103 251.073 332.118ZM258.34 321.786C258.793 321.77 259.222 321.579 259.536 321.254C259.851 320.928 260.027 320.493 260.027 320.04C260.027 319.588 259.851 319.153 259.536 318.827C259.222 318.502 258.793 318.311 258.34 318.295C257.887 318.311 257.458 318.502 257.144 318.827C256.829 319.153 256.653 319.588 256.653 320.04C256.653 320.493 256.829 320.928 257.144 321.254C257.458 321.579 257.887 321.77 258.34 321.786ZM265.886 311.732C266.339 311.717 266.768 311.526 267.083 311.2C267.397 310.875 267.573 310.44 267.573 309.987C267.573 309.534 267.397 309.099 267.083 308.774C266.768 308.448 266.339 308.257 265.886 308.242C265.434 308.257 265.005 308.448 264.69 308.774C264.375 309.099 264.199 309.534 264.199 309.987C264.199 310.44 264.375 310.875 264.69 311.2C265.005 311.526 265.434 311.717 265.886 311.732ZM270.638 326.254C271.09 326.238 271.519 326.047 271.834 325.722C272.149 325.396 272.325 324.961 272.325 324.509C272.325 324.056 272.149 323.621 271.834 323.295C271.519 322.97 271.09 322.779 270.638 322.763C270.185 322.779 269.756 322.97 269.441 323.295C269.127 323.621 268.951 324.056 268.951 324.509C268.951 324.961 269.127 325.396 269.441 325.722C269.756 326.047 270.185 326.238 270.638 326.254ZM275.389 316.759C275.842 316.743 276.271 316.552 276.585 316.227C276.9 315.901 277.076 315.466 277.076 315.014C277.076 314.561 276.9 314.126 276.585 313.801C276.271 313.475 275.842 313.284 275.389 313.268C274.936 313.284 274.507 313.475 274.193 313.801C273.878 314.126 273.702 314.561 273.702 315.014C273.702 315.466 273.878 315.901 274.193 316.227C274.507 316.552 274.936 316.743 275.389 316.759ZM284.333 307.823C284.785 307.807 285.214 307.616 285.529 307.291C285.844 306.965 286.02 306.53 286.02 306.077C286.02 305.625 285.844 305.19 285.529 304.864C285.214 304.539 284.785 304.348 284.333 304.332C283.88 304.348 283.451 304.539 283.136 304.864C282.822 305.19 282.646 305.625 282.646 306.077C282.646 306.53 282.822 306.965 283.136 307.291C283.451 307.616 283.88 307.807 284.333 307.823ZM289.363 324.02C289.816 324.004 290.245 323.813 290.56 323.488C290.874 323.162 291.05 322.727 291.05 322.274C291.05 321.822 290.874 321.387 290.56 321.061C290.245 320.736 289.816 320.545 289.363 320.529C288.911 320.545 288.482 320.736 288.167 321.061C287.852 321.387 287.676 321.822 287.676 322.274C287.676 322.727 287.852 323.162 288.167 323.488C288.482 323.813 288.911 324.004 289.363 324.02ZM294.115 313.687C294.567 313.671 294.996 313.481 295.311 313.155C295.626 312.829 295.802 312.394 295.802 311.942C295.802 311.489 295.626 311.054 295.311 310.729C294.996 310.403 294.567 310.212 294.115 310.196C293.662 310.212 293.233 310.403 292.918 310.729C292.604 311.054 292.428 311.489 292.428 311.942C292.428 312.394 292.604 312.829 292.918 313.155C293.233 313.481 293.662 313.671 294.115 313.687ZM271.756 302.517C272.208 302.501 272.637 302.31 272.952 301.985C273.267 301.659 273.443 301.224 273.443 300.771C273.443 300.319 273.267 299.884 272.952 299.558C272.637 299.233 272.208 299.042 271.756 299.026C271.303 299.042 270.874 299.233 270.559 299.558C270.245 299.884 270.069 300.319 270.069 300.771C270.069 301.224 270.245 301.659 270.559 301.985C270.874 302.31 271.303 302.501 271.756 302.517ZM253.868 304.472C254.321 304.456 254.75 304.265 255.065 303.939C255.379 303.614 255.555 303.179 255.555 302.726C255.555 302.274 255.379 301.839 255.065 301.513C254.75 301.187 254.321 300.997 253.868 300.981C253.416 300.997 252.987 301.187 252.672 301.513C252.357 301.839 252.181 302.274 252.181 302.726C252.181 303.179 252.357 303.614 252.672 303.939C252.987 304.265 253.416 304.456 253.868 304.472ZM260.856 293.86C261.308 293.844 261.737 293.653 262.052 293.327C262.367 293.002 262.542 292.567 262.542 292.114C262.542 291.662 262.367 291.227 262.052 290.901C261.737 290.575 261.308 290.385 260.856 290.369C260.403 290.385 259.974 290.575 259.659 290.901C259.345 291.227 259.169 291.662 259.169 292.114C259.169 292.567 259.345 293.002 259.659 293.327C259.974 293.653 260.403 293.844 260.856 293.86ZM280.14 291.905C280.593 291.889 281.022 291.698 281.337 291.373C281.651 291.047 281.827 290.612 281.827 290.159C281.827 289.707 281.651 289.272 281.337 288.946C281.022 288.621 280.593 288.43 280.14 288.414C279.688 288.43 279.259 288.621 278.944 288.946C278.629 289.272 278.453 289.707 278.453 290.159C278.453 290.612 278.629 291.047 278.944 291.373C279.259 291.698 279.688 291.889 280.14 291.905ZM291.599 297.211C292.052 297.195 292.481 297.004 292.796 296.679C293.11 296.353 293.286 295.918 293.286 295.465C293.286 295.013 293.11 294.578 292.796 294.252C292.481 293.927 292.052 293.736 291.599 293.72C291.147 293.736 290.718 293.927 290.403 294.252C290.088 294.578 289.912 295.013 289.912 295.465C289.912 295.918 290.088 296.353 290.403 296.679C290.718 297.004 291.147 297.195 291.599 297.211ZM285.451 279.617C285.903 279.602 286.332 279.411 286.647 279.085C286.962 278.76 287.137 278.325 287.137 277.872C287.137 277.419 286.962 276.984 286.647 276.659C286.332 276.333 285.903 276.142 285.451 276.127C284.998 276.142 284.569 276.333 284.254 276.659C283.94 276.984 283.764 277.419 283.764 277.872C283.764 278.325 283.94 278.76 284.254 279.085C284.569 279.411 284.998 279.602 285.451 279.617ZM268.681 281.572C269.134 281.556 269.563 281.366 269.878 281.04C270.192 280.714 270.368 280.279 270.368 279.827C270.368 279.374 270.192 278.939 269.878 278.614C269.563 278.288 269.134 278.097 268.681 278.081C268.229 278.097 267.8 278.288 267.485 278.614C267.17 278.939 266.994 279.374 266.994 279.827C266.994 280.279 267.17 280.714 267.485 281.04C267.8 281.366 268.229 281.556 268.681 281.572ZM254.427 281.851C254.88 281.836 255.309 281.645 255.624 281.319C255.938 280.994 256.114 280.559 256.114 280.106C256.114 279.653 255.938 279.218 255.624 278.893C255.309 278.567 254.88 278.376 254.427 278.361C253.975 278.376 253.546 278.567 253.231 278.893C252.916 279.218 252.74 279.653 252.74 280.106C252.74 280.559 252.916 280.994 253.231 281.319C253.546 281.645 253.975 281.836 254.427 281.851ZM258.62 270.681C259.072 270.665 259.501 270.474 259.816 270.149C260.131 269.823 260.307 269.388 260.307 268.936C260.307 268.483 260.131 268.048 259.816 267.722C259.501 267.397 259.072 267.206 258.62 267.19C258.167 267.206 257.738 267.397 257.423 267.722C257.109 268.048 256.933 268.483 256.933 268.936C256.933 269.388 257.109 269.823 257.423 270.149C257.738 270.474 258.167 270.665 258.62 270.681ZM274.55 268.726C275.003 268.71 275.432 268.52 275.747 268.194C276.062 267.868 276.237 267.433 276.237 266.981C276.237 266.528 276.062 266.093 275.747 265.768C275.432 265.442 275.003 265.251 274.55 265.235C274.098 265.251 273.669 265.442 273.354 265.768C273.039 266.093 272.864 266.528 272.864 266.981C272.864 267.433 273.039 267.868 273.354 268.194C273.669 268.52 274.098 268.71 274.55 268.726ZM243.248 270.96C243.7 270.944 244.129 270.754 244.444 270.428C244.759 270.102 244.935 269.668 244.935 269.215C244.935 268.762 244.759 268.327 244.444 268.002C244.129 267.676 243.7 267.485 243.248 267.469C242.795 267.485 242.366 267.676 242.051 268.002C241.737 268.327 241.561 268.762 241.561 269.215C241.561 269.668 241.737 270.102 242.051 270.428C242.366 270.754 242.795 270.944 243.248 270.96ZM251.073 260.907C251.526 260.891 251.955 260.7 252.27 260.375C252.584 260.049 252.76 259.614 252.76 259.161C252.76 258.709 252.584 258.274 252.27 257.948C251.955 257.623 251.526 257.432 251.073 257.416C250.621 257.432 250.192 257.623 249.877 257.948C249.562 258.274 249.387 258.709 249.387 259.161C249.387 259.614 249.562 260.049 249.877 260.375C250.192 260.7 250.621 260.891 251.073 260.907ZM265.607 261.186C266.06 261.17 266.489 260.98 266.803 260.654C267.118 260.328 267.294 259.893 267.294 259.441C267.294 258.988 267.118 258.553 266.803 258.228C266.489 257.902 266.06 257.711 265.607 257.695C265.154 257.711 264.725 257.902 264.411 258.228C264.096 258.553 263.92 258.988 263.92 259.441C263.92 259.893 264.096 260.328 264.411 260.654C264.725 260.98 265.154 261.17 265.607 261.186ZM280.699 258.393C281.152 258.378 281.581 258.187 281.896 257.861C282.21 257.536 282.386 257.101 282.386 256.648C282.386 256.195 282.21 255.761 281.896 255.435C281.581 255.109 281.152 254.919 280.699 254.903C280.247 254.919 279.818 255.109 279.503 255.435C279.188 255.761 279.012 256.195 279.012 256.648C279.012 257.101 279.188 257.536 279.503 257.861C279.818 258.187 280.247 258.378 280.699 258.393ZM290.202 265.934C290.655 265.918 291.084 265.727 291.398 265.401C291.713 265.076 291.889 264.641 291.889 264.188C291.889 263.736 291.713 263.301 291.398 262.975C291.084 262.649 290.655 262.459 290.202 262.443C289.749 262.459 289.32 262.649 289.006 262.975C288.691 263.301 288.515 263.736 288.515 264.188C288.515 264.641 288.691 265.076 289.006 265.401C289.32 265.727 289.749 265.918 290.202 265.934ZM293.835 286.32C294.288 286.304 294.717 286.113 295.032 285.787C295.346 285.462 295.522 285.027 295.522 284.574C295.522 284.122 295.346 283.687 295.032 283.361C294.717 283.035 294.288 282.845 293.835 282.829C293.382 282.845 292.954 283.035 292.639 283.361C292.324 283.687 292.148 284.122 292.148 284.574C292.148 285.027 292.324 285.462 292.639 285.787C292.954 286.113 293.382 286.304 293.835 286.32ZM271.476 250.295C271.929 250.279 272.358 250.088 272.672 249.763C272.987 249.437 273.163 249.002 273.163 248.55C273.163 248.097 272.987 247.662 272.672 247.336C272.358 247.011 271.929 246.82 271.476 246.804C271.023 246.82 270.594 247.011 270.28 247.336C269.965 247.662 269.789 248.097 269.789 248.55C269.789 249.002 269.965 249.437 270.28 249.763C270.594 250.088 271.023 250.279 271.476 250.295ZM256.943 250.016C257.395 250 257.824 249.809 258.139 249.483C258.454 249.158 258.63 248.723 258.63 248.27C258.63 247.818 258.454 247.383 258.139 247.057C257.824 246.731 257.395 246.541 256.943 246.525C256.49 246.541 256.061 246.731 255.746 247.057C255.432 247.383 255.256 247.818 255.256 248.27C255.256 248.723 255.432 249.158 255.746 249.483C256.061 249.809 256.49 250 256.943 250.016ZM240.453 253.087C240.906 253.072 241.335 252.881 241.649 252.555C241.964 252.23 242.14 251.795 242.14 251.342C242.14 250.89 241.964 250.455 241.649 250.129C241.335 249.803 240.906 249.613 240.453 249.597C240 249.613 239.571 249.803 239.257 250.129C238.942 250.455 238.766 250.89 238.766 251.342C238.766 251.795 238.942 252.23 239.257 252.555C239.571 252.881 240 253.072 240.453 253.087ZM247.161 244.43C247.613 244.415 248.042 244.224 248.357 243.898C248.672 243.573 248.848 243.138 248.848 242.685C248.848 242.232 248.672 241.797 248.357 241.472C248.042 241.146 247.613 240.955 247.161 240.94C246.708 240.955 246.279 241.146 245.964 241.472C245.65 241.797 245.474 242.232 245.474 242.685C245.474 243.138 245.65 243.573 245.964 243.898C246.279 244.224 246.708 244.415 247.161 244.43ZM262.812 240.8C263.265 240.784 263.694 240.593 264.008 240.268C264.323 239.942 264.499 239.507 264.499 239.055C264.499 238.602 264.323 238.167 264.008 237.841C263.694 237.516 263.265 237.325 262.812 237.309C262.359 237.325 261.93 237.516 261.616 237.841C261.301 238.167 261.125 238.602 261.125 239.055C261.125 239.507 261.301 239.942 261.616 240.268C261.93 240.593 262.359 240.784 262.812 240.8ZM278.184 238.007C278.637 237.992 279.066 237.801 279.38 237.475C279.695 237.15 279.871 236.715 279.871 236.262C279.871 235.809 279.695 235.374 279.38 235.049C279.066 234.723 278.637 234.532 278.184 234.517C277.731 234.532 277.302 234.723 276.988 235.049C276.673 235.374 276.497 235.809 276.497 236.262C276.497 236.715 276.673 237.15 276.988 237.475C277.302 237.801 277.731 237.992 278.184 238.007ZM282.656 244.151C283.108 244.135 283.537 243.945 283.852 243.619C284.167 243.293 284.343 242.858 284.343 242.406C284.343 241.953 284.167 241.518 283.852 241.193C283.537 240.867 283.108 240.676 282.656 240.66C282.203 240.676 281.774 240.867 281.459 241.193C281.145 241.518 280.969 241.953 280.969 242.406C280.969 242.858 281.145 243.293 281.459 243.619C281.774 243.945 282.203 244.135 282.656 244.151ZM287.407 250.016C287.86 250 288.289 249.809 288.603 249.483C288.918 249.158 289.094 248.723 289.094 248.27C289.094 247.818 288.918 247.383 288.603 247.057C288.289 246.731 287.86 246.541 287.407 246.525C286.954 246.541 286.525 246.731 286.211 247.057C285.896 247.383 285.72 247.818 285.72 248.27C285.72 248.723 285.896 249.158 286.211 249.483C286.525 249.809 286.954 250 287.407 250.016ZM253.03 235.215C253.483 235.199 253.912 235.008 254.226 234.683C254.541 234.357 254.717 233.922 254.717 233.469C254.717 233.017 254.541 232.582 254.226 232.256C253.912 231.931 253.483 231.74 253.03 231.724C252.577 231.74 252.148 231.931 251.834 232.256C251.519 232.582 251.343 233.017 251.343 233.469C251.343 233.922 251.519 234.357 251.834 234.683C252.148 235.008 252.577 235.199 253.03 235.215ZM235.702 237.449C236.154 237.433 236.583 237.242 236.898 236.917C237.213 236.591 237.388 236.156 237.388 235.703C237.388 235.251 237.213 234.816 236.898 234.49C236.583 234.165 236.154 233.974 235.702 233.958C235.249 233.974 234.82 234.165 234.505 234.49C234.191 234.816 234.015 235.251 234.015 235.703C234.015 236.156 234.191 236.591 234.505 236.917C234.82 237.242 235.249 237.433 235.702 237.449ZM268.961 231.864C269.413 231.848 269.842 231.657 270.157 231.331C270.472 231.006 270.648 230.571 270.648 230.118C270.648 229.666 270.472 229.231 270.157 228.905C269.842 228.579 269.413 228.389 268.961 228.373C268.508 228.389 268.079 228.579 267.764 228.905C267.45 229.231 267.274 229.666 267.274 230.118C267.274 230.571 267.45 231.006 267.764 231.331C268.079 231.657 268.508 231.848 268.961 231.864ZM281.258 229.909C281.711 229.893 282.14 229.702 282.455 229.377C282.769 229.051 282.945 228.616 282.945 228.163C282.945 227.711 282.769 227.276 282.455 226.95C282.14 226.625 281.711 226.434 281.258 226.418C280.806 226.434 280.377 226.625 280.062 226.95C279.747 227.276 279.571 227.711 279.571 228.163C279.571 228.616 279.747 229.051 280.062 229.377C280.377 229.702 280.806 229.893 281.258 229.909ZM218.653 243.872C219.105 243.856 219.534 243.665 219.849 243.34C220.164 243.014 220.34 242.579 220.34 242.127C220.34 241.674 220.164 241.239 219.849 240.913C219.534 240.588 219.105 240.397 218.653 240.381C218.2 240.397 217.771 240.588 217.456 240.913C217.142 241.239 216.966 241.674 216.966 242.127C216.966 242.579 217.142 243.014 217.456 243.34C217.771 243.665 218.2 243.856 218.653 243.872ZM227.317 250.016C227.77 250 228.199 249.809 228.513 249.483C228.828 249.158 229.004 248.723 229.004 248.27C229.004 247.818 228.828 247.383 228.513 247.057C228.199 246.731 227.77 246.541 227.317 246.525C226.864 246.541 226.435 246.731 226.121 247.057C225.806 247.383 225.63 247.818 225.63 248.27C225.63 248.723 225.806 249.158 226.121 249.483C226.435 249.809 226.864 250 227.317 250.016ZM223.125 259.231C223.577 259.215 224.006 259.025 224.321 258.699C224.636 258.373 224.811 257.939 224.811 257.486C224.811 257.033 224.636 256.598 224.321 256.273C224.006 255.947 223.577 255.756 223.125 255.741C222.672 255.756 222.243 255.947 221.928 256.273C221.614 256.598 221.438 257.033 221.438 257.486C221.438 257.939 221.614 258.373 221.928 258.699C222.243 259.025 222.672 259.215 223.125 259.231ZM228.435 269.285C228.888 269.269 229.317 269.078 229.631 268.752C229.946 268.427 230.122 267.992 230.122 267.539C230.122 267.087 229.946 266.652 229.631 266.326C229.317 266.001 228.888 265.81 228.435 265.794C227.982 265.81 227.553 266.001 227.239 266.326C226.924 266.652 226.748 267.087 226.748 267.539C226.748 267.992 226.924 268.427 227.239 268.752C227.553 269.078 227.982 269.269 228.435 269.285ZM224.802 277.383C225.254 277.367 225.683 277.177 225.998 276.851C226.313 276.525 226.488 276.091 226.488 275.638C226.488 275.185 226.313 274.75 225.998 274.425C225.683 274.099 225.254 273.908 224.802 273.892C224.349 273.908 223.92 274.099 223.605 274.425C223.29 274.75 223.115 275.185 223.115 275.638C223.115 276.091 223.29 276.525 223.605 276.851C223.92 277.177 224.349 277.367 224.802 277.383ZM209.43 259.51C209.882 259.495 210.311 259.304 210.626 258.978C210.941 258.653 211.117 258.218 211.117 257.765C211.117 257.313 210.941 256.878 210.626 256.552C210.311 256.226 209.882 256.036 209.43 256.02C208.977 256.036 208.548 256.226 208.233 256.552C207.919 256.878 207.743 257.313 207.743 257.765C207.743 258.218 207.919 258.653 208.233 258.978C208.548 259.304 208.977 259.495 209.43 259.51ZM212.225 273.474C212.677 273.458 213.106 273.267 213.421 272.941C213.736 272.616 213.911 272.181 213.911 271.728C213.911 271.276 213.736 270.841 213.421 270.515C213.106 270.189 212.677 269.999 212.225 269.983C211.772 269.999 211.343 270.189 211.028 270.515C210.713 270.841 210.538 271.276 210.538 271.728C210.538 272.181 210.713 272.616 211.028 272.941C211.343 273.267 211.772 273.458 212.225 273.474ZM235.422 280.455C235.875 280.439 236.304 280.249 236.618 279.923C236.933 279.597 237.109 279.162 237.109 278.71C237.109 278.257 236.933 277.822 236.618 277.497C236.304 277.171 235.875 276.98 235.422 276.964C234.969 276.98 234.54 277.171 234.226 277.497C233.911 277.822 233.735 278.257 233.735 278.71C233.735 279.162 233.911 279.597 234.226 279.923C234.54 280.249 234.969 280.439 235.422 280.455ZM227.037 288.274C227.49 288.259 227.919 288.068 228.234 287.742C228.548 287.417 228.724 286.982 228.724 286.529C228.724 286.076 228.548 285.641 228.234 285.316C227.919 284.99 227.49 284.799 227.037 284.784C226.585 284.799 226.156 284.99 225.841 285.316C225.526 285.641 225.35 286.076 225.35 286.529C225.35 286.982 225.526 287.417 225.841 287.742C226.156 288.068 226.585 288.259 227.037 288.274ZM238.776 291.067C239.229 291.051 239.658 290.86 239.972 290.535C240.287 290.209 240.463 289.774 240.463 289.322C240.463 288.869 240.287 288.434 239.972 288.108C239.658 287.783 239.229 287.592 238.776 287.576C238.323 287.592 237.894 287.783 237.58 288.108C237.265 288.434 237.089 288.869 237.089 289.322C237.089 289.774 237.265 290.209 237.58 290.535C237.894 290.86 238.323 291.051 238.776 291.067ZM231.789 296.373C232.241 296.357 232.67 296.166 232.985 295.841C233.3 295.515 233.476 295.08 233.476 294.628C233.476 294.175 233.3 293.74 232.985 293.414C232.67 293.089 232.241 292.898 231.789 292.882C231.336 292.898 230.907 293.089 230.592 293.414C230.278 293.74 230.102 294.175 230.102 294.628C230.102 295.08 230.278 295.515 230.592 295.841C230.907 296.166 231.336 296.357 231.789 296.373ZM170.272 95.834C170.256 96.4809 169.987 97.0958 169.522 97.5464C169.065 98.0025 168.538 98.382 167.961 98.6704C166.828 99.2502 165.606 99.6369 164.345 99.8147C163.696 99.9101 163.033 99.8763 162.397 99.7152C161.76 99.5541 161.162 99.2688 160.636 98.8759C160.106 98.4854 159.679 97.9733 159.389 97.3828C159.1 96.7923 158.957 96.1408 158.973 95.4835C159.031 95.1114 159.209 94.7683 159.479 94.5054C159.73 94.2692 160.017 94.074 160.329 93.9269C160.918 93.631 161.502 93.4169 162.066 93.1897C162.62 92.9726 163.156 92.7119 163.669 92.4101C163.919 92.2604 164.154 92.0958 164.389 91.9308C164.666 91.7322 164.956 91.5532 165.257 91.3949C165.903 91.0551 166.646 90.9456 167.362 91.0844C168.058 91.2504 168.669 91.6622 169.084 92.2436C169.823 93.2985 170.236 94.5469 170.272 95.834ZM170.176 95.834C170.095 94.6162 169.537 93.4795 168.622 92.6709C168.244 92.2996 167.755 92.0629 167.229 91.9972C166.703 91.9315 166.17 92.0406 165.713 92.3076C165.468 92.4218 165.245 92.6007 165.001 92.7466C164.735 92.9431 164.454 93.1201 164.162 93.2762C163.59 93.5749 162.995 93.8276 162.383 94.032C161.789 94.2449 161.189 94.4039 160.646 94.6168C160.103 94.8342 159.622 95.0906 159.487 95.5839C159.4 96.1648 159.479 96.7584 159.714 97.2965C159.95 97.8345 160.333 98.2952 160.819 98.6256C161.323 98.929 161.886 99.122 162.471 99.1918C163.055 99.2615 163.648 99.2064 164.21 99.0302C165.362 98.7381 166.575 98.4381 167.729 98.1163C168.309 97.9565 168.859 97.7012 169.355 97.3608C169.603 97.1897 169.807 96.962 169.95 96.6965C170.093 96.431 170.17 96.1354 170.176 95.834ZM161.569 76.2813C161.556 76.8176 161.435 77.3458 161.212 77.8339C160.989 78.3219 160.669 78.7597 160.272 79.1207C159.484 79.854 158.583 80.4545 157.602 80.8988C155.663 81.7923 153.612 82.4182 151.504 82.7592C150.432 82.9488 149.333 82.9221 148.272 82.6806C147.21 82.4391 146.208 81.9876 145.324 81.3529C144.44 80.713 143.73 79.863 143.258 78.8798C142.786 77.8966 142.566 76.8112 142.62 75.7219C142.724 75.138 143.015 74.6036 143.449 74.1988C143.868 73.8259 144.341 73.5186 144.851 73.2873C145.833 72.8143 146.829 72.4706 147.797 72.0902C148.757 71.726 149.686 71.2867 150.576 70.7764C151.016 70.523 151.428 70.2352 151.839 69.9459C152.292 69.6234 152.765 69.3311 153.256 69.071C154.283 68.5217 155.465 68.3353 156.611 68.5421C157.73 68.7972 158.726 69.4334 159.428 70.3416C160.106 71.1852 160.627 72.1443 160.964 73.1729C161.325 74.1717 161.529 75.2202 161.569 76.2813ZM161.473 76.2813C161.426 75.2379 161.169 74.2146 160.718 73.2726C160.296 72.3353 159.701 71.4858 158.965 70.7687C158.28 70.0818 157.401 69.6211 156.446 69.4483C155.501 69.3256 154.541 69.5135 153.712 69.9837C153.278 70.22 152.857 70.4797 152.451 70.7617C152.01 71.0852 151.549 71.3794 151.069 71.6424C150.12 72.1497 149.131 72.5811 148.113 72.9324C147.117 73.2983 146.104 73.5873 145.167 73.9773C144.71 74.1589 144.278 74.3979 143.881 74.6885C143.516 74.9758 143.254 75.3736 143.134 75.8223C143.014 76.8346 143.171 77.8606 143.589 78.7905C144.007 79.7205 144.67 80.5196 145.507 81.1026C146.37 81.6477 147.336 82.0069 148.346 82.1571C149.355 82.3073 150.385 82.2451 151.369 81.9747C153.365 81.5117 155.416 80.9877 157.371 80.3447C158.354 80.0292 159.278 79.5529 160.105 78.9351C160.52 78.6261 160.859 78.2264 161.096 77.7665C161.333 77.3066 161.462 76.7986 161.473 76.2813ZM157.302 49.9176C157.61 50.6637 157.763 51.4644 157.752 52.2713C157.722 53.0853 157.469 53.8754 157.022 54.556C156.083 55.8706 154.858 56.9551 153.439 57.7277C150.637 59.2836 147.701 60.5851 144.667 61.6164C141.67 62.732 138.635 63.7162 135.646 64.8108C134.153 65.363 132.659 65.9061 131.185 66.4947C129.696 67.0777 128.19 67.6591 126.648 68.1165C123.57 69.1007 120.354 69.5901 117.122 69.5664C113.85 69.6041 110.674 68.4533 108.187 66.328C105.891 64.0216 104.444 61.0067 104.082 57.7739C103.629 54.5859 103.669 51.3472 104.201 48.1713C104.947 45.0289 106.201 42.0287 107.912 39.2883C109.579 36.5218 111.61 33.9909 113.951 31.763C116.296 29.5116 119.01 27.6777 121.974 26.3405C124.966 25.0088 128.219 24.3676 131.493 24.4647C134.768 24.5186 137.986 25.3321 140.893 26.8411C143.753 28.3919 146.268 30.505 148.288 33.053C150.286 35.5653 152.006 38.2859 153.419 41.1674C154.862 44.0194 156.137 46.9478 157.302 49.9176ZM157.213 49.9533C154.802 44.078 152.005 38.2222 147.809 33.4609C145.758 31.0748 143.269 29.1028 140.477 27.6513C137.674 26.2562 134.594 25.5043 131.462 25.4504C125.189 25.2452 119.145 28.1416 114.565 32.4207C112.261 34.5783 110.235 37.0155 108.536 39.6754C106.804 42.3187 105.512 45.2255 104.713 48.2825C104.104 51.3929 104.003 54.5813 104.414 57.724C104.622 59.2927 105.047 60.8249 105.678 62.2763C106.316 63.7204 107.246 65.0168 108.41 66.0835C110.841 68.1298 113.956 69.1836 117.131 69.0341C120.293 68.9605 123.424 68.3957 126.412 67.36C129.426 66.4373 132.315 65.0198 135.368 64.0303C138.392 62.9866 141.435 62.0209 144.469 61.0493C147.518 60.1401 150.478 58.956 153.312 57.5118C154.732 56.8005 155.958 55.7579 156.888 54.4722C157.331 53.8178 157.587 53.0545 157.626 52.2653C157.646 51.4747 157.505 50.6883 157.213 49.9533Z" fill="white"/>
</svg>
