<svg width="412" height="302" viewBox="0 0 412 302" fill="none" xmlns="http://www.w3.org/2000/svg">
<path d="M304.833 194.726C304.674 194.726 304.516 194.717 304.357 194.707C304.824 191.96 305.31 189.203 305.954 186.436C306.571 189.1 307.047 191.745 307.496 194.399C306.623 194.606 305.73 194.716 304.833 194.726ZM307.842 196.427C307.823 198.015 307.823 199.604 307.823 201.193C307.823 202.931 307.832 204.679 307.823 206.417V256.35C307.253 259.686 306.702 263.013 305.954 266.34C305.207 263.013 304.656 259.686 304.086 256.35V201.427C304.086 199.763 304.086 198.09 304.067 196.427C304.133 196.053 304.189 195.688 304.254 195.315C305.379 195.447 306.517 195.425 307.636 195.249C307.711 195.642 307.776 196.034 307.842 196.427ZM244.432 111.981C244.432 111.981 244.628 112.327 245.011 112.869L244.992 112.888L242.245 115.831C241.124 116.626 240.003 117.42 238.798 118.13C239.433 116.887 240.153 115.719 240.863 114.542L242.946 112.327C243.853 112.14 244.432 111.981 244.432 111.981ZM260.847 94.5986C260.203 95.8323 259.483 97.0098 258.773 98.178L256.017 101.122L255.512 101.654C254.84 101.43 254.153 101.252 253.457 101.122L254.653 99.8415L257.409 96.8976C258.53 96.1125 259.651 95.3276 260.847 94.5986Z" fill="white"/>
<path d="M291.387 117.239C291.532 116.915 291.755 116.633 292.036 116.416C292.246 116.258 292.493 116.154 292.754 116.116C293.015 116.08 293.28 116.113 293.525 116.21C293.852 116.342 294.141 116.554 294.364 116.828H294.367L294.378 116.845L294.367 116.862H294.369C294.225 117.184 294.001 117.465 293.718 117.677C293.508 117.834 293.26 117.935 292.999 117.968C292.737 117.999 292.472 117.964 292.227 117.865C291.9 117.729 291.611 117.514 291.387 117.239ZM253.329 122.296L232.886 124.824C226.071 125.661 219.254 126.475 212.434 127.267C198.792 128.834 185.161 130.495 171.51 131.972L130.568 136.514L89.6035 140.841L89.5984 140.842C89.4853 140.853 89.371 140.841 89.2627 140.807C83.4222 138.913 77.5754 137.04 71.7512 135.096L54.2628 129.313C48.4294 127.397 42.6056 125.452 36.7915 123.476L19.3481 117.552L36.988 122.862C42.8677 124.633 48.7383 126.432 54.5999 128.259L72.1946 133.71C78.0647 135.511 83.9124 137.382 89.7663 139.233L89.4257 139.198L130.368 134.664L171.334 130.344C184.985 128.868 198.656 127.574 212.317 126.188C219.147 125.492 225.981 124.83 232.819 124.2L253.329 122.296Z" fill="white"/>
<path d="M19.3455 126.261C25.1341 128.276 30.8863 130.388 36.6557 132.454L53.9058 138.804L62.5272 141.989L71.1208 145.246L88.3081 151.759L87.8692 151.707C96.06 150.6 104.267 149.621 112.468 148.593L137.077 145.556L161.707 142.685C169.924 141.783 178.137 140.846 186.363 140.017C178.193 141.286 170.009 142.446 161.83 143.643L137.27 147.066L112.689 150.322C104.494 151.392 96.3045 152.512 88.099 153.503L88.0887 153.505C87.9434 153.522 87.7962 153.503 87.6596 153.45L70.5277 146.792L61.9618 143.463L53.4234 140.062L36.3542 133.24C30.6839 130.915 24.9963 128.636 19.3455 126.261Z" fill="white"/>
<path d="M87.2883 236.298C87.1129 228.266 87.0564 220.237 87.1188 212.211C87.1553 204.184 87.3011 196.16 87.468 188.136C87.6697 180.113 87.895 172.09 88.2292 164.07C88.5367 156.049 88.9651 148.032 89.5145 140.017C89.6922 148.048 89.7497 156.077 89.687 164.104C89.6498 172.131 89.504 180.155 89.3347 188.179C89.1306 196.202 88.9055 204.225 88.5708 212.245C88.2625 220.265 87.835 228.283 87.2883 236.298Z" fill="white"/>
<path d="M337.89 53.5125C336.74 52.9985 335.685 52.2948 334.769 51.4308C333.861 50.5409 333.076 49.5342 332.433 48.4371C331.803 47.334 331.281 46.1722 330.876 44.9681C330.467 43.7513 330.172 42.4991 329.995 41.2276C329.988 41.1694 329.989 41.1104 330 41.0527L330.02 40.9477C330.308 39.6413 330.456 38.308 330.461 36.9702C330.471 35.6381 330.331 34.3092 330.043 33.0086C329.47 30.4165 328.393 27.9624 326.873 25.786L326.975 25.8939C325.359 24.3482 323.559 23.0069 321.615 21.9004C319.642 20.8174 317.5 20.0768 315.28 19.7101C310.725 19.1346 306.105 20.0423 302.106 22.2986C301.101 22.8367 300.131 23.4394 299.204 24.1028C298.742 24.4332 298.288 24.7752 297.851 25.1314C297.646 25.3007 297.389 25.5111 297.252 25.6537C297.079 25.841 296.9 26.0596 296.729 26.2715C295.391 28.0535 294.384 30.0609 293.755 32.1984C293.123 34.3252 292.791 36.5301 292.769 38.7489C292.791 40.9751 293.059 43.1921 293.565 45.3601C293.598 45.515 293.601 45.6748 293.573 45.8308C293.361 46.9994 293.133 48.1425 292.875 49.2974C292.628 50.4739 292.315 51.6356 291.938 52.7771C291.762 53.3115 291.343 54.2444 291.437 54.0503C291.398 53.9834 291.458 54.1587 291.788 54.3886C292.537 54.8446 293.392 55.0969 294.268 55.1208L294.357 55.1174C294.553 55.1106 294.748 55.1519 294.924 55.2376C295.101 55.3234 295.253 55.4511 295.369 55.6095C296.679 57.4225 298.063 59.2103 299.437 60.9811C300.776 62.7394 302.228 64.4079 303.785 65.976C303.978 66.151 304.17 66.3159 304.358 66.4595C304.447 66.5222 304.541 66.5895 304.618 66.6358L304.722 66.6938C304.753 66.7104 304.746 66.6988 304.758 66.7122C304.795 66.7328 304.677 66.6924 304.644 66.7252C304.616 66.7426 304.737 66.7061 304.776 66.6995C304.898 66.6737 305.019 66.6418 305.138 66.6036C305.384 66.5352 305.638 66.4451 305.89 66.36C306.913 65.983 307.904 65.5246 308.854 64.989C310.798 63.9884 312.472 62.532 313.731 60.7443L313.761 60.6973C313.787 60.6578 313.82 60.6237 313.858 60.597C313.897 60.5702 313.94 60.5513 313.986 60.5414C314.032 60.5314 314.079 60.5306 314.125 60.5389C314.171 60.5473 314.216 60.5647 314.255 60.59L314.294 60.6188C314.853 61.0919 315.373 61.6093 315.849 62.1659C316.091 62.4443 316.307 62.7437 316.495 63.0606C316.699 63.3786 316.838 63.7331 316.907 64.1044C316.911 64.1332 316.904 64.1625 316.887 64.1865C316.871 64.2105 316.846 64.2275 316.818 64.234C316.79 64.2406 316.76 64.2363 316.734 64.222C316.709 64.2076 316.69 64.1843 316.681 64.1566L316.679 64.1498C316.413 63.5184 315.998 62.9606 315.471 62.5235C314.962 62.0505 314.417 61.6189 313.84 61.2328L314.402 61.1073C313.275 63.1965 311.622 64.9552 309.606 66.2092C308.627 66.8643 307.596 67.4392 306.524 67.9284C306.247 68.0452 305.977 68.1693 305.682 68.2695C305.54 68.3236 305.39 68.3737 305.23 68.4185C305.138 68.4496 305.045 68.4734 304.949 68.4897C304.772 68.5176 304.591 68.5152 304.415 68.4826C304.016 68.3898 303.638 68.2205 303.303 67.9843C303.028 67.8004 302.779 67.6099 302.541 67.4171C300.8 65.8753 299.183 64.1989 297.706 62.4032C296.207 60.6681 294.808 58.8777 293.41 57.0558L294.511 57.5441C293.778 57.5901 293.043 57.5104 292.337 57.3084C291.642 57.1299 290.983 56.8349 290.386 56.4361C290.021 56.1939 289.702 55.887 289.446 55.5306C289.113 55.0777 288.943 54.5257 288.964 53.964C288.97 53.6897 289.025 53.4187 289.127 53.1639L289.258 52.834L289.329 52.6754C289.426 52.4723 289.518 52.2136 289.606 51.9667C290.292 49.8102 290.861 47.6179 291.31 45.3996L291.318 45.8698C290.836 43.5109 290.616 41.1058 290.663 38.6985C290.76 36.2803 291.234 33.8921 292.068 31.6203C292.272 31.0533 292.532 30.5059 292.772 29.9552C293.062 29.4249 293.305 28.8739 293.633 28.3667C294.24 27.3245 294.952 26.3471 295.757 25.4494C295.966 25.2251 296.167 25.0066 296.403 24.7846C296.641 24.5805 296.89 24.3889 297.149 24.2108C297.633 23.866 298.127 23.5422 298.628 23.2319C299.629 22.6088 300.674 22.0679 301.727 21.5504C305.954 19.4234 310.67 18.4589 315.392 18.7557C317.776 18.956 320.11 19.5542 322.296 20.5255C324.486 21.5133 326.516 22.8242 328.318 24.4145C328.352 24.4444 328.384 24.4771 328.412 24.5124L328.42 24.5227C329.343 25.7041 330.111 26.999 330.704 28.3756C331.305 29.728 331.746 31.1455 332.02 32.5995C332.321 34.0505 332.436 35.534 332.361 37.014C332.295 38.4883 332.065 39.9507 331.674 41.3739L331.699 41.0944C331.788 42.2623 331.983 43.4197 332.281 44.5522C332.571 45.7013 332.963 46.822 333.453 47.9007C333.951 48.9779 334.579 49.9899 335.323 50.914C336.092 51.8392 336.993 52.6455 337.997 53.3067L338.004 53.3118C338.028 53.3283 338.045 53.3531 338.052 53.3814C338.058 53.4098 338.054 53.4395 338.039 53.4647C338.025 53.49 338.002 53.5089 337.974 53.5177C337.946 53.5266 337.916 53.5247 337.89 53.5125Z" fill="white"/>
<path d="M295.643 52.2035C295.441 52.2038 295.243 52.1513 295.068 52.0513C294.892 51.9512 294.746 51.807 294.644 51.6331L291.443 46.2047C291.365 46.0735 291.314 45.9282 291.292 45.7772C291.271 45.6262 291.279 45.4723 291.317 45.3245C291.355 45.1767 291.421 45.0379 291.513 44.9159C291.605 44.7939 291.719 44.6912 291.851 44.6136C291.982 44.5361 292.127 44.4852 292.278 44.464C292.43 44.4427 292.583 44.4514 292.731 44.4897C292.879 44.528 293.017 44.595 293.139 44.6869C293.261 44.7789 293.363 44.8939 293.44 45.0255L296.641 50.4539C296.745 50.63 296.8 50.8305 296.802 51.035C296.803 51.2394 296.751 51.4407 296.65 51.6183C296.548 51.796 296.402 51.9436 296.225 52.0464C296.048 52.1492 295.848 52.2034 295.643 52.2035Z" fill="white"/>
<path d="M293.145 47.3865C293.021 47.3864 292.901 47.3469 292.802 47.2739C292.703 47.2008 292.629 47.098 292.592 46.9803C292.555 46.8626 292.556 46.7362 292.596 46.6193C292.636 46.5025 292.712 46.4014 292.813 46.3306C294.495 45.1569 309.347 34.887 312.506 35.0139C312.582 35.0173 312.656 35.0357 312.725 35.0681C312.794 35.1004 312.856 35.146 312.908 35.2023C312.959 35.2586 312.999 35.3244 313.025 35.396C313.051 35.4677 313.062 35.5437 313.059 35.6198C313.049 35.7728 312.981 35.9161 312.868 36.0194C312.755 36.1227 312.606 36.1778 312.453 36.1729C312.439 36.172 312.424 36.172 312.409 36.172C310.22 36.172 299.663 42.9657 293.476 47.2816C293.379 47.3496 293.263 47.3863 293.145 47.3865Z" fill="white"/>
<path d="M310.81 38.3775C310.789 37.5114 311.068 36.6648 311.598 35.98C311.758 35.7938 311.954 35.6417 312.174 35.5325C312.394 35.4233 312.633 35.3593 312.878 35.3443L313.251 35.3384C313.371 35.3521 313.482 35.3865 313.599 35.4114C313.827 35.4553 314.047 35.5324 314.252 35.6402C314.655 35.8246 315.036 36.0539 315.387 36.3238C315.708 36.607 316.046 36.8646 316.353 37.1742C316.967 37.8008 317.474 38.5238 317.854 39.3145C318.58 40.9059 318.786 42.6858 318.442 44.4009C318.286 45.254 317.955 46.0656 317.471 46.7847C317.222 47.1581 316.88 47.4598 316.479 47.66C316.279 47.7612 316.051 47.7931 315.831 47.7505C315.61 47.7079 315.411 47.5933 315.263 47.4247C315.422 47.5284 315.61 47.5797 315.8 47.5715C315.99 47.5633 316.173 47.496 316.323 47.3791C316.612 47.1412 316.838 46.8364 316.983 46.4911C317.297 45.7872 317.487 45.0347 317.547 44.2663C317.696 42.7398 317.44 41.201 316.804 39.8053C316.488 39.1192 316.068 38.4859 315.559 37.9278C315.312 37.6412 315.015 37.3836 314.744 37.1069C314.462 36.8639 314.162 36.6428 313.846 36.4454C313.586 36.2324 313.263 36.1113 312.928 36.1011C312.592 36.0909 312.262 36.1922 311.99 36.3891C311.42 36.9297 311.011 37.6181 310.81 38.3775ZM296.724 59.8045C297.612 59.7059 298.492 59.5401 299.355 59.3085C299.75 59.1983 300.134 59.0482 300.5 58.8606C300.893 58.6817 301.26 58.43 301.741 58.1864C301.663 58.7111 301.421 59.1979 301.051 59.5779C300.681 59.9773 300.21 60.2681 299.687 60.4191C299.173 60.5697 298.631 60.5954 298.105 60.494C297.587 60.406 297.106 60.1661 296.724 59.8045ZM293.144 43.355C293.103 42.5602 293.362 41.7789 293.872 41.1672C294.378 40.537 295.045 40.0555 295.802 39.7736C296.536 39.5036 297.315 39.3789 298.096 39.4065C298.475 39.4348 298.852 39.4833 299.225 39.5518C299.592 39.6462 299.952 39.7653 300.303 39.9084C299.943 40.0009 299.578 40.072 299.21 40.1213C298.855 40.1863 298.507 40.2637 298.163 40.3091C297.501 40.439 296.851 40.6216 296.218 40.8553C294.936 41.3087 293.85 42.1919 293.144 43.355ZM298.008 48.312C298.346 48.3003 298.666 48.1577 298.901 47.9143C299.137 47.6708 299.268 47.3456 299.268 47.0071C299.268 46.6686 299.137 46.3434 298.901 46.1C298.666 45.8565 298.346 45.7139 298.008 45.7022C297.67 45.7139 297.349 45.8565 297.114 46.1C296.879 46.3434 296.748 46.6686 296.748 47.0071C296.748 47.3456 296.879 47.6708 297.114 47.9143C297.349 48.1577 297.67 48.3003 298.008 48.312ZM324.307 81.3866C322.981 80.2812 321.475 79.4099 319.856 78.8103C318.259 78.2113 316.602 77.7872 314.913 77.5456C313.214 77.2901 311.5 77.149 309.783 77.1232L307.179 77.1353C306.309 77.175 305.436 77.2184 304.548 77.2111C305.394 76.9644 306.255 76.7685 307.119 76.5691C307.991 76.4367 308.869 76.303 309.753 76.2186C311.534 76.0758 313.325 76.1367 315.092 76.4002C316.874 76.6612 318.605 77.1963 320.223 77.9866C321.854 78.7497 323.261 79.9207 324.307 81.3866ZM259.235 128.971C259.73 127.327 260.388 125.737 261.2 124.224C261.991 122.694 262.918 121.237 263.969 119.872C265.013 118.482 266.234 117.234 267.6 116.16C268.952 115.056 270.554 114.3 272.265 113.957C270.766 114.706 269.391 115.681 268.188 116.848C266.987 118 265.883 119.248 264.886 120.58C262.828 123.215 261.068 126.084 259.235 128.971ZM300.303 146.806C300.825 146.938 301.368 146.965 301.901 146.887C302.43 146.828 302.951 146.709 303.453 146.534L304.194 146.241C304.437 146.137 304.664 145.993 304.899 145.872C305.367 145.621 305.813 145.333 306.236 145.012C307.933 143.723 309.443 142.205 310.725 140.502C311.346 139.632 311.977 138.769 312.57 137.881C313.127 136.965 313.725 136.077 314.248 135.141L315.803 132.323L317.219 129.427C319.091 125.535 320.922 121.6 322.857 117.729L325.754 111.917C326.758 109.999 327.725 108.064 328.76 106.162C327.961 108.181 327.095 110.166 326.264 112.168L323.66 118.117C321.914 122.08 320.121 126.006 318.265 129.926C316.455 133.908 314.154 137.649 311.416 141.06C310.009 142.755 308.372 144.243 306.551 145.481C306.086 145.779 305.598 146.04 305.093 146.262C304.838 146.369 304.594 146.497 304.332 146.585L303.541 146.827C302.484 147.147 301.355 147.14 300.303 146.806ZM299.232 120.662C299.163 120.662 299.093 120.649 299.028 120.625L293.838 118.675C293.695 118.621 293.579 118.512 293.516 118.372C293.453 118.232 293.447 118.073 293.501 117.929C293.555 117.785 293.664 117.669 293.804 117.605C293.943 117.542 294.102 117.536 294.246 117.589L299.436 119.539C299.563 119.586 299.67 119.677 299.736 119.796C299.803 119.914 299.827 120.052 299.803 120.185C299.778 120.319 299.708 120.44 299.604 120.527C299.499 120.614 299.368 120.662 299.232 120.662ZM256.606 119.217C255.358 119.607 254.036 119.694 252.747 119.472C251.44 119.235 250.188 118.757 249.055 118.063C247.93 117.378 246.895 116.555 245.974 115.614C245.05 114.664 244.23 113.619 243.527 112.495L244.707 112.985C242.312 113.599 239.842 113.866 237.371 113.777C236.108 113.757 234.854 113.545 233.655 113.147C233.014 112.929 232.447 112.538 232.016 112.017C231.792 111.749 231.622 111.44 231.513 111.108C231.434 110.758 231.434 110.395 231.513 110.044C231.687 109.404 232.026 108.82 232.495 108.351C232.912 107.886 233.37 107.461 233.864 107.079C234.819 106.31 235.824 105.606 236.872 104.971C238.937 103.693 241.088 102.561 243.311 101.584C244.429 101.126 245.478 100.59 246.764 100.195C248.016 99.8135 249.316 99.6105 250.626 99.5921C251.92 99.5865 253.208 99.7596 254.455 100.106C255.688 100.414 256.886 100.847 258.031 101.397C260.262 102.487 262.329 103.885 264.174 105.548C266.01 107.154 267.64 108.983 269.027 110.991C269.043 111.014 269.05 111.042 269.046 111.07C269.043 111.098 269.03 111.124 269.009 111.143C268.988 111.162 268.961 111.173 268.932 111.173C268.904 111.174 268.877 111.164 268.855 111.145L268.85 111.141C265.366 107.984 261.399 105.408 257.098 103.511C256.062 103.07 254.984 102.733 253.881 102.507C252.815 102.219 251.717 102.068 250.613 102.058C249.524 102.024 248.435 102.138 247.377 102.398C246.352 102.646 245.222 103.133 244.106 103.528C241.888 104.374 239.654 105.178 237.488 106.127C236.416 106.605 235.378 107.158 234.382 107.78C233.904 108.098 233.456 108.46 233.043 108.86C232.649 109.225 232.358 109.687 232.199 110.201C232.136 110.439 232.138 110.69 232.207 110.927C232.276 111.164 232.407 111.378 232.588 111.546C232.939 111.942 233.408 112.214 233.926 112.322C235.044 112.549 236.193 112.579 237.322 112.411C239.623 112.052 241.905 111.574 244.157 110.978C244.38 110.927 244.613 110.946 244.825 111.034C245.036 111.122 245.215 111.274 245.336 111.468C245.946 112.463 246.641 113.403 247.415 114.277C248.181 115.17 249.037 115.983 249.969 116.702C250.894 117.42 251.924 117.993 253.023 118.399C254.159 118.809 255.36 119.008 256.567 118.988C256.598 118.988 256.628 118.999 256.651 119.021C256.673 119.042 256.686 119.072 256.687 119.103C256.687 119.128 256.679 119.152 256.665 119.173C256.651 119.193 256.63 119.209 256.606 119.217ZM276.215 200.789L278.819 207.153C278.831 207.183 278.834 207.215 278.829 207.246C278.823 207.277 278.808 207.305 278.786 207.328C278.764 207.351 278.736 207.367 278.706 207.374C278.675 207.382 278.643 207.38 278.613 207.369L278.603 207.366C277.296 206.855 275.927 206.522 274.532 206.373C273.144 206.256 271.747 206.36 270.392 206.682C267.699 207.44 265.252 208.894 263.297 210.898C261.318 212.891 259.61 215.135 258.216 217.573C256.785 219.992 255.581 222.539 254.621 225.181L254.618 225.187C254.586 225.277 254.526 225.356 254.448 225.411C254.37 225.467 254.277 225.497 254.181 225.499C254.085 225.5 253.991 225.472 253.912 225.418C253.832 225.364 253.771 225.287 253.736 225.198L248.681 212.132L243.71 199.034L244.633 198.811L246.412 216.924C246.987 222.963 247.613 228.997 248.242 235.031C248.246 235.071 248.238 235.111 248.218 235.146C246.851 237.296 244.784 238.908 242.366 239.709C239.998 240.525 237.522 240.988 235.018 241.083C232.527 241.202 230.031 241.144 227.549 240.909C225.064 240.686 222.594 240.315 220.153 239.801C220.095 239.788 220.042 239.759 220.001 239.715C219.96 239.672 219.933 239.618 219.924 239.559L219.923 239.551C218.502 230.39 217.31 221.2 216.345 211.98C215.407 202.758 214.692 193.507 214.452 184.224C214.433 181.902 214.411 179.579 214.445 177.256L214.561 173.77L214.625 172.027L214.768 170.285L215.062 166.801L215.589 163.331C215.773 162.172 216.027 161.025 216.35 159.897C216.499 159.329 216.629 158.755 216.792 158.191L217.412 156.534L218.04 154.882C218.3 154.352 218.586 153.833 218.858 153.308C219.14 152.789 219.394 152.255 219.701 151.75L220.721 150.295C221.407 149.329 222.173 148.422 223.012 147.584C223.432 147.166 223.876 146.772 224.342 146.405C224.78 146.006 225.251 145.644 225.75 145.324L227.242 144.357L228.832 143.567C229.366 143.313 229.915 143.092 230.476 142.905C231.026 142.691 231.591 142.515 232.166 142.379C234.452 141.753 236.828 141.526 239.191 141.708L238.811 141.924C239.306 140.859 239.918 139.852 240.637 138.922C241.374 138.011 242.207 137.183 243.121 136.451C244.976 135.041 247.063 133.968 249.289 133.28C251.494 132.6 253.767 132.165 256.068 131.984C258.357 131.784 260.66 131.791 262.948 132.005C262.963 132.007 262.977 132.014 262.987 132.026C262.997 132.038 263.002 132.053 263 132.069C262.998 132.084 262.99 132.098 262.978 132.107C262.966 132.117 262.951 132.122 262.936 132.121C260.656 131.974 258.368 132.033 256.099 132.299C253.836 132.543 251.606 133.036 249.451 133.77C247.303 134.474 245.293 135.547 243.513 136.941C242.649 137.655 241.865 138.459 241.174 139.34C240.505 140.235 239.938 141.201 239.483 142.221C239.452 142.289 239.401 142.347 239.337 142.385C239.273 142.424 239.199 142.443 239.124 142.439L239.103 142.438C234.543 142.181 230.03 143.472 226.296 146.102C222.652 148.836 219.932 152.618 218.499 156.943L217.905 158.54C217.748 159.086 217.624 159.644 217.482 160.196C217.17 161.294 216.925 162.41 216.75 163.538L216.243 166.936L215.963 170.374L215.826 172.094L215.767 173.821L215.66 177.277C215.63 179.583 215.67 181.892 215.678 184.2C215.848 193.436 216.512 202.669 217.364 211.88C218.2 221.094 219.253 230.287 220.523 239.459L220.293 239.21C222.702 239.757 225.14 240.162 227.596 240.422C230.053 240.7 232.527 240.784 234.996 240.673C237.462 240.594 239.902 240.153 242.239 239.364C244.586 238.613 246.588 237.051 247.888 234.957L247.864 235.071C247.196 229.042 246.524 223.013 245.802 216.989L243.681 198.913C243.667 198.798 243.696 198.681 243.763 198.586C243.829 198.49 243.928 198.422 244.041 198.394C244.153 198.365 244.273 198.38 244.376 198.433C244.479 198.487 244.559 198.576 244.602 198.685L244.604 198.691L249.654 211.759L254.614 224.861L253.731 224.878C254.732 222.183 255.981 219.587 257.463 217.123C258.926 214.641 260.719 212.369 262.791 210.367C264.865 208.321 267.44 206.857 270.259 206.121C271.678 205.811 273.139 205.741 274.581 205.913C276.008 206.11 277.403 206.496 278.729 207.061L278.513 207.273L276.107 200.832C276.102 200.818 276.102 200.802 276.109 200.788C276.115 200.774 276.126 200.763 276.14 200.757C276.155 200.752 276.17 200.752 276.184 200.758C276.198 200.764 276.209 200.775 276.215 200.789Z" fill="white"/>
<path d="M244.157 198.862L245.189 208.419L238.8 172.172L245.78 203.095L244.157 198.862Z" fill="white"/>
<path d="M291.487 147.814C278.595 147.814 240.869 142.885 239.072 142.648C238.996 142.639 238.923 142.614 238.857 142.576C238.791 142.538 238.733 142.487 238.686 142.427C238.64 142.367 238.606 142.298 238.586 142.224C238.566 142.15 238.561 142.073 238.571 141.998C238.581 141.922 238.605 141.849 238.644 141.783C238.682 141.717 238.733 141.659 238.793 141.613C238.854 141.566 238.923 141.532 238.996 141.513C239.07 141.493 239.147 141.488 239.222 141.498C239.716 141.562 288.695 147.959 294.794 146.43C294.868 146.411 294.945 146.407 295.02 146.418C295.096 146.429 295.168 146.455 295.234 146.494C295.299 146.533 295.357 146.584 295.402 146.646C295.448 146.707 295.481 146.776 295.499 146.85C295.518 146.924 295.522 147.001 295.511 147.077C295.499 147.152 295.473 147.225 295.434 147.29C295.395 147.356 295.343 147.413 295.282 147.458C295.22 147.503 295.151 147.536 295.077 147.555C293.893 147.768 292.69 147.855 291.487 147.814Z" fill="white"/>
<path d="M379.408 84.1694C379.408 84.1694 337.664 74.4313 327.368 124.261C317.072 174.082 314.447 170.465 314.447 170.465C295.659 197.707 259.016 180.998 250.701 176.708C249.756 176.196 248.678 175.984 247.611 176.099C246.543 176.214 245.535 176.651 244.721 177.353C242.488 179.4 242.834 182.708 242.834 182.708L242.993 186.455C243.021 187.059 243.179 187.65 243.457 188.187C243.734 188.724 244.124 189.195 244.6 189.567C258.147 200.333 282.261 202.567 304.086 201.427C305.338 201.361 306.59 201.287 307.823 201.193C326.686 199.876 343.232 196.175 348.801 193.576C361.32 187.726 364.936 190.231 384.416 138.728C403.905 87.2345 379.408 84.1694 379.408 84.1694ZM387.714 97.8978L387.704 97.8885C382.23 94.9048 375.928 93.8016 369.766 94.7483C363.712 95.7671 358.414 99.309 354.36 103.86C352.315 106.162 350.495 108.653 348.922 111.299C347.314 113.955 345.884 116.715 344.643 119.561C342.195 125.308 340.15 131.22 338.524 137.251C337.73 140.28 336.898 143.317 336.188 146.382C335.814 147.915 335.375 149.429 334.983 150.952C334.59 152.475 334.17 153.989 333.74 155.503C332.153 161.617 330.184 167.626 327.845 173.493C327.256 174.96 326.546 176.381 325.864 177.811C325.098 179.213 324.397 180.633 323.528 181.97C321.889 184.727 319.929 187.28 317.689 189.577C315.443 191.925 312.674 193.709 309.607 194.782C308.964 194.991 308.305 195.147 307.636 195.249C306.517 195.425 305.379 195.447 304.254 195.315C302.838 195.141 301.476 194.67 300.255 193.932C300.245 193.925 300.235 193.917 300.228 193.907C300.221 193.896 300.216 193.885 300.213 193.872C300.21 193.86 300.21 193.848 300.213 193.835C300.215 193.823 300.22 193.811 300.227 193.801C300.238 193.782 300.256 193.768 300.276 193.761C300.297 193.754 300.319 193.755 300.339 193.764L300.349 193.773C301.608 194.352 302.971 194.67 304.357 194.707C304.516 194.717 304.674 194.726 304.833 194.726C305.73 194.716 306.623 194.606 307.496 194.399C308.105 194.255 308.704 194.074 309.29 193.857C312.11 192.668 314.626 190.861 316.652 188.568C318.728 186.284 320.557 183.787 322.108 181.119C322.93 179.801 323.631 178.409 324.379 177.054C325.042 175.643 325.808 174.288 326.425 172.858C329.091 167.189 331.34 161.332 333.152 155.335C334.086 152.335 334.805 149.279 335.543 146.233C336.253 143.167 336.842 140.093 337.533 137.009C338.819 130.81 340.657 124.739 343.027 118.869C345.366 112.903 348.698 107.376 352.884 102.524C355.053 100.111 357.587 98.0551 360.395 96.4306C363.22 94.8135 366.328 93.7509 369.551 93.3C375.969 92.573 382.436 94.1422 387.807 97.7295C387.818 97.7361 387.827 97.7448 387.834 97.7551C387.841 97.7653 387.846 97.7769 387.849 97.7891C387.851 97.8013 387.852 97.8139 387.849 97.8261C387.847 97.8384 387.842 97.85 387.835 97.8604C387.822 97.8795 387.803 97.8935 387.781 97.9003C387.759 97.9071 387.735 97.9062 387.714 97.8978ZM346.687 265.721C346.668 266.681 346.364 267.613 345.815 268.4C345.275 269.176 344.624 269.867 343.881 270.45C342.404 271.61 340.793 272.589 339.083 273.364C335.669 274.921 332.109 276.134 328.454 276.986C321.154 278.718 313.661 279.497 306.16 279.304C298.686 279.109 291.246 278.218 283.937 276.641C280.271 275.9 276.678 274.831 273.202 273.447C271.439 272.743 269.769 271.826 268.228 270.716C267.43 270.138 266.728 269.438 266.146 268.642C265.52 267.792 265.161 266.776 265.115 265.721C265.115 264.652 265.432 263.608 266.025 262.718C266.58 261.878 267.261 261.129 268.045 260.497C269.55 259.28 271.214 258.276 272.992 257.512C276.462 255.995 280.082 254.851 283.794 254.1C291.149 252.567 298.647 251.818 306.16 251.866C313.669 251.832 321.155 252.689 328.461 254.421C332.115 255.284 335.675 256.503 339.091 258.061C340.802 258.838 342.413 259.819 343.889 260.982C344.632 261.567 345.283 262.26 345.821 263.038C346.368 263.827 346.67 264.761 346.687 265.721ZM346.455 265.721C346.422 263.87 345.108 262.333 343.675 261.25C342.19 260.163 340.561 259.289 338.834 258.652C335.378 257.375 331.799 256.458 328.155 255.917C320.876 254.82 313.522 254.293 306.16 254.341C298.809 254.307 291.469 254.942 284.232 256.238C280.644 256.892 277.126 257.884 273.725 259.2C272.064 259.853 270.488 260.704 269.032 261.735C267.641 262.755 266.442 264.136 266.385 265.721C266.336 267.312 267.485 268.821 268.85 269.936C270.268 271.077 271.839 272.016 273.515 272.725C276.91 274.176 280.456 275.242 284.088 275.905C287.723 276.587 291.399 277.022 295.092 277.207C298.78 277.433 302.475 277.455 306.16 277.373C313.527 277.262 320.877 276.656 328.162 275.56C331.806 275.007 335.384 274.085 338.842 272.808C340.569 272.169 342.199 271.292 343.683 270.202C345.116 269.116 346.427 267.572 346.455 265.721ZM245.946 237.515C246.556 238.63 247.007 239.825 247.285 241.066C247.608 242.29 247.855 243.53 248.067 244.775C248.481 247.266 248.818 249.768 249.052 252.279C249.162 253.548 249.285 254.763 249.346 256.075C249.377 257.4 249.152 258.718 248.682 259.958C248.446 260.582 248.136 261.177 247.759 261.728C247.377 262.261 246.96 262.768 246.51 263.244C245.612 264.194 244.576 265.002 243.437 265.642C241.171 266.882 238.666 267.621 236.09 267.81C234.816 267.921 233.533 267.891 232.266 267.719C231.629 267.642 230.999 267.511 230.384 267.328C229.773 267.14 229.185 266.926 228.591 266.711C223.83 264.98 219.5 262.347 214.817 260.55C210.166 258.696 205.365 257.134 200.756 255.033C198.402 254.024 196.167 252.76 194.089 251.263C193.041 250.478 192.095 249.565 191.274 248.544C190.803 247.97 190.499 247.277 190.395 246.541C190.342 246.163 190.35 245.779 190.421 245.404C190.504 245.041 190.632 244.691 190.804 244.361C191.519 243.168 192.576 242.218 193.837 241.632C195.021 241.042 196.295 240.653 197.607 240.482C198.257 240.396 198.912 240.354 199.567 240.356C200.218 240.382 200.889 240.432 201.485 240.48C202.709 240.583 203.959 240.583 205.206 240.565C210.203 240.465 215.216 239.981 220.214 239.448C220.229 239.446 220.245 239.45 220.257 239.46C220.269 239.469 220.277 239.483 220.279 239.498C220.28 239.513 220.276 239.527 220.268 239.539C220.259 239.551 220.246 239.56 220.232 239.562C215.278 240.512 210.269 241.15 205.235 241.472C203.969 241.525 202.701 241.562 201.417 241.49C200.758 241.454 200.174 241.431 199.569 241.421C198.967 241.436 198.367 241.492 197.772 241.588C196.592 241.777 195.449 242.148 194.383 242.688C193.354 243.176 192.491 243.955 191.902 244.93C191.661 245.384 191.565 245.901 191.627 246.411C191.689 246.921 191.906 247.4 192.248 247.783C193.009 248.72 193.875 249.567 194.829 250.307C196.815 251.781 198.956 253.034 201.214 254.042C205.733 256.177 210.461 257.891 215.067 259.966C217.375 260.986 219.616 262.149 221.858 263.287C224.065 264.478 226.361 265.496 228.726 266.333C229.881 266.79 231.089 267.097 232.321 267.246C233.555 267.357 234.796 267.33 236.024 267.167C238.472 266.877 240.831 266.074 242.947 264.811C243.985 264.187 244.931 263.421 245.758 262.536C246.597 261.685 247.268 260.683 247.736 259.583C248.178 258.47 248.401 257.282 248.392 256.085C248.357 254.883 248.253 253.593 248.166 252.354C247.971 249.854 247.788 247.35 247.465 244.865C247.264 242.372 246.719 239.919 245.846 237.575L245.844 237.569C245.838 237.555 245.837 237.54 245.842 237.526C245.847 237.512 245.857 237.501 245.87 237.494C245.883 237.487 245.898 237.485 245.912 237.489C245.926 237.493 245.938 237.503 245.946 237.515Z" fill="white"/>
<path d="M224.788 240.328C224.902 241.668 225.098 243 225.375 244.317C225.627 245.614 226.008 246.884 226.512 248.105C226.958 249.279 227.727 250.301 228.731 251.054C229.218 251.38 229.776 251.582 230.358 251.644C230.962 251.689 231.568 251.626 232.149 251.457C233.381 251.091 234.543 250.524 235.59 249.778C236.676 249.067 237.646 248.193 238.466 247.187C240.143 245.118 241.104 242.561 241.203 239.899C241.549 242.672 240.828 245.473 239.187 247.734C237.509 250.022 235.149 251.718 232.446 252.577C231.726 252.774 230.977 252.839 230.234 252.769C229.47 252.683 228.74 252.404 228.114 251.958C226.963 251.059 226.113 249.831 225.674 248.438C224.83 245.823 224.528 243.064 224.788 240.328ZM204.777 247.647C204.461 246.913 204.353 246.105 204.467 245.314C204.563 244.499 204.856 243.72 205.318 243.043C205.779 242.366 206.395 241.809 207.115 241.418C207.462 241.225 207.829 241.07 208.21 240.957C208.59 240.861 208.979 240.799 209.37 240.773C209.07 241.042 208.753 241.237 208.464 241.467C208.187 241.713 207.881 241.902 207.635 242.159C207.509 242.283 207.379 242.399 207.248 242.511L206.902 242.894C206.67 243.141 206.461 243.409 206.277 243.694C205.503 244.89 204.992 246.238 204.777 247.647ZM211.039 247.647C210.717 246.926 210.616 246.125 210.75 245.347C210.866 244.564 211.131 243.811 211.53 243.127C211.932 242.458 212.441 241.859 213.037 241.354C213.334 241.11 213.646 240.886 213.972 240.683C214.309 240.498 214.659 240.337 215.019 240.202C214.811 240.517 214.587 240.82 214.347 241.111L213.694 241.977C213.276 242.535 212.887 243.115 212.529 243.714C211.8 244.925 211.295 246.257 211.039 247.647Z" fill="white"/>
<path d="M221.951 269.477C219.779 268.77 217.685 267.845 215.7 266.716C212.315 264.779 206.401 261.45 204.731 260.801C199.466 258.736 193.218 256.602 190.966 253.145C187.13 247.254 190.965 244.21 190.965 244.21C192.179 250.693 199.768 254.328 210.622 258.504C221.475 262.68 222.82 264.652 230.242 267.064C234.184 268.352 243.125 267.586 247.334 261.427C247.634 260.989 247.89 260.523 248.099 260.035L248.87 253.982C254.566 276.58 230.299 272.179 221.951 269.477ZM256.097 252.123C254.937 251.745 253.926 251.011 253.207 250.026C252.487 249.041 252.095 247.855 252.086 246.635C251.982 244.886 252.439 243.15 253.391 241.68C254.342 240.21 255.739 239.082 257.376 238.461C263.253 235.986 266.036 228.797 267.083 225.238C267.96 222.213 269.316 219.349 271.1 216.753C274.026 212.535 278.617 208.316 284.219 211.329C286.161 212.436 287.635 214.211 288.367 216.324C289.769 220.088 292.019 223.805 285.931 232.086C284.944 233.411 283.877 234.674 282.737 235.869C280.973 237.774 279.591 240.001 278.666 242.428C277.82 244.794 269.542 256.401 256.097 252.123Z" fill="white"/>
<path d="M257.207 218.441C257.794 221.443 257.79 224.531 257.195 227.532C256.634 230.553 255.591 233.465 254.107 236.155C253.366 237.479 252.552 238.761 251.668 239.994C251.277 240.594 250.966 241.243 250.745 241.925C250.553 242.619 250.473 243.339 250.51 244.058C250.507 245.539 250.772 247.008 251.291 248.395C251.518 249.103 251.927 249.739 252.476 250.241C253.025 250.743 253.695 251.093 254.42 251.256C253.652 251.194 252.923 250.89 252.338 250.388C251.762 249.871 251.296 249.242 250.969 248.54C250.323 247.138 249.951 245.624 249.874 244.082C249.804 243.295 249.849 242.502 250.007 241.727C250.189 240.954 250.478 240.21 250.867 239.518C251.661 238.164 252.448 236.974 253.117 235.629C254.494 233.001 255.538 230.212 256.226 227.326C256.949 224.422 257.279 221.433 257.207 218.441ZM276.184 206.414C276.736 206.451 277.277 206.585 277.782 206.81C278.28 207.02 278.751 207.29 279.184 207.614C279.626 207.943 280.016 208.335 280.343 208.778C280.698 209.225 280.917 209.766 280.973 210.335C280.516 209.987 280.108 209.711 279.702 209.416L278.487 208.54C277.636 207.928 276.863 207.214 276.184 206.414ZM261.211 130.542C261.213 130.559 261.212 130.577 261.207 130.595C261.201 130.612 261.193 130.628 261.182 130.642C261.17 130.655 261.157 130.667 261.141 130.675C261.125 130.684 261.108 130.689 261.09 130.691L223.803 135.925L187.366 140.878L187.608 180.97L187.721 201.446L187.777 221.921C187.778 222.261 187.657 222.59 187.436 222.847C187.214 223.105 186.907 223.274 186.571 223.323H186.562L137.036 230.575L87.4811 237.65H87.4717C87.2029 237.688 86.9287 237.643 86.6869 237.519L52.6135 220.52L18.5869 203.427H18.5775C18.4186 203.347 18.2853 203.224 18.1928 203.072C18.1003 202.92 18.0523 202.745 18.0543 202.567L18.5775 160.064C18.7737 145.887 18.7924 131.719 18.9137 117.551C18.9147 117.444 18.9552 117.341 19.0277 117.261C19.1001 117.182 19.1994 117.132 19.3063 117.121L47.0265 114.187L48.1756 114.066L48.4279 114.038C48.2785 114.393 48.1289 114.748 47.9888 115.112L47.1759 115.196L19.7827 117.944C19.7921 131.99 19.6986 146.027 19.7827 160.064L19.9696 201.978L53.6881 218.351L87.4998 234.893L136.615 227.65L184.946 220.697L185.002 201.446L185.123 180.97L185.376 140.018V140.009C185.376 139.77 185.463 139.539 185.622 139.36C185.78 139.181 185.998 139.066 186.235 139.037L223.635 134.654L261.062 130.42C261.08 130.418 261.098 130.42 261.115 130.425C261.132 130.43 261.148 130.439 261.162 130.45C261.176 130.461 261.187 130.475 261.196 130.491C261.204 130.507 261.21 130.524 261.211 130.542Z" fill="white"/>
<path d="M49.465 113.925C49.5957 114.262 49.736 114.598 49.8667 114.925C49.3622 114.972 48.8578 115.028 48.3533 115.074C48.5495 114.71 48.7456 114.346 48.9324 113.981L49.465 113.925ZM50.1751 113.85C51.0065 113.766 51.8381 113.682 52.6696 113.589C52.5202 113.953 52.3705 114.327 52.2211 114.691C51.6978 114.738 51.1748 114.794 50.6516 114.85C50.4928 114.514 50.3338 114.187 50.1751 113.85ZM53.5293 113.944L53.7719 114.533C53.6038 114.551 53.4357 114.57 53.277 114.588C53.3609 114.374 53.445 114.159 53.5293 113.944ZM56.7338 113.149H56.8271L56.4067 114.28C55.8275 114.336 55.2481 114.392 54.6784 114.448L54.2952 113.411C55.1081 113.327 55.9208 113.233 56.7338 113.149ZM57.3316 113.616L57.5278 114.168C57.3971 114.187 57.2569 114.196 57.1261 114.205L57.3316 113.616ZM60.8633 112.99L60.4803 113.888L58.1259 114.112L57.7988 113.131C58.8172 113.103 59.8448 113.056 60.8633 112.99ZM61.1436 113.084L61.4333 113.794C61.2371 113.813 61.0409 113.832 60.8446 113.85L61.1436 113.084ZM297.686 104.458C297.678 104.492 297.657 104.522 297.627 104.541C297.598 104.56 297.562 104.567 297.527 104.561L273.852 99.5611C266.004 97.8976 258.166 96.2124 250.336 94.5053L221.588 97.7292L192.728 100.823L163.859 103.907L134.98 106.832C125.348 107.813 115.715 108.71 106.083 109.617L77.1758 112.318C72.7286 112.729 68.2845 113.146 63.8435 113.57C63.1241 113.635 62.405 113.701 61.6855 113.776L61.3865 112.953C62.246 112.888 63.1057 112.813 63.9745 112.701C63.4606 112.635 62.9373 112.579 62.4234 112.523C62.9654 112.467 63.498 112.402 64.0304 112.346C68.3656 111.86 72.6976 111.371 77.0264 110.878L105.877 107.636C115.491 106.542 125.105 105.458 134.728 104.468L163.607 101.43L192.495 98.5611L221.383 95.7013L250.28 92.9819H250.299C250.374 92.9784 250.45 92.9847 250.523 93.0006C258.381 94.8323 266.229 96.6982 274.067 98.5985L297.583 104.29C297.601 104.294 297.618 104.301 297.634 104.312C297.649 104.322 297.661 104.336 297.671 104.352C297.681 104.367 297.687 104.385 297.69 104.403C297.692 104.422 297.691 104.44 297.686 104.458ZM101.346 194.399V227.164L174.818 217.697V185.96L101.346 194.399ZM143.09 208.398C137.671 208.398 137.68 199.987 143.09 199.987C148.509 199.987 148.499 208.398 143.09 208.398ZM101.346 155.755V188.52L174.818 179.053V147.316L101.346 155.755ZM143.09 169.755C137.671 169.755 137.68 161.344 143.09 161.344C148.509 161.344 148.499 169.755 143.09 169.755Z" fill="white"/>
<path d="M263.951 106.382C265.493 105.987 267.047 105.664 268.594 105.303C270.146 104.967 271.699 104.638 273.256 104.332C273.339 104.315 273.424 104.325 273.501 104.359L273.523 104.368C276.787 105.806 280.019 107.311 283.238 108.843C286.453 110.385 289.654 111.956 292.824 113.591L292.85 113.605C292.944 113.653 293.015 113.737 293.047 113.838C293.079 113.939 293.07 114.049 293.022 114.143C292.99 114.203 292.945 114.253 292.889 114.291C292.833 114.329 292.769 114.352 292.702 114.358C291.372 114.479 290.043 114.616 288.709 114.709C287.376 114.806 286.045 114.923 284.707 114.989C286.017 114.711 287.334 114.484 288.648 114.237C289.962 113.986 291.281 113.779 292.598 113.556L292.477 114.322C289.207 112.896 285.969 111.404 282.744 109.884C279.523 108.354 276.316 106.796 273.141 105.173L273.407 105.209C271.837 105.44 270.263 105.648 268.688 105.85C267.109 106.027 265.536 106.24 263.951 106.382ZM257.167 118.585L249.379 119.834C246.783 120.257 244.179 120.611 241.58 121.002C238.978 121.376 236.381 121.785 233.776 122.131L225.963 123.193C225.88 123.203 225.795 123.194 225.716 123.167C222.576 122.086 219.423 121.042 216.298 119.918L206.906 116.596C206.843 116.574 206.784 116.54 206.734 116.495C206.684 116.451 206.644 116.397 206.614 116.337C206.585 116.276 206.568 116.211 206.564 116.144C206.56 116.077 206.57 116.01 206.592 115.947C206.622 115.861 206.675 115.785 206.744 115.726C206.814 115.667 206.898 115.628 206.987 115.612C211.193 114.894 215.417 114.283 219.632 113.623C223.849 112.966 228.075 112.373 232.306 111.799C228.125 112.664 223.941 113.509 219.746 114.291C215.551 115.069 211.364 115.897 207.159 116.617L207.241 115.633L216.668 118.852C219.817 119.909 222.937 121.046 226.071 122.145L225.823 122.119L233.647 121.143C236.254 120.81 238.869 120.54 241.48 120.235C244.093 119.947 246.701 119.622 249.318 119.366C251.933 119.099 254.547 118.816 257.167 118.585ZM226.833 102.001C224.021 102.818 221.194 103.563 218.373 104.339C217.667 104.526 216.966 104.738 216.253 104.897L214.109 105.346L209.827 106.272L207.686 106.735C206.908 106.946 206.096 106.995 205.298 106.878C204.453 106.749 203.666 106.366 203.042 105.781C202.726 105.462 202.483 105.079 202.331 104.657C202.178 104.235 202.118 103.785 202.157 103.338C202.334 101.731 203.067 100.237 204.227 99.1121C204.783 98.5584 205.413 98.0838 206.098 97.7016C206.435 97.5139 206.783 97.3454 207.139 97.1967C207.465 97.0578 207.786 96.9092 208.104 96.7509C210.668 95.5626 212.828 93.6476 214.315 91.2431C215.014 90.0375 215.477 88.71 215.679 87.3313C215.862 85.9771 215.864 84.4731 215.937 83.0234L216.652 65.5096L216.665 65.657C216.594 65.4638 216.496 65.2821 216.373 65.1176C216.23 64.9216 216.067 64.741 215.887 64.5787C215.492 64.2538 215.067 63.967 214.618 63.7222C213.657 63.2155 212.63 62.8484 211.566 62.6318C210.468 62.4185 209.356 62.284 208.239 62.2293C207.114 62.1666 205.983 62.1736 204.847 62.1926C205.969 62.0386 207.097 61.8688 208.239 61.8175C209.387 61.7523 210.539 61.7696 211.684 61.8693C212.864 61.9828 214.021 62.2654 215.12 62.7082C215.694 62.9499 216.221 63.2922 216.675 63.719C217.194 64.1712 217.582 64.755 217.797 65.4089C217.809 65.445 217.813 65.4826 217.812 65.5203L217.81 65.5568L217.096 83.0716C217.019 84.5379 217.029 85.9642 216.825 87.5074C216.601 89.0284 216.09 90.493 215.319 91.8233C213.718 94.4262 211.388 96.5012 208.618 97.7904C208.282 97.9583 207.941 98.1159 207.595 98.2632C207.277 98.3955 206.966 98.5458 206.665 98.7133C206.073 99.0432 205.529 99.4529 205.048 99.931C204.091 100.857 203.479 102.083 203.314 103.405C203.284 103.688 203.317 103.974 203.411 104.242C203.505 104.51 203.658 104.754 203.858 104.956C204.312 105.371 204.879 105.642 205.488 105.734C206.141 105.827 206.806 105.782 207.441 105.601L209.582 105.138L213.864 104.212L216.002 103.734C216.717 103.585 217.443 103.488 218.163 103.367C221.052 102.908 223.935 102.418 226.833 102.001Z" fill="white"/>
<path d="M209.097 49.675C210.339 51.0862 211.489 52.5815 213.011 54.0301L196.727 74.2068C196.446 55.0021 183.096 54.0301 183.096 54.0301L205.042 45.6753C205.804 46.2811 206.531 46.9301 207.219 47.619C207.873 48.2825 208.48 48.9741 209.097 49.675Z" fill="white"/>
<path d="M219.972 54.0305H213.011C212.914 52.9952 212.632 51.9856 212.18 51.0493C211.746 50.1095 211.183 49.2349 210.508 48.451C209.824 47.6497 209.009 46.9703 208.097 46.4419C207.173 45.8993 206.113 45.6334 205.042 45.6757L208.144 39.8252L219.972 54.0305ZM196.73 74.2094C194.65 73.5683 192.711 72.5399 191.013 71.1783C189.276 69.8344 187.761 68.2248 186.525 66.4089C186.203 65.9621 185.913 65.494 185.656 65.0077C185.397 64.5222 185.097 64.059 184.875 63.5557C184.415 62.5591 184.037 61.526 183.747 60.4671C183.145 58.377 182.923 56.1956 183.093 54.027C183.645 56.0531 184.323 58.0428 185.123 59.9843C185.908 61.8743 186.894 63.6741 188.065 65.3527C189.213 67.0534 190.522 68.6394 191.974 70.0889C193.457 71.576 195.047 72.9532 196.73 74.2094Z" fill="white"/>
<path d="M191.024 67.737C197.74 67.737 197.751 57.2979 191.024 57.2979C184.309 57.2979 184.298 67.737 191.024 67.737ZM142.288 110.337L159.457 107.362C165.305 106.367 171.227 105.345 177.134 104.58L177.153 104.578C177.241 104.566 177.33 104.582 177.407 104.625L184.276 108.329C186.56 109.576 188.866 110.779 191.171 111.985C193.467 113.207 195.799 114.359 198.117 115.54C200.433 116.723 202.778 117.851 205.107 119.009C205.166 119.038 205.214 119.086 205.245 119.144C205.275 119.202 205.287 119.269 205.278 119.334C205.269 119.399 205.239 119.46 205.194 119.507C205.148 119.555 205.089 119.587 205.024 119.599L205.012 119.601C199.152 120.661 193.287 121.696 187.413 122.668C181.541 123.658 175.67 124.652 169.784 125.552L169.778 125.553C169.649 125.573 169.518 125.551 169.403 125.489C164.764 122.998 160.17 120.397 155.622 117.844C151.107 115.269 146.664 112.75 142.288 110.337ZM142.402 110.357C147.141 112.813 151.811 115.164 156.411 117.458C160.978 119.775 165.498 122.042 169.973 124.421L169.592 124.357C175.464 123.369 181.351 122.474 187.238 121.576C193.121 120.661 199.015 119.807 204.913 118.978L204.818 119.57C202.521 118.351 200.239 117.101 197.928 115.907C195.619 114.71 193.325 113.484 190.994 112.329C188.672 111.157 186.352 109.982 184.008 108.851L176.997 105.423L177.27 105.467C171.558 106.477 165.862 107.229 160.091 108.008L151.342 109.152L142.402 110.357Z" fill="white"/>
<path d="M162.8 114.001C164.06 113.72 165.333 113.504 166.615 113.353C167.83 113.546 169.05 113.701 170.266 113.876L177.572 114.901L184.877 115.925L188.53 116.437C189.699 116.957 190.869 117.466 192.022 118.098C190.74 118.388 189.475 118.556 188.208 118.734L184.555 118.222L177.25 117.198L169.945 116.174C168.726 116.008 167.511 115.821 166.29 115.673C165.099 115.175 163.934 114.617 162.8 114.001ZM67.8889 116.823L85.0578 113.848C90.9057 112.852 96.8278 111.83 102.736 111.066L102.754 111.063C102.842 111.052 102.931 111.068 103.008 111.11L109.877 114.815C112.161 116.062 114.467 117.264 116.772 118.47C119.068 119.693 121.4 120.845 123.718 122.025C126.034 123.209 128.379 124.336 130.708 125.495C130.767 125.524 130.815 125.571 130.846 125.629C130.877 125.688 130.888 125.754 130.879 125.819C130.87 125.885 130.841 125.945 130.795 125.993C130.75 126.04 130.69 126.073 130.625 126.085L130.614 126.087C124.753 127.147 118.888 128.181 113.014 129.154C107.142 130.144 101.271 131.138 95.3851 132.038L95.3794 132.039C95.2506 132.059 95.1188 132.036 95.004 131.974C90.3652 129.484 85.7706 126.882 81.2235 124.33C76.7085 121.754 72.265 119.235 67.8889 116.823ZM68.0034 116.842C72.7417 119.299 77.4124 121.65 82.0118 123.944C86.5787 126.26 91.0987 128.528 95.5742 130.907L95.1933 130.843C101.065 129.855 106.952 128.96 112.839 128.062C118.722 127.146 124.616 126.292 130.514 125.464L130.419 126.056C128.122 124.837 125.84 123.586 123.529 122.392C121.22 121.195 118.926 119.97 116.595 118.814C114.273 117.643 111.953 116.467 109.609 115.337L102.598 111.908L102.871 111.953C97.1595 112.962 91.4627 113.715 85.6917 114.494L76.9428 115.638L68.0034 116.842Z" fill="white"/>
<path d="M110.355 115.338C112.46 114.907 114.568 114.502 116.681 114.12C118.795 113.752 120.904 113.348 123.023 113.01C127.259 112.325 131.489 111.594 135.745 111.038L135.767 111.035C135.859 111.023 135.953 111.041 136.034 111.085L142.881 114.834C145.163 116.085 147.47 117.286 149.779 118.482C152.101 119.656 154.422 120.829 156.767 121.956L163.787 125.367C163.873 125.409 163.944 125.478 163.99 125.563C164.035 125.648 164.052 125.745 164.039 125.84C164.026 125.935 163.983 126.024 163.916 126.094C163.85 126.163 163.763 126.21 163.668 126.227L163.65 126.23L154.848 127.753C151.914 128.256 148.979 128.753 146.038 129.219C143.096 129.677 140.155 130.136 137.206 130.55C134.258 130.968 131.314 131.41 128.359 131.788L128.339 131.791C128.268 131.8 128.197 131.786 128.135 131.751C125.625 130.33 123.129 128.886 120.645 127.416C120.632 127.409 120.623 127.397 120.619 127.382C120.615 127.368 120.617 127.352 120.624 127.339C120.631 127.326 120.643 127.316 120.657 127.311C120.671 127.307 120.686 127.308 120.7 127.314C123.305 128.555 125.895 129.824 128.47 131.122L128.246 131.085C131.171 130.52 134.106 130.018 137.036 129.493C139.967 128.963 142.904 128.479 145.842 127.994C148.78 127.516 151.724 127.07 154.668 126.629L163.504 125.322L163.367 126.185L156.507 122.463C154.225 121.212 151.92 120.008 149.614 118.803C147.297 117.622 144.978 116.445 142.632 115.319L135.599 111.933L135.888 111.98C131.66 112.72 127.405 113.284 123.158 113.894C121.034 114.204 118.901 114.447 116.773 114.727C114.644 114.995 112.51 115.237 110.372 115.452C110.358 115.454 110.343 115.45 110.331 115.441C110.319 115.431 110.312 115.418 110.309 115.403C110.307 115.389 110.31 115.374 110.319 115.361C110.327 115.349 110.34 115.341 110.355 115.338ZM253.662 59.2168C253.177 60.5908 252.625 61.9365 252.074 63.2822L249.878 66.983L245.665 74.1044H244.039L244.291 73.6836L248.673 66.2727L250.869 62.5626C251.784 61.4412 252.691 60.3104 253.662 59.2168ZM243.404 63.8709L242.881 68.4503L242.236 74.1043H240.825L241.489 68.2912L242.003 63.712C242.386 62.2075 242.759 60.7028 243.226 59.2168C243.339 60.7777 243.376 62.3196 243.404 63.8709ZM237.621 74.1043H238.508L238.013 70.6371L237.611 67.8522L236.995 63.4785C236.574 62.058 236.163 60.6281 235.668 59.217C235.603 60.4412 235.584 61.6561 235.593 62.871V63.6841L235.771 64.8897L236.229 68.0484L237.097 74.1043H237.621ZM234.659 74.1043H233.248L232.37 68.0485L231.744 63.684C231.735 62.1982 231.735 60.7122 231.819 59.2169C232.314 60.6283 232.725 62.0579 233.146 63.4784L233.762 67.8523L234.36 72.0203L234.659 74.1043Z" fill="white"/>
<path d="M235.771 64.0675V64.8898L235.761 68.3663V74.1046H234.36V64.0676C234.565 62.6377 234.771 61.2078 235.061 59.7686C235.266 60.806 235.444 61.8432 235.593 62.8713C235.659 63.2731 235.715 63.6657 235.771 64.0675ZM240.087 64.7869L239.601 69.0579L239.031 74.1045H237.621L238.013 70.6374L238.209 68.899L238.686 64.6281C239.05 63.2263 239.414 61.8244 239.863 60.4413C239.994 61.89 240.04 63.3386 240.087 64.7869ZM230.333 79.8238V84.8705C230.576 84.8425 230.819 84.8238 231.062 84.7957L233.164 80.0762C232.22 80.0107 231.277 79.9361 230.333 79.8238ZM233.426 80.1604L231.174 84.7864C232.529 84.6461 233.893 84.5527 235.248 84.4966L233.426 80.1604ZM233.725 80.1137L235.649 84.263L237.181 80.254C236.032 80.2352 234.874 80.1791 233.725 80.1137ZM237.667 80.6558L236.088 84.4685C237.088 84.4312 238.078 84.4124 239.078 84.4033L237.667 80.6558ZM239.657 80.2912C239.171 80.2818 238.676 80.2725 238.19 80.2725L239.62 83.7957L240.835 80.2725C240.442 80.2818 240.05 80.2818 239.657 80.2912ZM241.46 81.179L240.237 84.4033C241.021 84.4125 241.806 84.422 242.591 84.4499C242.199 83.3565 241.825 82.2726 241.46 81.179ZM242.115 80.254C242.516 81.3661 242.899 82.4781 243.273 83.5902C243.778 82.4407 244.273 81.3005 244.787 80.1605C243.899 80.2069 243.011 80.2353 242.115 80.254ZM245.31 80.6839C244.843 81.9548 244.357 83.2165 243.871 84.4873C244.945 84.5247 246.02 84.5902 247.085 84.6836C246.468 83.3564 245.889 82.0296 245.31 80.6839ZM230.333 74.1047V79.8238C233.429 79.4863 236.543 79.3304 239.657 79.3567C240.227 79.3567 240.797 79.3661 241.367 79.3754C241.45 79.352 241.537 79.352 241.619 79.3754C242.815 79.3941 244.002 79.4409 245.188 79.5062C245.218 79.4957 245.25 79.4894 245.282 79.4877C245.33 79.4879 245.377 79.4974 245.422 79.5157C246.608 79.5903 247.795 79.6839 248.981 79.8239V74.1046L230.333 74.1047ZM232.51 78.2821C232.146 78.2701 231.802 78.1171 231.549 77.8556C231.296 77.594 231.154 77.2443 231.154 76.8803C231.154 76.5163 231.296 76.1666 231.549 75.9051C231.802 75.6435 232.146 75.4905 232.51 75.4785C232.873 75.4912 233.217 75.6445 233.47 75.906C233.722 76.1675 233.863 76.5168 233.863 76.8802C233.863 77.2437 233.722 77.593 233.47 77.8545C233.217 78.116 232.873 78.2694 232.51 78.2821ZM237.555 78.2821C237.191 78.2701 236.847 78.1171 236.594 77.8556C236.341 77.594 236.199 77.2443 236.199 76.8803C236.199 76.5163 236.341 76.1666 236.594 75.9051C236.847 75.6435 237.191 75.4905 237.555 75.4785C237.918 75.4912 238.262 75.6445 238.515 75.9059C238.767 76.1674 238.908 76.5167 238.908 76.8802C238.908 77.2437 238.767 77.593 238.515 77.8545C238.262 78.116 237.918 78.2694 237.555 78.2821ZM242.432 78.114C242.069 78.1019 241.724 77.949 241.471 77.6874C241.218 77.4258 241.076 77.0761 241.076 76.7122C241.076 76.3482 241.218 75.9985 241.471 75.7369C241.724 75.4753 242.069 75.3224 242.432 75.3103C242.795 75.3231 243.139 75.4763 243.392 75.7378C243.644 75.9993 243.785 76.3486 243.785 76.7121C243.785 77.0756 243.644 77.4249 243.392 77.6863C243.139 77.9478 242.795 78.1013 242.432 78.114ZM247.225 78.2821C246.861 78.2701 246.517 78.1171 246.264 77.8556C246.011 77.594 245.869 77.2443 245.869 76.8803C245.869 76.5163 246.011 76.1666 246.264 75.9051C246.517 75.6435 246.861 75.4905 247.225 75.4785C247.588 75.4912 247.932 75.6445 248.185 75.906C248.437 76.1675 248.578 76.5168 248.578 76.8802C248.578 77.2437 248.437 77.593 248.185 77.8545C247.932 78.116 247.588 78.2694 247.225 78.2821ZM245.721 80.1045C246.244 81.6277 246.749 83.1511 247.216 84.6932C247.804 84.7491 248.393 84.7959 248.981 84.8708V79.8239C247.898 79.9453 246.814 80.039 245.721 80.1045ZM233.426 80.1604L231.174 84.7864C232.529 84.6461 233.893 84.5527 235.248 84.4966L233.426 80.1604ZM233.725 80.1137L235.649 84.263L237.181 80.254C236.032 80.2352 234.874 80.1791 233.725 80.1137ZM237.667 80.6558L236.088 84.4685C237.088 84.4312 238.078 84.4124 239.078 84.4033L237.667 80.6558ZM239.657 80.2912C239.171 80.2818 238.676 80.2725 238.19 80.2725L239.62 83.7957L240.835 80.2725C240.442 80.2818 240.05 80.2818 239.657 80.2912ZM241.46 81.179L240.237 84.4033C241.021 84.4125 241.806 84.422 242.591 84.4499C242.199 83.3565 241.825 82.2726 241.46 81.179ZM242.115 80.254C242.516 81.3661 242.899 82.4781 243.273 83.5902C243.778 82.4407 244.273 81.3005 244.787 80.1605C243.899 80.2069 243.011 80.2353 242.115 80.254ZM245.31 80.6839C244.843 81.9548 244.357 83.2165 243.871 84.4873C244.945 84.5247 246.02 84.5902 247.085 84.6836C246.468 83.3564 245.889 82.0296 245.31 80.6839ZM233.426 80.1604L231.174 84.7864C232.529 84.6461 233.893 84.5527 235.248 84.4966L233.426 80.1604ZM233.725 80.1137L235.649 84.263L237.181 80.254C236.032 80.2352 234.874 80.1791 233.725 80.1137ZM237.667 80.6558L236.088 84.4685C237.088 84.4312 238.078 84.4124 239.078 84.4033L237.667 80.6558ZM239.657 80.2912C239.171 80.2818 238.676 80.2725 238.19 80.2725L239.62 83.7957L240.835 80.2725C240.442 80.2818 240.05 80.2818 239.657 80.2912ZM241.46 81.179L240.237 84.4033C241.021 84.4125 241.806 84.422 242.591 84.4499C242.199 83.3565 241.825 82.2726 241.46 81.179ZM242.115 80.254C242.516 81.3661 242.899 82.4781 243.273 83.5902C243.778 82.4407 244.273 81.3005 244.787 80.1605C243.899 80.2069 243.011 80.2353 242.115 80.254ZM245.31 80.6839C244.843 81.9548 244.357 83.2165 243.871 84.4873C244.945 84.5247 246.02 84.5902 247.085 84.6836C246.468 83.3564 245.889 82.0296 245.31 80.6839ZM230.333 90.338V91.4968C230.333 93.9704 231.316 96.3427 233.064 98.0918C234.813 99.8409 237.184 100.824 239.657 100.824C242.13 100.824 244.502 99.8409 246.251 98.0918C247.999 96.3427 248.982 93.9704 248.982 91.4968V90.338C242.781 90.961 236.534 90.961 230.333 90.338ZM243.469 85.2634C243.41 85.3035 243.341 85.3287 243.269 85.3368C243.198 85.345 243.126 85.3358 243.058 85.3102C243.039 85.2988 243.02 85.2863 243.002 85.2728C241.89 85.3102 240.769 85.3289 239.657 85.3383C236.543 85.3552 233.43 85.1988 230.333 84.8705V90.338C236.534 89.7149 242.781 89.7149 248.982 90.338L248.981 84.8708C247.141 85.0857 245.31 85.198 243.469 85.2634ZM232.931 89.0484C232.567 89.0363 232.222 88.8834 231.969 88.6218C231.716 88.3602 231.575 88.0105 231.575 87.6465C231.575 87.2826 231.716 86.9329 231.969 86.6713C232.222 86.4097 232.567 86.2567 232.931 86.2447C233.293 86.2583 233.636 86.4119 233.888 86.6733C234.14 86.9347 234.28 87.2835 234.28 87.6464C234.28 88.0093 234.14 88.3581 233.888 88.6194C233.636 88.8808 233.293 89.0348 232.931 89.0484ZM237.219 88.9641C236.855 88.9521 236.511 88.7992 236.258 88.5376C236.005 88.276 235.863 87.9263 235.863 87.5623C235.863 87.1984 236.005 86.8487 236.258 86.5871C236.511 86.3255 236.855 86.1725 237.219 86.1605C237.582 86.1741 237.925 86.3277 238.176 86.5891C238.428 86.8505 238.569 87.1993 238.569 87.5622C238.569 87.9251 238.428 88.2739 238.176 88.5352C237.925 88.7966 237.582 88.9506 237.219 88.9641ZM241.928 88.9641C241.564 88.9521 241.219 88.7992 240.966 88.5376C240.713 88.276 240.572 87.9263 240.572 87.5623C240.572 87.1984 240.713 86.8487 240.966 86.5871C241.219 86.3255 241.564 86.1725 241.928 86.1605C242.29 86.1741 242.634 86.3277 242.885 86.5891C243.137 86.8505 243.278 87.1993 243.277 87.5622C243.277 87.9251 243.137 88.2739 242.885 88.5352C242.633 88.7966 242.29 88.9506 241.928 88.9641ZM246.637 88.796C246.273 88.784 245.928 88.631 245.675 88.3694C245.422 88.1079 245.281 87.7581 245.281 87.3942C245.281 87.0302 245.422 86.6805 245.675 86.4189C245.928 86.1574 246.273 86.0044 246.637 85.9924C246.999 86.006 247.342 86.1596 247.594 86.421C247.846 86.6823 247.986 87.0311 247.986 87.394C247.986 87.7569 247.846 88.1057 247.594 88.3671C247.342 88.6284 246.999 88.7824 246.637 88.796ZM247.085 84.6836C246.468 83.3564 245.889 82.0296 245.31 80.6839C244.843 81.9548 244.357 83.2165 243.871 84.4873C244.945 84.5247 246.02 84.5902 247.085 84.6836ZM244.787 80.1605C243.899 80.2069 243.011 80.2353 242.115 80.254C242.516 81.3661 242.899 82.4781 243.273 83.5902C243.778 82.4407 244.273 81.3005 244.787 80.1605ZM242.591 84.4499C242.199 83.3565 241.825 82.2726 241.46 81.179L240.237 84.4033C241.021 84.4125 241.806 84.422 242.591 84.4499ZM240.835 80.2725C240.442 80.2818 240.05 80.2818 239.657 80.2912C239.171 80.2818 238.676 80.2725 238.19 80.2725L239.62 83.7957L240.835 80.2725ZM239.078 84.4033L237.667 80.6558L236.088 84.4685C237.088 84.4312 238.078 84.4124 239.078 84.4033ZM237.181 80.254C236.032 80.2352 234.874 80.1791 233.725 80.1137L235.649 84.263L237.181 80.254ZM233.426 80.1604L231.174 84.7864C232.529 84.6461 233.893 84.5527 235.248 84.4966L233.426 80.1604ZM245.31 80.6839C244.843 81.9548 244.357 83.2165 243.871 84.4873C244.945 84.5247 246.02 84.5902 247.085 84.6836C246.468 83.3564 245.889 82.0296 245.31 80.6839ZM242.115 80.254C242.516 81.3661 242.899 82.4781 243.273 83.5902C243.778 82.4407 244.273 81.3005 244.787 80.1605C243.899 80.2069 243.011 80.2353 242.115 80.254ZM241.46 81.179L240.237 84.4033C241.021 84.4125 241.806 84.422 242.591 84.4499C242.199 83.3565 241.825 82.2726 241.46 81.179ZM239.657 80.2912C239.171 80.2818 238.676 80.2725 238.19 80.2725L239.62 83.7957L240.835 80.2725C240.442 80.2818 240.05 80.2818 239.657 80.2912ZM237.667 80.6558L236.088 84.4685C237.088 84.4312 238.078 84.4124 239.078 84.4033L237.667 80.6558ZM233.725 80.1137L235.649 84.263L237.181 80.254C236.032 80.2352 234.874 80.1791 233.725 80.1137ZM233.426 80.1604L231.174 84.7864C232.529 84.6461 233.893 84.5527 235.248 84.4966L233.426 80.1604ZM245.31 80.6839C244.843 81.9548 244.357 83.2165 243.871 84.4873C244.945 84.5247 246.02 84.5902 247.085 84.6836C246.468 83.3564 245.889 82.0296 245.31 80.6839ZM242.115 80.254C242.516 81.3661 242.899 82.4781 243.273 83.5902C243.778 82.4407 244.273 81.3005 244.787 80.1605C243.899 80.2069 243.011 80.2353 242.115 80.254ZM241.46 81.179L240.237 84.4033C241.021 84.4125 241.806 84.422 242.591 84.4499C242.199 83.3565 241.825 82.2726 241.46 81.179ZM239.657 80.2912C239.171 80.2818 238.676 80.2725 238.19 80.2725L239.62 83.7957L240.835 80.2725C240.442 80.2818 240.05 80.2818 239.657 80.2912ZM237.667 80.6558L236.088 84.4685C237.088 84.4312 238.078 84.4124 239.078 84.4033L237.667 80.6558ZM233.725 80.1137L235.649 84.263L237.181 80.254C236.032 80.2352 234.874 80.1791 233.725 80.1137ZM233.426 80.1604L231.174 84.7864C232.529 84.6461 233.893 84.5527 235.248 84.4966L233.426 80.1604ZM78.5665 233.48C78.7399 235.787 78.8286 238.095 78.9507 240.403C79.0779 242.711 79.1354 245.018 79.2187 247.326C79.2711 249.634 79.3562 251.941 79.3815 254.249C79.4112 256.557 79.4703 258.865 79.4707 261.172L78.8056 260.3L85.307 262.055L84.8424 262.048L91.3211 260.512L90.6377 261.381C90.694 257.098 90.7722 252.815 90.9077 248.532C90.9894 246.391 91.0496 244.249 91.171 242.108C91.2827 239.966 91.3708 237.824 91.532 235.683C91.6933 237.824 91.7814 239.966 91.8931 242.108C92.0145 244.249 92.0747 246.391 92.1563 248.532C92.2918 252.815 92.3701 257.098 92.4264 261.381C92.429 261.579 92.3646 261.773 92.2435 261.93C92.1225 262.087 91.9519 262.199 91.7595 262.247L91.7428 262.251L85.2808 263.855C85.1278 263.892 84.9678 263.89 84.816 263.848L78.328 262.045C78.1373 261.991 77.9692 261.877 77.8491 261.72C77.729 261.563 77.6635 261.37 77.6626 261.172C77.6631 258.865 77.7221 256.557 77.7518 254.249C77.7771 251.941 77.8622 249.634 77.9146 247.326C77.9979 245.018 78.0554 242.711 78.1827 240.403C78.3047 238.095 78.3934 235.787 78.5665 233.48Z" fill="white"/>
<path d="M85.0494 235.575C85.5074 240.137 85.6142 244.7 85.6349 249.263C85.6208 253.825 85.5184 258.388 85.0617 262.951C84.601 258.389 84.4945 253.826 84.4762 249.263C84.4929 244.7 84.5955 240.138 85.0494 235.575ZM19.1989 202.659C19.3821 204.966 19.4713 207.274 19.602 209.582C19.7199 211.889 19.8006 214.197 19.8709 216.505C20.0048 221.12 20.0965 225.736 20.1108 230.351L19.4398 229.472C21.6085 230.051 23.7777 230.629 25.9367 231.243L25.4771 231.237C27.6378 230.729 29.7933 230.201 31.9616 229.725L31.3052 230.56C31.3423 228.708 31.3526 226.857 31.4121 225.005C31.4694 223.154 31.5004 221.302 31.5812 219.451C31.6462 217.599 31.7233 215.748 31.8318 213.896C31.9309 212.045 32.018 210.193 32.1645 208.342C32.3107 210.193 32.3978 212.045 32.4971 213.896C32.6054 215.748 32.6825 217.599 32.7475 219.451C32.8283 221.302 32.8593 223.154 32.9165 225.005C32.9761 226.857 32.9863 228.708 33.0237 230.56C33.0275 230.747 32.9683 230.93 32.8557 231.08C32.743 231.23 32.5835 231.338 32.4024 231.386L32.3669 231.395C30.2216 231.966 28.0638 232.485 25.9108 233.024C25.7662 233.061 25.6147 233.06 25.4703 233.023L25.4509 233.018C23.2801 232.446 21.1196 231.837 18.9582 231.231L18.9502 231.229C18.759 231.175 18.5907 231.06 18.471 230.902C18.3512 230.743 18.2867 230.55 18.2871 230.351C18.3015 225.736 18.3932 221.12 18.5271 216.505C18.5973 214.197 18.6781 211.889 18.796 209.582C18.9266 207.274 19.0158 204.966 19.1989 202.659Z" fill="white"/>
<path d="M25.6816 204.754C26.1396 209.317 26.2464 213.879 26.2671 218.442C26.2527 223.005 26.1503 227.568 25.6937 232.131C25.2329 227.568 25.1266 223.005 25.1082 218.443C25.1248 213.88 25.2277 209.317 25.6816 204.754ZM173.654 223.597C173.81 225.649 173.898 227.7 174.005 229.752C174.123 231.803 174.188 233.855 174.265 235.906C174.401 240.009 174.483 244.112 174.537 248.216L174.05 247.426L179.913 250.323L179.254 250.258C181.544 249.606 183.85 249.015 186.147 248.39L185.481 249.263C185.482 246.999 185.537 244.735 185.569 242.471C185.594 240.207 185.678 237.944 185.731 235.679C185.813 233.416 185.874 231.152 186 228.888C186.123 226.624 186.212 224.36 186.386 222.096C186.561 224.36 186.649 226.624 186.772 228.888C186.899 231.152 186.959 233.416 187.041 235.679C187.094 237.944 187.178 240.207 187.203 242.471C187.235 244.735 187.29 246.999 187.291 249.263C187.291 249.462 187.225 249.654 187.105 249.812C186.985 249.969 186.816 250.083 186.625 250.136C184.33 250.77 182.045 251.436 179.743 252.043L179.728 252.047C179.512 252.104 179.282 252.079 179.083 251.978L173.258 249.005L173.242 248.997C173.099 248.924 172.978 248.812 172.895 248.674C172.812 248.535 172.769 248.377 172.771 248.216C172.825 244.112 172.906 240.009 173.043 235.906C173.119 233.855 173.185 231.803 173.302 229.752C173.41 227.7 173.498 225.649 173.654 223.597Z" fill="white"/>
<path d="M180.02 222.841C180.389 227.568 180.407 232.288 180.338 237.007C180.235 241.725 180.044 246.441 179.498 251.151C179.127 246.424 179.109 241.704 179.18 236.985C179.286 232.268 179.477 227.551 180.02 222.841ZM248.993 175.793C248.067 175.739 247.157 175.523 246.306 175.155C243.758 174.124 241.483 172.52 239.655 170.468C240.504 170.794 241.33 171.179 242.125 171.621C242.921 172.036 243.684 172.496 244.451 172.943C245.206 173.414 245.967 173.865 246.713 174.35C247.468 174.822 248.201 175.318 248.993 175.793ZM57.9949 66.0393C58.751 67.2807 59.6545 68.4261 60.6858 69.4505C59.6411 69.4865 58.604 69.2616 57.668 68.7961C56.992 68.4477 56.4211 67.9251 56.0143 67.2823C55.6178 66.6305 55.3988 65.8862 55.3791 65.1234C55.36 64.0797 55.6041 63.048 56.0889 62.1235C56.5604 63.5024 57.2006 64.8176 57.9949 66.0393ZM61.4052 66.4506C61.4238 67.4955 61.1762 68.5278 60.6858 69.4505C60.2143 68.0716 59.5742 66.7564 58.7799 65.5348C58.0214 64.2949 57.1181 63.1497 56.0889 62.1235C57.1318 62.0863 58.1671 62.3147 59.0976 62.7871C59.7738 63.1348 60.3471 63.6536 60.7604 64.2918C61.1655 64.9403 61.3883 65.6861 61.4052 66.4506ZM55.5005 74.9549C56.2569 76.1987 57.1638 77.3444 58.2007 78.3661C57.1559 78.4033 56.1183 78.1783 55.1827 77.7117C54.5041 77.3633 53.9302 76.8409 53.5197 76.1979C53.1232 75.546 52.9042 74.8018 52.8844 74.039C52.8654 72.9953 53.1096 71.9635 53.5945 71.0391C54.0698 72.4164 54.7098 73.7311 55.5005 74.9549ZM58.9105 75.366C58.9287 76.4097 58.6846 77.4413 58.2007 78.3661C57.7212 76.9905 57.0815 75.6761 56.2947 74.4502C55.5329 73.2102 54.6265 72.0651 53.5945 71.0391C54.6374 71.0007 55.6729 71.2292 56.6029 71.7027C57.2857 72.0439 57.8618 72.5658 58.2687 73.2117C58.6756 73.8576 58.8975 74.6027 58.9105 75.366ZM52.6882 84.7676C53.447 86.0097 54.3536 87.1551 55.3882 88.1788C54.3422 88.2181 53.3035 87.9897 52.3705 87.5151C51.6905 87.1731 51.1159 86.6531 50.7077 86.0106C50.311 85.3588 50.0919 84.6145 50.0722 83.8517C50.0522 82.8079 50.2964 81.7759 50.7822 80.8519C51.2576 82.2291 51.8976 83.5439 52.6882 84.7676Z" fill="white"/>
<path d="M56.0984 85.1693C56.1176 86.2161 55.8733 87.251 55.3881 88.1787C54.9097 86.8011 54.2667 85.4862 53.473 84.2628C52.7146 83.023 51.8113 81.878 50.7822 80.8518C51.8251 80.8134 52.8605 81.0418 53.7906 81.5153C54.4669 81.8629 55.0403 82.3817 55.4536 83.0201C55.8574 83.6657 56.0801 84.408 56.0984 85.1693ZM51.3148 95.2157C52.074 96.4603 52.9805 97.6088 54.0148 98.6362C52.9688 98.6756 51.9301 98.4472 50.997 97.9727C50.3191 97.6264 49.7475 97.1029 49.3428 96.4579C48.9382 95.8129 48.7156 95.0704 48.6987 94.3091C48.6833 93.2658 48.9273 92.2349 49.4087 91.3092C49.8881 92.6819 50.5278 93.9932 51.3148 95.2157Z" fill="white"/>
<path d="M54.7247 95.6265C54.7487 96.6738 54.5043 97.7098 54.0147 98.6359C53.0286 95.8884 51.4569 93.3884 49.4087 91.309C50.4516 91.2706 51.487 91.499 52.4171 91.9725C53.0971 92.3146 53.6718 92.8346 54.0801 93.4772C54.4892 94.1204 54.7123 94.8643 54.7247 95.6265ZM50.9046 101.601C51.9477 101.566 52.983 101.793 53.915 102.263C54.5933 102.61 55.1674 103.131 55.5787 103.772C55.9827 104.418 56.2052 105.161 56.2226 105.922C56.2424 106.968 55.9963 108.002 55.5073 108.927C54.4622 108.966 53.4242 108.74 52.4905 108.268C51.8121 107.922 51.2396 107.4 50.8332 106.755C50.4338 106.107 50.2139 105.363 50.1959 104.601C50.1766 103.558 50.4203 102.526 50.9046 101.601ZM64.2451 68.7866C62.9949 69.3768 61.7896 70.0576 60.6389 70.8238C60.799 69.8307 61.1649 68.8821 61.7132 68.0389C62.0908 67.4685 62.6089 67.005 63.2175 66.693C63.8087 66.4034 64.4677 66.2807 65.1234 66.3379C66.0881 66.4344 67.0363 66.6542 67.945 66.9921L64.2451 68.7866Z" fill="white"/>
<path d="M67.4218 70.095C67.0292 70.7879 66.4392 71.3482 65.7271 71.7044C65.0149 72.0606 64.2128 72.1965 63.4231 72.0948C62.3913 71.9507 61.4238 71.5091 60.6389 70.824C61.3436 70.7605 62.0392 70.6195 62.713 70.4034C63.381 70.1901 64.0335 69.9309 64.6657 69.6277C65.2989 69.3154 65.9024 68.9462 66.4688 68.5247C67.0495 68.1074 67.5497 67.5881 67.9451 66.9922C68.1685 68.0554 67.9816 69.1639 67.4218 70.095ZM62.7878 77.1976C61.2461 77.7582 59.6765 78.2536 58.0977 78.917C58.5505 77.9139 59.1911 77.0067 59.9849 76.2444C60.5659 75.6969 61.2526 75.2739 62.0029 75.0013C62.7142 74.7438 63.4724 74.6418 64.2264 74.7022C65.2668 74.8067 66.2977 74.9911 67.3098 75.2537C65.8638 76.0361 64.3504 76.6867 62.7878 77.1976Z" fill="white"/>
<path d="M66.2539 78.6184C65.6425 79.3637 64.8423 79.9312 63.9367 80.2616C63.0312 80.592 62.0536 80.6732 61.106 80.4966C59.968 80.2826 58.9202 79.7325 58.0976 78.9173C58.9495 78.9507 59.8023 78.8848 60.6389 78.721C61.4746 78.5755 62.2965 78.3598 63.0959 78.0763C63.9062 77.7982 64.6832 77.4315 65.413 76.9829C66.1585 76.5447 66.8045 75.9558 67.3098 75.2539C67.3753 75.8572 67.3152 76.4676 67.1335 77.0466C66.9518 77.6256 66.6523 78.1607 66.2539 78.6184ZM61.0312 84.4684C59.4897 85.0292 57.9199 85.5246 56.3411 86.1881C56.7937 85.1823 57.4379 84.2744 58.2377 83.5152C58.814 82.9662 59.4981 82.543 60.2465 82.2724C60.9578 82.0148 61.716 81.9128 62.47 81.9733C63.5103 82.0777 64.5411 82.2621 65.5532 82.5247C64.1073 83.3072 62.5938 83.9577 61.0312 84.4684Z" fill="white"/>
<path d="M64.4975 85.8887C63.8861 86.6341 63.0859 87.2017 62.1804 87.5321C61.2749 87.8625 60.2973 87.9437 59.3498 87.7671C58.2117 87.5531 57.1638 87.003 56.3412 86.1878C57.1931 86.2212 58.0459 86.1553 58.8826 85.9915C59.7183 85.846 60.5402 85.6302 61.3397 85.3465C62.1499 85.0685 62.927 84.7019 63.6567 84.2532C64.4022 83.8151 65.0482 83.2263 65.5533 82.5244C65.6188 83.1277 65.5588 83.738 65.3771 84.317C65.1954 84.896 64.8959 85.4311 64.4975 85.8887ZM59.555 93.3744C57.9948 94.0847 56.3599 94.6642 54.7249 95.3929C55.1821 94.3623 55.825 93.4246 56.6215 92.6267C57.1956 92.0465 57.8698 91.5748 58.6116 91.2344C59.2933 90.9331 60.0253 90.762 60.7699 90.7298C61.5732 90.655 62.3953 90.8138 63.8435 90.6175C63.2675 91.2608 62.5887 91.804 61.8348 92.225C61.1012 92.6581 60.3396 93.0421 59.555 93.3744Z" fill="white"/>
<path d="M64.1145 91.6366C64.1253 91.9681 64.1034 92.2998 64.049 92.627C63.9176 93.2311 63.6735 93.8049 63.3296 94.3186C62.7268 95.2215 61.8772 95.9319 60.8819 96.3652C59.9582 96.774 58.943 96.932 57.9388 96.8233C56.7468 96.6855 55.6254 96.1865 54.7249 95.3932C55.6225 95.3929 56.5167 95.2831 57.3877 95.0663C58.2628 94.868 59.1169 94.5863 59.9383 94.225C60.7767 93.8674 61.56 93.3923 62.2647 92.8141C62.9998 92.2575 63.5501 91.4921 63.8435 90.6178C63.914 90.7819 63.9733 90.9505 64.0212 91.1225C64.0621 91.2919 64.0932 91.4636 64.1145 91.6366ZM54.6875 106.038C54.7384 105.009 54.9635 103.997 55.3533 103.044C55.6089 102.415 55.9926 101.847 56.4799 101.375C56.918 100.975 57.4457 100.686 58.0186 100.532C58.923 100.363 59.7974 100.061 60.6137 99.6363C60.7493 99.7371 60.8785 99.8464 61.0003 99.9635C61.1097 100.087 61.2118 100.218 61.306 100.354C61.4644 100.625 61.5879 100.916 61.6737 101.218C61.8119 101.785 61.8233 102.375 61.707 102.946C61.5197 103.931 61.0173 104.827 60.2757 105.5C59.607 106.118 58.7665 106.519 57.8653 106.648C56.7678 106.799 55.6511 106.585 54.6875 106.038ZM63.7222 60.2919C63.1786 61.7865 62.8087 63.3387 62.6198 64.9179C61.9417 64.0596 61.4917 63.0438 61.3116 61.9648C61.18 61.1478 61.2473 60.311 61.5078 59.5255C61.7788 58.7418 62.2414 58.0383 62.8534 57.4789C63.6622 56.7446 64.6417 56.2241 65.7028 55.9648C64.8809 57.3275 64.2164 58.7791 63.7222 60.2919Z" fill="white"/>
<path d="M66.8144 61.3572C66.5383 62.138 66.0728 62.8381 65.4597 63.3947C64.6564 64.1336 63.6795 64.6576 62.6196 64.9179C63.4342 63.5514 64.0983 62.1007 64.6002 60.591C65.1427 59.096 65.5126 57.5439 65.7026 55.9648C66.3828 56.8229 66.8359 57.8386 67.0201 58.9182C67.1531 59.7357 67.0824 60.5735 66.8144 61.3572Z" fill="white"/>
<path d="M50.9048 101.601C51.9379 102.627 52.8433 103.773 53.6013 105.016C54.3937 106.237 55.0338 107.551 55.5073 108.927C54.4726 107.903 53.5671 106.757 52.8107 105.513C52.0201 104.291 51.3801 102.977 50.9048 101.601ZM54.6874 106.038C55.8251 104.99 56.9948 104.09 58.0616 103.094C58.6018 102.618 59.1022 102.098 59.5577 101.54C60.0313 100.981 60.3901 100.334 60.6135 99.6362C60.7442 100.432 60.5862 101.249 60.1679 101.939C59.7841 102.632 59.2858 103.255 58.6939 103.781C58.1204 104.303 57.4909 104.76 56.8169 105.144C56.1509 105.537 55.4345 105.838 54.6874 106.038Z" fill="white"/>
<path d="M49.745 112.972C49.8946 113.262 50.0346 113.561 50.1749 113.85C50.3337 114.187 50.4927 114.514 50.6514 114.85C50.9315 115.439 51.2118 116.018 51.4828 116.607C51.7257 115.962 51.978 115.327 52.2209 114.691C52.3703 114.327 52.52 113.953 52.6694 113.589C52.7255 113.43 52.7909 113.28 52.8562 113.121C51.8193 113.093 50.7821 113.047 49.745 112.972ZM53.7717 114.533L53.5291 113.944C53.4449 114.159 53.3608 114.374 53.2768 114.589C52.9123 115.514 52.5478 116.439 52.1648 117.355C53.0804 117.318 53.9962 117.29 54.9118 117.28L53.7717 114.533ZM56.7336 113.149C56.2849 113.149 55.8365 113.159 55.3789 113.168C54.9863 113.159 54.594 113.159 54.1923 113.149L54.295 113.411L54.6782 114.448L55.5096 116.663L56.4065 114.28L56.8269 113.149H56.7336ZM57.5276 114.168L57.3314 113.617L57.1258 114.205L56.07 117.289C56.939 117.299 57.8079 117.317 58.686 117.355L57.5276 114.168ZM57.7985 113.131L58.1256 114.112L59.1064 117.075L60.48 113.888L60.863 112.99C59.8447 113.056 58.817 113.103 57.7985 113.131ZM61.433 113.794L61.1433 113.084L60.8443 113.85L59.4709 117.392C60.6481 117.458 61.8347 117.561 63.0212 117.729L61.433 113.794ZM49.745 112.972C49.8946 113.262 50.0346 113.561 50.1749 113.85C50.3337 114.187 50.4927 114.514 50.6514 114.85C50.9315 115.439 51.2118 116.018 51.4828 116.607C51.7257 115.962 51.978 115.327 52.2209 114.691C52.3703 114.327 52.52 113.953 52.6694 113.589C52.7255 113.43 52.7909 113.28 52.8562 113.121C51.8193 113.093 50.7821 113.047 49.745 112.972ZM53.7717 114.533L53.5291 113.944C53.4449 114.159 53.3608 114.374 53.2768 114.589C52.9123 115.514 52.5478 116.439 52.1648 117.355C53.0804 117.318 53.9962 117.29 54.9118 117.28L53.7717 114.533ZM56.7336 113.149C56.2849 113.149 55.8365 113.159 55.3789 113.168C54.9863 113.159 54.594 113.159 54.1923 113.149L54.295 113.411L54.6782 114.448L55.5096 116.663L56.4065 114.28L56.8269 113.149H56.7336ZM57.5276 114.168L57.3314 113.617L57.1258 114.205L56.07 117.289C56.939 117.299 57.8079 117.317 58.686 117.355L57.5276 114.168ZM57.7985 113.131L58.1256 114.112L59.1064 117.075L60.48 113.888L60.863 112.99C59.8447 113.056 58.817 113.103 57.7985 113.131ZM61.433 113.794L61.1433 113.084L60.8443 113.85L59.4709 117.392C60.6481 117.458 61.8347 117.561 63.0212 117.729L61.433 113.794ZM49.2499 113.383C49.147 113.579 49.035 113.785 48.9321 113.981L49.4647 113.925C49.39 113.748 49.3247 113.561 49.2499 113.383ZM49.745 112.972C49.8946 113.262 50.0346 113.561 50.1749 113.85C50.3337 114.187 50.4927 114.514 50.6514 114.85C51.1747 114.794 51.6977 114.738 52.2209 114.691C52.3703 114.327 52.52 113.953 52.6694 113.589C52.7255 113.43 52.7909 113.28 52.8562 113.121C51.8193 113.093 50.7821 113.047 49.745 112.972ZM53.5291 113.944C53.4449 114.159 53.3608 114.374 53.2768 114.589C53.4355 114.57 53.6036 114.551 53.7717 114.533L53.5291 113.944ZM55.3789 113.168C54.9863 113.159 54.594 113.159 54.1923 113.149L54.295 113.411C55.1079 113.327 55.9207 113.233 56.7336 113.149C56.2849 113.149 55.8365 113.159 55.3789 113.168ZM44.7185 99.3931L46.7926 112.701C47.5775 112.598 48.3622 112.523 49.1377 112.458C49.1736 112.432 49.2153 112.415 49.2592 112.408C49.3031 112.402 49.348 112.406 49.3899 112.421L49.4086 112.439C50.7352 112.346 52.0527 112.28 53.37 112.252C53.4677 112.224 53.5713 112.224 53.669 112.252C54.2388 112.243 54.8089 112.234 55.3789 112.234C57.7333 112.243 60.0781 112.299 62.4232 112.523C62.937 112.579 63.4603 112.636 63.9742 112.701L64.0301 112.346L66.039 99.3931H44.7185ZM48.0165 111.925C47.6537 111.912 47.3102 111.758 47.0582 111.497C46.8062 111.236 46.6654 110.887 46.6654 110.523C46.6654 110.16 46.8062 109.811 47.0582 109.55C47.3102 109.288 47.6537 109.135 48.0165 109.122C48.3793 109.135 48.7227 109.289 48.9746 109.55C49.2265 109.811 49.3673 110.16 49.3673 110.523C49.3673 110.886 49.2266 111.235 48.9747 111.497C48.7228 111.758 48.3793 111.912 48.0165 111.925ZM53.0618 111.925C52.699 111.912 52.3554 111.758 52.1034 111.497C51.8514 111.236 51.7106 110.887 51.7106 110.523C51.7106 110.16 51.8514 109.811 52.1034 109.55C52.3554 109.288 52.699 109.135 53.0618 109.122C53.4248 109.135 53.7685 109.288 54.0207 109.549C54.2728 109.811 54.4138 110.16 54.4138 110.523C54.4138 110.887 54.2729 111.236 54.0208 111.497C53.7686 111.759 53.4248 111.912 53.0618 111.925ZM57.9385 111.757C57.5757 111.744 57.2322 111.59 56.9802 111.329C56.7282 111.067 56.5874 110.718 56.5874 110.355C56.5874 109.992 56.7282 109.643 56.9802 109.382C57.2322 109.12 57.5757 108.967 57.9385 108.953C58.3013 108.967 58.6447 109.12 58.8966 109.382C59.1485 109.643 59.2893 109.992 59.2893 110.355C59.2893 110.718 59.1486 111.067 58.8967 111.329C58.6448 111.59 58.3013 111.744 57.9385 111.757ZM62.7315 111.925C62.3687 111.912 62.0252 111.758 61.7732 111.497C61.5212 111.236 61.3804 110.887 61.3804 110.523C61.3804 110.16 61.5212 109.811 61.7732 109.55C62.0252 109.288 62.3687 109.135 62.7315 109.122C63.0943 109.135 63.4377 109.289 63.6896 109.55C63.9415 109.811 64.0823 110.16 64.0823 110.523C64.0823 110.886 63.9416 111.235 63.6897 111.497C63.4378 111.758 63.0943 111.912 62.7315 111.925ZM61.433 113.794L61.1433 113.084L60.8443 113.85L59.4709 117.392C60.6481 117.458 61.8347 117.561 63.0212 117.729L61.433 113.794ZM57.7985 113.131L58.1256 114.112L59.1064 117.075L60.48 113.888L60.863 112.99C59.8447 113.056 58.817 113.103 57.7985 113.131ZM57.5276 114.168L57.3314 113.617L57.1258 114.205L56.07 117.289C56.939 117.299 57.8079 117.317 58.686 117.355L57.5276 114.168ZM56.7336 113.149C56.2849 113.149 55.8365 113.159 55.3789 113.168C54.9863 113.159 54.594 113.159 54.1923 113.149L54.295 113.411L54.6782 114.448L55.5096 116.663L56.4065 114.28L56.8269 113.149H56.7336ZM53.7717 114.533L53.5291 113.944C53.4449 114.159 53.3608 114.374 53.2768 114.589C52.9123 115.514 52.5478 116.439 52.1648 117.355C53.0804 117.318 53.9962 117.29 54.9118 117.28L53.7717 114.533ZM49.745 112.972C49.8946 113.262 50.0346 113.561 50.1749 113.85C50.3337 114.187 50.4927 114.514 50.6514 114.85C50.9315 115.439 51.2118 116.018 51.4828 116.607C51.7257 115.962 51.978 115.327 52.2209 114.691C52.3703 114.327 52.52 113.953 52.6694 113.589C52.7255 113.43 52.7909 113.28 52.8562 113.121C51.8193 113.093 50.7821 113.047 49.745 112.972ZM61.433 113.794L61.1433 113.084L60.8443 113.85L59.4709 117.392C60.6481 117.458 61.8347 117.561 63.0212 117.729L61.433 113.794ZM57.7985 113.131L58.1256 114.112L59.1064 117.075L60.48 113.888L60.863 112.99C59.8447 113.056 58.817 113.103 57.7985 113.131ZM57.5276 114.168L57.3314 113.617L57.1258 114.205L56.07 117.289C56.939 117.299 57.8079 117.317 58.686 117.355L57.5276 114.168ZM56.7336 113.149C56.2849 113.149 55.8365 113.159 55.3789 113.168C54.9863 113.159 54.594 113.159 54.1923 113.149L54.295 113.411L54.6782 114.448L55.5096 116.663L56.4065 114.28L56.8269 113.149H56.7336ZM53.7717 114.533L53.5291 113.944C53.4449 114.159 53.3608 114.374 53.2768 114.589C52.9123 115.514 52.5478 116.439 52.1648 117.355C53.0804 117.318 53.9962 117.29 54.9118 117.28L53.7717 114.533ZM49.745 112.972C49.8946 113.262 50.0346 113.561 50.1749 113.85C50.3337 114.187 50.4927 114.514 50.6514 114.85C50.9315 115.439 51.2118 116.018 51.4828 116.607C51.7257 115.962 51.978 115.327 52.2209 114.691C52.3703 114.327 52.52 113.953 52.6694 113.589C52.7255 113.43 52.7909 113.28 52.8562 113.121C51.8193 113.093 50.7821 113.047 49.745 112.972ZM56.7336 113.149C55.9207 113.233 55.1079 113.327 54.295 113.411L54.6782 114.448C55.248 114.392 55.8274 114.336 56.4065 114.28L56.8269 113.149H56.7336ZM57.3314 113.617L57.1258 114.205C57.2566 114.196 57.3968 114.187 57.5276 114.168L57.3314 113.617ZM57.7985 113.131L58.1256 114.112L60.48 113.888L60.863 112.99C59.8447 113.056 58.817 113.103 57.7985 113.131ZM61.1433 113.084L60.8443 113.85C61.0405 113.832 61.2367 113.813 61.433 113.794L61.1433 113.084ZM61.3864 112.953L61.6854 113.776L63.1147 117.729V117.738C63.14 117.737 63.1653 117.74 63.1895 117.747L63.8435 113.57L63.9742 112.701C63.1053 112.813 62.2458 112.888 61.3864 112.953ZM63.1055 117.757C63.1055 117.766 63.1056 117.785 63.0869 117.785C63.0768 117.789 63.0656 117.789 63.0553 117.786C63.045 117.783 63.0363 117.775 63.0308 117.766C60.4923 118.078 57.9365 118.228 55.379 118.215C54.1738 118.205 52.9685 118.177 51.7632 118.121C51.7035 118.165 51.6331 118.193 51.5593 118.201C51.4854 118.209 51.4107 118.198 51.3428 118.168C51.3033 118.146 51.2657 118.121 51.2305 118.093C50.016 118.018 48.7922 117.916 47.5776 117.747L48.2035 121.766H62.5636L63.1895 117.747C63.1612 117.746 63.1328 117.749 63.1055 117.757ZM51.2025 121.411C50.8388 121.399 50.4941 121.246 50.2411 120.984C49.9881 120.723 49.8467 120.373 49.8467 120.009C49.8467 119.645 49.9881 119.295 50.2411 119.034C50.4941 118.772 50.8388 118.619 51.2025 118.607C51.5662 118.619 51.9109 118.772 52.1639 119.034C52.4169 119.295 52.5584 119.645 52.5584 120.009C52.5584 120.373 52.4169 120.723 52.1639 120.984C51.9109 121.246 51.5662 121.399 51.2025 121.411ZM55.9113 121.411C55.5477 121.399 55.2029 121.246 54.9499 120.984C54.6969 120.723 54.5555 120.373 54.5555 120.009C54.5555 119.645 54.6969 119.295 54.9499 119.034C55.2029 118.772 55.5477 118.619 55.9113 118.607C56.275 118.619 56.6197 118.772 56.8727 119.034C57.1257 119.295 57.2672 119.645 57.2672 120.009C57.2672 120.373 57.1257 120.723 56.8727 120.984C56.6197 121.246 56.275 121.399 55.9113 121.411ZM60.6201 121.243C60.2564 121.231 59.9117 121.078 59.6587 120.816C59.4057 120.554 59.2643 120.205 59.2643 119.841C59.2643 119.477 59.4057 119.127 59.6587 118.866C59.9117 118.604 60.2564 118.451 60.6201 118.439C60.9838 118.451 61.3285 118.604 61.5815 118.865C61.8345 119.127 61.976 119.477 61.976 119.841C61.976 120.205 61.8346 120.554 61.5816 120.816C61.3286 121.078 60.9838 121.231 60.6201 121.243ZM61.433 113.794L61.1433 113.084L60.8443 113.85L59.4709 117.392C60.6481 117.458 61.8347 117.561 63.0212 117.729L61.433 113.794ZM57.7985 113.131L58.1256 114.112L59.1064 117.075L60.48 113.888L60.863 112.99C59.8447 113.056 58.817 113.103 57.7985 113.131ZM57.5276 114.168L57.3314 113.617L57.1258 114.205L56.07 117.289C56.939 117.299 57.8079 117.317 58.686 117.355L57.5276 114.168ZM56.7336 113.149C56.2849 113.149 55.8365 113.159 55.3789 113.168C54.9863 113.159 54.594 113.159 54.1923 113.149L54.295 113.411L54.6782 114.448L55.5096 116.663L56.4065 114.28L56.8269 113.149H56.7336ZM53.7717 114.533L53.5291 113.944C53.4449 114.159 53.3608 114.374 53.2768 114.589C52.9123 115.514 52.5478 116.439 52.1648 117.355C53.0804 117.318 53.9962 117.29 54.9118 117.28L53.7717 114.533ZM49.745 112.972C49.8946 113.262 50.0346 113.561 50.1749 113.85C50.3337 114.187 50.4927 114.514 50.6514 114.85C50.9315 115.439 51.2118 116.018 51.4828 116.607C51.7257 115.962 51.978 115.327 52.2209 114.691C52.3703 114.327 52.52 113.953 52.6694 113.589C52.7255 113.43 52.7909 113.28 52.8562 113.121C51.8193 113.093 50.7821 113.047 49.745 112.972ZM49.8666 114.925C49.7359 114.598 49.5955 114.262 49.4647 113.925C49.39 113.748 49.3247 113.561 49.2499 113.383C49.147 113.579 49.035 113.785 48.9321 113.981C48.7453 114.346 48.5493 114.71 48.3531 115.074C48.0634 115.626 47.7645 116.177 47.4562 116.729C47.4525 116.732 47.448 116.735 47.4431 116.736C47.4382 116.738 47.433 116.739 47.4279 116.738L47.5776 117.747C48.68 117.588 49.7919 117.495 50.8943 117.42C50.5579 116.589 50.2121 115.757 49.8666 114.925ZM50.6514 114.85C50.9315 115.439 51.2118 116.018 51.4828 116.607C51.7257 115.962 51.978 115.327 52.2209 114.691C51.6977 114.738 51.1747 114.794 50.6514 114.85ZM53.7717 114.533C53.6036 114.551 53.4355 114.57 53.2768 114.589C52.9123 115.514 52.5478 116.439 52.1648 117.355C53.0804 117.318 53.9962 117.29 54.9118 117.28L53.7717 114.533ZM54.6782 114.448L55.5096 116.663L56.4065 114.28C55.8274 114.336 55.248 114.392 54.6782 114.448ZM57.5276 114.168C57.3968 114.187 57.2566 114.196 57.1258 114.205L56.07 117.289C56.939 117.299 57.8079 117.317 58.686 117.355L57.5276 114.168ZM58.1256 114.112L59.1064 117.075L60.48 113.888L58.1256 114.112ZM61.433 113.794C61.2367 113.813 61.0405 113.832 60.8443 113.85L59.4709 117.392C60.6481 117.458 61.8347 117.561 63.0212 117.729L61.433 113.794ZM46.7926 112.701L47.0262 114.187L47.1757 115.196L47.4001 116.607C47.5963 116.103 47.7924 115.607 47.9886 115.112C48.1287 114.748 48.2783 114.392 48.4277 114.037C48.5771 113.664 48.7267 113.29 48.8855 112.916C48.1848 112.86 47.4933 112.785 46.7926 112.701Z" fill="white"/>
<path d="M56.6756 110.576C55.8957 109.874 55.3183 108.976 55.0034 107.976C54.8565 107.477 54.666 106.983 54.554 106.473L54.2379 104.935C53.9799 102.864 53.9012 100.775 54.0025 98.6908C54.0392 96.6029 54.3512 94.5458 54.593 92.4802C54.9714 90.4409 55.2629 88.3784 55.7579 86.3653C56.2223 84.344 56.6867 82.3232 57.2736 80.3369C57.8391 78.3441 58.3822 76.3461 59.079 74.3958C59.7528 72.4391 60.3575 70.4609 61.1068 68.5327C61.865 66.6073 62.5846 64.6704 63.3745 62.7607C62.2756 66.7503 61.003 70.6727 59.933 74.6538L59.1007 77.6288L58.3345 80.6196C58.087 81.6178 57.7882 82.6039 57.5658 83.6073L56.8897 86.6149C56.3761 88.6081 56.0868 90.6403 55.6742 92.6523C55.3713 94.6781 55.0527 96.7055 54.8889 98.7451C54.6874 100.78 54.6573 102.828 54.799 104.868L54.9806 106.386C55.0478 106.892 55.1918 107.38 55.2942 107.882C55.5274 108.879 56.0017 109.804 56.6756 110.576Z" fill="white"/>
<path d="M47.4188 116.71L47.4001 116.607L47.3721 116.691C47.3627 116.71 47.3721 116.729 47.3908 116.748C47.4092 116.757 47.4188 116.748 47.4279 116.738L47.4188 116.71Z" fill="white"/>
<path d="M80.481 118.511C83.5449 117.667 86.6533 116.994 89.7917 116.494C92.9232 115.952 96.0827 115.586 99.2552 115.398C96.1917 116.244 93.0833 116.917 89.9445 117.415C86.8126 117.955 83.6533 118.321 80.481 118.511ZM117.565 118.101C120.628 117.257 123.737 116.584 126.875 116.084C130.007 115.542 133.166 115.177 136.339 114.989C133.275 115.835 130.167 116.508 127.028 117.006C123.896 117.545 120.737 117.911 117.565 118.101ZM155.59 111.509C158.654 110.665 161.762 109.992 164.901 109.492C168.032 108.951 171.192 108.585 174.364 108.397C171.301 109.243 168.192 109.916 165.053 110.414C161.922 110.953 158.762 111.319 155.59 111.509ZM314.385 170.563C312.434 169.239 310.715 167.601 309.299 165.716C307.846 163.867 306.537 161.91 305.382 159.862C304.221 157.821 303.172 155.721 302.204 153.585C301.236 151.444 300.333 149.294 299.526 147.061L300.414 147.616C295.731 148.222 290.972 147.81 286.462 146.408C284.222 145.751 282.032 144.935 279.909 143.964C277.786 143.021 275.718 141.955 273.717 140.774C269.727 138.427 265.934 135.762 262.375 132.803C258.816 129.861 255.45 126.693 252.298 123.318L252.283 123.302C252.171 123.181 252.11 123.022 252.112 122.858C252.114 122.693 252.178 122.536 252.292 122.417C253.653 121.01 255.061 119.702 256.521 118.429C257.974 117.153 259.507 115.969 261.072 114.831C262.638 113.68 264.304 112.673 266.051 111.823C267.799 110.892 269.73 110.359 271.708 110.262C271.747 110.262 271.785 110.268 271.821 110.281C273.677 110.923 275.548 111.519 277.411 112.14L283.006 113.986C286.73 115.233 290.479 116.406 294.22 117.602L293.5 117.993L298.407 97.4436C300.062 90.5985 301.748 83.7615 303.464 76.9324L303.441 77.0403C303.561 76.4537 303.745 75.8821 303.991 75.336C304.204 74.826 304.457 74.3503 304.709 73.873C305.235 72.9524 305.824 72.0692 306.471 71.2298C307.743 69.5818 309.16 68.0515 310.706 66.6577C313.757 63.9112 317.075 61.4769 320.61 59.391C322.378 58.3285 324.211 57.3767 326.097 56.541C327.99 55.7223 329.932 55.0202 331.911 54.4385C335.872 53.265 339.979 52.6541 344.11 52.6239C348.235 52.5808 352.344 53.1314 356.313 54.2587C358.3 54.8265 360.234 55.5669 362.093 56.4714C362.552 56.7117 362.999 56.9779 363.452 57.23L364.129 57.6136L364.772 58.0544C365.199 58.3521 365.635 58.6348 366.051 58.9451L367.248 59.9474C370.379 62.707 372.602 66.349 373.626 70.3954C374.516 74.3755 374.629 78.4902 373.96 82.5134C373.958 82.5285 373.952 82.543 373.945 82.556C373.937 82.5691 373.926 82.5805 373.914 82.5896C373.902 82.5987 373.888 82.6052 373.873 82.6089C373.858 82.6126 373.843 82.6133 373.828 82.6111C373.799 82.6063 373.773 82.591 373.754 82.5679C373.736 82.5448 373.727 82.5158 373.729 82.4865C374.119 78.5126 373.772 74.501 372.706 70.653C371.567 66.8939 369.335 63.5591 366.294 61.0736L365.142 60.185C364.741 59.9114 364.32 59.6641 363.911 59.4023L363.295 59.0147L362.644 58.6818C362.209 58.463 361.782 58.2303 361.342 58.0224C359.559 57.2181 357.711 56.5661 355.817 56.0735C352.01 55.0946 348.083 54.6684 344.155 54.8081C342.196 54.8682 340.243 55.0667 338.312 55.4022C336.379 55.7177 334.468 56.1632 332.595 56.7356C330.721 57.3101 328.885 57.9982 327.095 58.7961C325.312 59.6084 323.574 60.5159 321.888 61.5147C318.495 63.5266 315.294 65.845 312.325 68.4409C310.863 69.7205 309.52 71.129 308.31 72.6494C307.719 73.3941 307.178 74.1786 306.694 74.9973C306.472 75.4069 306.246 75.8155 306.065 76.2319C305.894 76.602 305.757 76.9865 305.654 77.381L305.632 77.4894C303.844 84.3002 302.028 91.1035 300.182 97.8995L294.584 118.271L294.579 118.289C294.56 118.359 294.527 118.424 294.482 118.481C294.438 118.538 294.383 118.586 294.32 118.622C294.257 118.658 294.187 118.681 294.116 118.69C294.044 118.699 293.971 118.693 293.901 118.674L293.863 118.663C290.161 117.353 286.465 116.021 282.744 114.763L277.172 112.85C275.313 112.219 273.462 111.562 271.596 110.952L271.708 110.97C269.842 111.084 268.024 111.607 266.383 112.502C264.697 113.366 263.095 114.386 261.599 115.549C260.084 116.699 258.635 117.932 257.257 119.244C255.877 120.548 254.526 121.909 253.276 123.312L253.27 122.411C256.501 125.603 259.931 128.586 263.54 131.343C267.112 134.128 270.861 136.677 274.763 138.977C276.716 140.11 278.704 141.176 280.75 142.109C282.782 143.063 284.879 143.87 287.026 144.522C291.266 145.921 295.749 146.422 300.192 145.995L300.224 145.991C300.409 145.972 300.595 146.016 300.751 146.118C300.907 146.22 301.023 146.372 301.08 146.549C301.774 148.724 302.593 150.904 303.465 153.039C304.338 155.178 305.294 157.285 306.36 159.333C307.377 161.404 308.549 163.397 309.864 165.293C311.152 167.209 312.72 168.921 314.515 170.371C314.54 170.389 314.557 170.417 314.562 170.447C314.566 170.477 314.559 170.508 314.541 170.533C314.523 170.557 314.497 170.573 314.468 170.578C314.44 170.584 314.41 170.578 314.385 170.563Z" fill="white"/>
</svg>
